<?xml version="1.0" encoding="UTF-8"?> <svg xmlns="http://www.w3.org/2000/svg" viewBox="0 0 100 100" fill-rule="evenodd"> <g stroke-width="0.5" fill="white"> <path fill="white" d="M82.245 28.332c1.299-6.524 1.865-14.955-2.815-18.071-4.679-3.119-12.24.647-17.762 4.357-5.877 3.95-12.068 9.706-14.722 13.686l-1.963 2.946c-3.139-.085-13.09-.227-16.747 1.266-4.037 1.651-11.394 10.368-11.749 13.92-.136 1.365.554 2.042.979 2.325.781.519 2.895.715 5.645.715 2.918 0 6.551-.222 10.07-.513l-.663.996-.003.003-.002.004-5.587 8.384c-3.761 5.653-3.775 13.017-.138 18.658L24.461 80.5c-.978 1.466-1.301 3.239-.908 4.992a6.87 6.87 0 0 0 2.926 4.229 6.926 6.926 0 0 0 3.842 1.168c2.137 0 4.207-1 5.448-2.859l2.319-3.48c.994.178 1.991.267 2.983.266 5.605 0 10.994-2.785 14.195-7.585l6.697-10.053c2.109 6.527 4.629 13.356 6.24 14.43.251.167.665.367 1.213.367.377 0 .817-.095 1.311-.362 3.143-1.698 8.35-11.847 8.315-16.205-.025-3.947-3.993-13.079-5.281-15.941l1.518-2.279c2.653-3.978 5.583-11.908 6.966-18.856zM63.342 17.108c6.533-4.391 11.928-6.017 14.425-4.351 2.5 1.665 3.074 7.268 1.536 14.988-1.491 7.489-4.409 14.611-6.521 17.777L59.189 65.927l-16.05-10.692c-.01-.007-.017-.016-.027-.022-.01-.007-.021-.01-.031-.017l-7.238-4.821 11.139-16.718 2.459-3.691c2.114-3.166 7.566-8.601 13.901-12.858zM19.534 46.363c.676-2.386 6.502-9.705 9.837-11.07 2.399-.979 9.218-1.125 13.637-1.078l-7.696 11.55c-6.433.584-13.73.926-15.778.598zm9.889 13.65 4.757-7.139 6.018 4.009-11.562 17.35a14.079 14.079 0 0 1 .787-14.22zm3.85 26.351c-1.089 1.631-3.393 2.016-5.133.858a3.887 3.887 0 0 1-1.66-2.386c-.211-.945-.042-1.895.478-2.673l2.91-4.367.026-.038 12.802-19.213 6.312 4.205-15.735 23.614zM52.77 75.566c-2.852 4.279-7.815 6.613-12.83 6.203l11.564-17.355 6.022 4.012-4.756 7.14zm23.271-10.137c.028 3.594-4.451 11.75-6.404 13.33-1.164-1.892-3.627-8.684-5.543-14.781l7.691-11.546c1.747 4.059 4.24 10.409 4.256 12.997z"></path> <path fill="white" d="M56.201 44.239a10.331 10.331 0 0 0 5.744 1.741c3.36 0 6.662-1.625 8.662-4.625l.001-.001c3.174-4.77 1.878-11.231-2.89-14.404-2.309-1.538-5.079-2.086-7.8-1.542s-5.066 2.115-6.603 4.423a10.32 10.32 0 0 0-1.543 7.806 10.327 10.327 0 0 0 4.429 6.602zm-.387-12.745a7.328 7.328 0 0 1 4.694-3.145 7.346 7.346 0 0 1 5.549 1.097c3.39 2.256 4.312 6.852 2.054 10.244-2.259 3.39-6.857 4.311-10.246 2.051a7.326 7.326 0 0 1-3.149-4.695 7.336 7.336 0 0 1 1.098-5.552z"></path> </g> </svg> 