<?xml version="1.0" encoding="UTF-8"?> <svg xmlns="http://www.w3.org/2000/svg" viewBox="0 0 100 100" fill-rule="evenodd"> <g stroke-width="0.5" fill="white"> <path fill="white" d="M63.72 7.004H35.661c-15.514 0-28.135 19.289-28.135 42.998S20.147 93 35.661 93H63.72c15.514 0 28.136-19.289 28.136-42.998S79.233 7.004 63.72 7.004zm-28.059 3h17.754c-4.232 2.555-7.962 6.632-10.904 11.791l-16.68 7.887-8.433-7.12c4.586-7.724 11.075-12.558 18.263-12.558zm.107 35.152L22.797 53.02l-12.121-7.348c.521-7.659 2.408-14.671 5.261-20.417l8.697 7.342a1.501 1.501 0 0 0 1.609.21l14.083-6.659c-2.436 5.561-4.043 12.035-4.558 19.008zM10.54 49.097l11.479 6.958a1.494 1.494 0 0 0 1.555.001l12.031-7.294c-.008.413-.021.823-.021 1.239 0 7.585 1.297 14.713 3.562 20.906l-9.114 7.087-15.961-7.929c-.053-.026-.109-.042-.163-.062-2.147-5.889-3.383-12.719-3.383-20.003.001-.301.011-.601.015-.903zM35.661 90c-8.145 0-15.395-6.202-19.991-15.789l13.872 6.891a1.51 1.51 0 0 0 1.588-.159l9.174-7.134C43.471 81.06 48.04 86.755 53.414 90H35.661zm28.059 0c-8.964 0-16.841-7.511-21.292-18.78a1.472 1.472 0 0 0-.267-.681c-2.268-6.007-3.576-13.033-3.576-20.537 0-22.055 11.275-39.998 25.135-39.998 13.86 0 25.136 17.943 25.136 39.998C88.855 72.057 77.58 90 63.72 90z"></path> <path fill="white" d="M63.72 23.984c-7.985 0-14.24 11.429-14.24 26.018 0 14.59 6.254 26.019 14.24 26.019s14.24-11.429 14.24-26.019c0-14.589-6.255-26.018-14.24-26.018zm0 49.036c-6.093 0-11.24-10.541-11.24-23.019 0-12.477 5.147-23.018 11.24-23.018s11.24 10.541 11.24 23.018c0 12.478-5.148 23.019-11.24 23.019z"></path> </g> </svg> 