<?xml version="1.0" encoding="UTF-8"?> <svg xmlns="http://www.w3.org/2000/svg" viewBox="0 0 100 100" fill-rule="evenodd"> <g stroke-width="0.5" stroke="white"> <path fill="white" d="M79.5 39.5a18.89 18.89 0 0 0-7.23 1.44L60.19 17h3.31a1.5 1.5 0 0 0 0-3h-11a1.5 1.5 0 0 0 0 3h4.32l7.07 14H35a1.5 1.5 0 0 0-1.33.81L28.85 41a19 19 0 1 0 11.47 20h10.8a1.5 1.5 0 0 0 1.34-.82l13.08-25.91 4.06 8a19 19 0 1 0 9.9-2.81Zm-58 35a16 16 0 1 1 6-30.84l-7.93 15.15A1.5 1.5 0 0 0 20.9 61h16.38A16 16 0 0 1 21.5 74.5ZM30.12 45a16 16 0 0 1 7.35 13h-14.1Zm20.07 13h-9.72a19 19 0 0 0-9-15.62l4.4-8.38h26.45ZM79.5 74.5A16 16 0 0 1 71 45l7.41 14.68A1.5 1.5 0 0 0 81 58.32l-7.37-14.69A16 16 0 1 1 79.5 74.5Z"></path> <path fill="white" d="M27.5 27h14a1.5 1.5 0 0 0 0-3h-14a1.5 1.5 0 0 0 0 3Z"></path> </g> </svg> 