<svg xmlns="http://www.w3.org/2000/svg" viewBox="0 0 100 100" fill-rule="evenodd">
 <g stroke-width="0.5" stroke="white"> <path fill="white" d="M90.2 22.27 77.73 9.8a4.44 4.44 0 0 0-6.28 0L47.8 33.45a4.44 4.44 0 0 0 0 6.28L53 44.9l-8.57 8.57-5.69-5.67a4.45 4.45 0 0 0-6.29 0L8.8 71.44a4.45 4.45 0 0 0 0 6.29L21.26 90.2a4.46 4.46 0 0 0 6.29 0L51.2 66.56a4.45 4.45 0 0 0 0-6.29l-4.67-4.67L55.1 47l5.17 5.17a4.44 4.44 0 0 0 6.28 0L90.2 28.55a4.44 4.44 0 0 0 0-6.28ZM49.08 62.38a1.45 1.45 0 0 1 0 2.05L25.43 88.08a1.45 1.45 0 0 1-2.05 0L10.92 75.62a1.45 1.45 0 0 1 0-2.05l23.65-23.65a1.45 1.45 0 0 1 2.05 0l5.67 5.67-6.85 6.85a1.5 1.5 0 1 0 2.12 2.12l6.85-6.85Zm39-36-23.65 23.7a1.47 1.47 0 0 1-2 0l-5.21-5.18 7.34-7.34a1.5 1.5 0 0 0-2.12-2.12l-7.34 7.34-5.17-5.17a1.44 1.44 0 0 1 0-2l23.64-23.69a1.44 1.44 0 0 1 2 0l12.51 12.47a1.44 1.44 0 0 1 0 2Z"/> </g> </svg>