<svg xmlns="http://www.w3.org/2000/svg" viewBox="0 0 100 100" fill-rule="evenodd"> <g stroke-width="0.5" stroke="white"> <path fill="white" d="M64.82 40.86a4.9 4.9 0 0 0-1.82.35v-.47a5.38 5.38 0 0 0-5.37-5.37h-.25a5.3 5.3 0 0 0-2.48.64 5.38 5.38 0 0 0-5.26-4.29 5.78 5.78 0 0 0-2.63.63v-7.76h9.5a1.5 1.5 0 0 0 1.5-1.5V8.5A1.5 1.5 0 0 0 56.5 7h-31A1.5 1.5 0 0 0 24 8.5v14.59a1.5 1.5 0 0 0 1.5 1.5H36v36.7l-8.79-7.2a9.24 9.24 0 0 0-12.43.52 1.5 1.5 0 0 0-.12 2L36 83.89V96.5a1.5 1.5 0 0 0 3 0V83.37a1.5 1.5 0 0 0-.32-.92L17.92 55.89a6.24 6.24 0 0 1 7.37.49l11.26 9.23A1.5 1.5 0 0 0 39 64.46V19.61a2.38 2.38 0 0 1 2.37-2.37h.25A2.38 2.38 0 0 1 44 19.61V51.5a1.5 1.5 0 0 0 3 0V37a2.53 2.53 0 0 1 2.63-2.27A2.38 2.38 0 0 1 52 37.1v14.4a1.5 1.5 0 0 0 3 0V40.75a2.38 2.38 0 0 1 2.37-2.37h.25A2.38 2.38 0 0 1 60 40.75V51.5a1.5 1.5 0 0 0 3 0V46a1.89 1.89 0 0 1 1.82-2.14A2.18 2.18 0 0 1 67 46v25.89a15.47 15.47 0 0 1-4.56 11A1.5 1.5 0 0 0 62 84v11.5a1.5 1.5 0 0 0 3 0V84.57a18.44 18.44 0 0 0 5-12.68V46a5.18 5.18 0 0 0-5.18-5.14ZM41.63 14.23h-.25A5.38 5.38 0 0 0 36 19.61v2h-9V10h28v11.59h-8v-2a5.38 5.38 0 0 0-5.37-5.36ZM79.5 13h-15a1.5 1.5 0 0 0 0 3h15a1.5 1.5 0 0 0 0-3Z"/> <path fill="white" d="M64.67 22a1.5 1.5 0 0 0-2.12 2.12l13.37 13.4A1.5 1.5 0 0 0 78 35.4Zm-43.61 4.94a1.5 1.5 0 0 0-2.12 0l-10 10a1.5 1.5 0 1 0 2.12 2.12l10-10a1.5 1.5 0 0 0 0-2.12Z"/> </g> </svg>