<svg width="252" height="90" viewBox="0 0 252 90" fill="none" xmlns="http://www.w3.org/2000/svg">
<path d="M76.525 59C75.535 59 74.77 58.745 74.23 58.235C73.72 57.695 73.465 56.93 73.465 55.94V30.335C73.465 29.345 73.72 28.595 74.23 28.085C74.77 27.545 75.535 27.275 76.525 27.275H85.255C90.565 27.275 94.66 28.64 97.54 31.37C100.45 34.1 101.905 38.015 101.905 43.115C101.905 45.665 101.53 47.93 100.78 49.91C100.06 51.86 98.98 53.51 97.54 54.86C96.13 56.21 94.39 57.245 92.32 57.965C90.28 58.655 87.925 59 85.255 59H76.525ZM79.225 54.23H84.895C86.755 54.23 88.36 54.005 89.71 53.555C91.09 53.075 92.23 52.385 93.13 51.485C94.06 50.555 94.75 49.4 95.2 48.02C95.65 46.61 95.875 44.975 95.875 43.115C95.875 39.395 94.96 36.62 93.13 34.79C91.3 32.96 88.555 32.045 84.895 32.045H79.225V54.23ZM112.782 67.46C112.122 67.46 111.582 67.28 111.162 66.92C110.742 66.59 110.487 66.14 110.397 65.57C110.337 65 110.442 64.4 110.712 63.77L113.772 56.975V59.315L105.582 40.37C105.312 39.71 105.222 39.095 105.312 38.525C105.402 37.955 105.672 37.505 106.122 37.175C106.602 36.815 107.247 36.635 108.057 36.635C108.747 36.635 109.302 36.8 109.722 37.13C110.142 37.43 110.517 38.015 110.847 38.885L116.922 54.05H115.572L121.782 38.84C122.112 38 122.502 37.43 122.952 37.13C123.402 36.8 124.002 36.635 124.752 36.635C125.412 36.635 125.937 36.815 126.327 37.175C126.717 37.505 126.957 37.955 127.047 38.525C127.137 39.065 127.032 39.665 126.732 40.325L115.797 65.3C115.407 66.14 114.987 66.71 114.537 67.01C114.087 67.31 113.502 67.46 112.782 67.46ZM133.679 59.36C132.779 59.36 132.089 59.12 131.609 58.64C131.129 58.13 130.889 57.41 130.889 56.48V39.47C130.889 38.54 131.129 37.835 131.609 37.355C132.089 36.875 132.764 36.635 133.634 36.635C134.504 36.635 135.179 36.875 135.659 37.355C136.139 37.835 136.379 38.54 136.379 39.47V42.53L135.884 41.405C136.544 39.815 137.564 38.615 138.944 37.805C140.354 36.965 141.944 36.545 143.714 36.545C145.484 36.545 146.939 36.875 148.079 37.535C149.219 38.195 150.074 39.2 150.644 40.55C151.214 41.87 151.499 43.55 151.499 45.59V56.48C151.499 57.41 151.259 58.13 150.779 58.64C150.299 59.12 149.609 59.36 148.709 59.36C147.809 59.36 147.104 59.12 146.594 58.64C146.114 58.13 145.874 57.41 145.874 56.48V45.86C145.874 44.15 145.544 42.905 144.884 42.125C144.254 41.345 143.264 40.955 141.914 40.955C140.264 40.955 138.944 41.48 137.954 42.53C136.994 43.55 136.514 44.915 136.514 46.625V56.48C136.514 58.4 135.569 59.36 133.679 59.36ZM164.457 59.45C162.867 59.45 161.442 59.15 160.182 58.55C158.952 57.92 157.977 57.08 157.257 56.03C156.567 54.98 156.222 53.795 156.222 52.475C156.222 50.855 156.642 49.58 157.482 48.65C158.322 47.69 159.687 47 161.577 46.58C163.467 46.16 166.002 45.95 169.182 45.95H171.432V49.19H169.227C167.367 49.19 165.882 49.28 164.772 49.46C163.662 49.64 162.867 49.955 162.387 50.405C161.937 50.825 161.712 51.425 161.712 52.205C161.712 53.195 162.057 54.005 162.747 54.635C163.437 55.265 164.397 55.58 165.627 55.58C166.617 55.58 167.487 55.355 168.237 54.905C169.017 54.425 169.632 53.78 170.082 52.97C170.532 52.16 170.757 51.23 170.757 50.18V45.005C170.757 43.505 170.427 42.425 169.767 41.765C169.107 41.105 167.997 40.775 166.437 40.775C165.567 40.775 164.622 40.88 163.602 41.09C162.612 41.3 161.562 41.66 160.452 42.17C159.882 42.44 159.372 42.515 158.922 42.395C158.502 42.275 158.172 42.035 157.932 41.675C157.692 41.285 157.572 40.865 157.572 40.415C157.572 39.965 157.692 39.53 157.932 39.11C158.172 38.66 158.577 38.33 159.147 38.12C160.527 37.55 161.847 37.145 163.107 36.905C164.397 36.665 165.567 36.545 166.617 36.545C168.777 36.545 170.547 36.875 171.927 37.535C173.337 38.195 174.387 39.2 175.077 40.55C175.767 41.87 176.112 43.58 176.112 45.68V56.48C176.112 57.41 175.887 58.13 175.437 58.64C174.987 59.12 174.342 59.36 173.502 59.36C172.662 59.36 172.002 59.12 171.522 58.64C171.072 58.13 170.847 57.41 170.847 56.48V54.32H171.207C170.997 55.37 170.577 56.285 169.947 57.065C169.347 57.815 168.582 58.4 167.652 58.82C166.722 59.24 165.657 59.45 164.457 59.45ZM184.701 59.36C183.801 59.36 183.111 59.12 182.631 58.64C182.151 58.13 181.911 57.41 181.911 56.48V39.47C181.911 38.54 182.151 37.835 182.631 37.355C183.111 36.875 183.786 36.635 184.656 36.635C185.526 36.635 186.201 36.875 186.681 37.355C187.161 37.835 187.401 38.54 187.401 39.47V42.755L186.906 41.405C187.506 39.905 188.436 38.72 189.696 37.85C190.956 36.98 192.456 36.545 194.196 36.545C195.966 36.545 197.421 36.965 198.561 37.805C199.701 38.645 200.496 39.935 200.946 41.675H200.316C200.916 40.085 201.906 38.84 203.286 37.94C204.666 37.01 206.256 36.545 208.056 36.545C209.736 36.545 211.116 36.875 212.196 37.535C213.306 38.195 214.131 39.2 214.671 40.55C215.211 41.87 215.481 43.55 215.481 45.59V56.48C215.481 57.41 215.226 58.13 214.716 58.64C214.236 59.12 213.546 59.36 212.646 59.36C211.746 59.36 211.056 59.12 210.576 58.64C210.096 58.13 209.856 57.41 209.856 56.48V45.815C209.856 44.135 209.571 42.905 209.001 42.125C208.461 41.345 207.531 40.955 206.211 40.955C204.741 40.955 203.586 41.48 202.746 42.53C201.906 43.55 201.486 44.975 201.486 46.805V56.48C201.486 57.41 201.246 58.13 200.766 58.64C200.286 59.12 199.596 59.36 198.696 59.36C197.796 59.36 197.091 59.12 196.581 58.64C196.101 58.13 195.861 57.41 195.861 56.48V45.815C195.861 44.135 195.576 42.905 195.006 42.125C194.466 41.345 193.551 40.955 192.261 40.955C190.791 40.955 189.636 41.48 188.796 42.53C187.956 43.55 187.536 44.975 187.536 46.805V56.48C187.536 58.4 186.591 59.36 184.701 59.36ZM224.074 59.315C223.174 59.315 222.484 59.045 222.004 58.505C221.524 57.965 221.284 57.215 221.284 56.255V39.74C221.284 38.75 221.524 38 222.004 37.49C222.484 36.95 223.174 36.68 224.074 36.68C224.974 36.68 225.664 36.95 226.144 37.49C226.654 38 226.909 38.75 226.909 39.74V56.255C226.909 57.215 226.669 57.965 226.189 58.505C225.709 59.045 225.004 59.315 224.074 59.315ZM224.074 32.495C223.024 32.495 222.199 32.24 221.599 31.73C221.029 31.19 220.744 30.455 220.744 29.525C220.744 28.565 221.029 27.83 221.599 27.32C222.199 26.81 223.024 26.555 224.074 26.555C225.154 26.555 225.979 26.81 226.549 27.32C227.119 27.83 227.404 28.565 227.404 29.525C227.404 30.455 227.119 31.19 226.549 31.73C225.979 32.24 225.154 32.495 224.074 32.495ZM242.924 59.45C240.614 59.45 238.604 58.985 236.894 58.055C235.184 57.095 233.864 55.745 232.934 54.005C232.004 52.265 231.539 50.225 231.539 47.885C231.539 46.115 231.794 44.54 232.304 43.16C232.844 41.75 233.609 40.565 234.599 39.605C235.589 38.615 236.789 37.865 238.199 37.355C239.609 36.815 241.184 36.545 242.924 36.545C243.914 36.545 244.979 36.68 246.119 36.95C247.289 37.22 248.384 37.67 249.404 38.3C249.884 38.6 250.199 38.96 250.349 39.38C250.499 39.8 250.529 40.235 250.439 40.685C250.349 41.105 250.154 41.48 249.854 41.81C249.584 42.11 249.239 42.305 248.819 42.395C248.399 42.455 247.934 42.35 247.424 42.08C246.764 41.69 246.089 41.405 245.399 41.225C244.709 41.015 244.049 40.91 243.419 40.91C242.429 40.91 241.559 41.075 240.809 41.405C240.059 41.705 239.414 42.155 238.874 42.755C238.364 43.325 237.974 44.045 237.704 44.915C237.434 45.785 237.299 46.79 237.299 47.93C237.299 50.15 237.824 51.905 238.874 53.195C239.954 54.455 241.469 55.085 243.419 55.085C244.049 55.085 244.694 54.995 245.354 54.815C246.044 54.635 246.734 54.35 247.424 53.96C247.934 53.69 248.384 53.6 248.774 53.69C249.194 53.78 249.539 53.99 249.809 54.32C250.079 54.62 250.244 54.995 250.304 55.445C250.364 55.865 250.304 56.285 250.124 56.705C249.974 57.125 249.674 57.47 249.224 57.74C248.234 58.34 247.184 58.775 246.074 59.045C244.964 59.315 243.914 59.45 242.924 59.45Z" fill="#CCDEFF"/>
<g clip-path="url(#clip0_1_9805)">
<mask id="mask0_1_9805" style="mask-type:luminance" maskUnits="userSpaceOnUse" x="0" y="0" width="90" height="90">
<path d="M90 0H0V90H90V0Z" fill="white"/>
</mask>
<g mask="url(#mask0_1_9805)">
<path d="M38.7758 56.8748L29.0794 51.2524C29.6145 53.0563 30.9915 57.8636 32.256 62.0642C36.0938 64.5105 41.3452 67.9003 43.5356 69.2932L38.7758 56.8748Z" fill="#CCFF00"/>
<path d="M47.3381 45.8994L42.711 47.0536L40.2294 56.26L45.1133 69.0015C47.9086 67.1278 54.2379 62.8483 57.2146 60.8342L47.3381 45.8994Z" fill="#082CAF"/>
<path d="M44.953 21.9127L48.4109 44.6603L58.0392 59.2194C58.5859 56.8697 59.7181 51.9802 60.1864 50.3925C57.2003 44.8132 47.6445 26.9229 44.953 21.9127Z" fill="#1954ED"/>
<path d="M42.3034 45.3755L42.5873 45.453L46.778 44.4078L43.3693 21.9855C41.8907 25.0358 38.6142 31.7904 35.7806 37.6446L42.3034 45.3755Z" fill="#CCFF00"/>
<path d="M38.9033 55.1205L41.2164 46.537L35.0129 39.184C32.7144 43.245 30.4788 47.4865 29.3849 49.6015L38.9033 55.1205Z" fill="#1954ED"/>
</g>
</g>
<defs>
<clipPath id="clip0_1_9805">
<rect width="90" height="90" fill="white"/>
</clipPath>
</defs>
</svg>
