<svg width="227" height="68" viewBox="0 0 227 68" fill="none" xmlns="http://www.w3.org/2000/svg">
<path d="M13.8964 45.333C12.7035 44.1142 11.7597 42.669 11.1193 41.0802C10.4788 39.4916 10.1542 37.7904 10.1641 36.0746C10.1597 34.3586 10.4933 32.6592 11.1453 31.0752C11.7973 29.4914 12.7546 28.0552 13.9613 26.8502C14.4782 26.3852 14.8959 25.818 15.1888 25.1836C15.4817 24.5494 15.6436 23.8612 15.6647 23.1614C15.6857 22.4614 15.5655 21.7646 15.3113 21.1134C15.0571 20.4622 14.6743 19.8704 14.1864 19.3743C13.6984 18.8781 13.1156 18.4879 12.4735 18.2278C11.8315 17.9676 11.1437 17.8428 10.4524 17.8611C9.76106 17.8794 9.08069 18.0404 8.45295 18.3342C7.8252 18.628 7.26329 19.0484 6.80163 19.5698C2.46518 23.9344 0.0186366 29.8644 0.000106032 36.0552C-0.0184245 42.2462 2.39258 48.191 6.70282 52.5822C7.16298 53.1028 7.72305 53.523 8.34886 53.8174C8.97467 54.1116 9.65315 54.2738 10.3429 54.294C11.0326 54.3142 11.7192 54.1918 12.3608 53.9346C13.0023 53.6774 13.5854 53.2906 14.0745 52.7976C14.5635 52.3048 14.9484 51.7164 15.2055 51.068C15.4626 50.4196 15.5866 49.725 15.5699 49.0266C15.5532 48.3282 15.3963 47.6406 15.1085 47.0056C14.8208 46.3704 14.4084 45.8014 13.8964 45.333Z" fill="#CCDEFF"/>
<path d="M32.1847 45.3982C30.9812 46.6084 29.5539 47.5664 27.9843 48.2174C26.4146 48.8682 24.7336 49.1992 23.0374 49.1914C21.3416 49.194 19.6626 48.854 18.0982 48.1914C16.5338 47.5288 15.1157 46.5568 13.9269 45.3324C13.4675 44.8092 12.9074 44.3862 12.2809 44.0896C11.6544 43.7932 10.9748 43.6292 10.2835 43.6078C9.59224 43.5866 8.90398 43.7082 8.26082 43.9656C7.61766 44.223 7.03316 44.6106 6.54308 45.1046C6.05302 45.5986 5.66769 46.1888 5.41073 46.8388C5.15376 47.489 5.03053 48.1852 5.04861 48.8852C5.06669 49.5852 5.22569 50.274 5.51586 50.9096C5.80604 51.5452 6.22129 52.1142 6.73619 52.5816C8.8662 54.762 11.4003 56.4954 14.1932 57.6826C16.9861 58.8696 19.983 59.487 23.012 59.4992C26.0409 59.5114 29.0425 58.9182 31.8446 57.7538C34.6468 56.5892 37.1945 54.8762 39.3416 52.713C39.8159 52.2372 40.1931 51.6716 40.4515 51.0482C40.7101 50.4248 40.8447 49.756 40.8479 49.0798C40.851 48.4038 40.7225 47.7338 40.4698 47.108C40.2172 46.4822 39.8453 45.9128 39.3755 45.4326C38.9055 44.9522 38.3467 44.5704 37.731 44.3086C37.1154 44.047 36.4549 43.9108 35.7871 43.9076C35.1194 43.9044 34.4575 44.0344 33.8395 44.2902C33.2214 44.546 32.6591 44.9224 32.1847 45.3982Z" fill="#CCDEFF"/>
<path d="M13.8611 52.582C13.1485 53.302 12.2408 53.7916 11.2531 53.9884C10.2653 54.1854 9.24207 54.0808 8.31311 53.688C7.38415 53.2954 6.5913 52.6319 6.03519 51.7823C5.47908 50.9327 5.18473 49.9349 5.18951 48.9157C5.19427 47.8965 5.49791 46.9016 6.06196 46.0574C6.62599 45.2132 7.42497 44.5576 8.35758 44.1736C9.29018 43.7898 10.3144 43.6952 11.3002 43.9016C12.2861 44.1078 13.1892 44.606 13.895 45.333C14.8352 46.3012 15.3593 47.6066 15.353 48.9644C15.3466 50.3224 14.8104 51.6228 13.8611 52.582Z" fill="#CCDEFF"/>
<path d="M13.9604 26.8504C16.3922 24.4128 19.6794 23.051 23.1013 23.0634C26.5233 23.0756 29.8007 24.4612 32.2152 26.916C32.6738 27.4422 33.2338 27.8678 33.8609 28.1666C34.4878 28.4656 35.1686 28.6314 35.8612 28.6542C36.5539 28.6768 37.2438 28.5558 37.8885 28.2986C38.5333 28.0414 39.1192 27.6534 39.6105 27.1584C40.1016 26.6634 40.4877 26.072 40.7447 25.4204C41.0019 24.7688 41.1245 24.0708 41.1053 23.3694C41.0862 22.668 40.9257 21.978 40.6334 21.3418C40.3412 20.7056 39.9236 20.1366 39.406 19.6699C37.2797 17.4892 34.7487 15.7554 31.9588 14.5679C29.1687 13.3804 26.1745 12.7627 23.1479 12.7502C20.1213 12.7377 17.1222 13.3307 14.3227 14.4951C11.5231 15.6596 8.97839 17.3725 6.83456 19.5355C6.31579 19.9983 5.89577 20.5634 5.60015 21.1962C5.30456 21.829 5.13962 22.5164 5.11542 23.216C5.09122 23.9156 5.20829 24.6128 5.45943 25.265C5.71059 25.9172 6.09055 26.5108 6.57607 27.0092C7.0616 27.5076 7.64246 27.9004 8.28311 28.1636C8.92377 28.4268 9.61075 28.555 10.302 28.54C10.9932 28.5252 11.6742 28.3678 12.3033 28.0772C12.9323 27.7866 13.4962 27.3692 13.9604 26.8504Z" fill="#CCDEFF"/>
<path d="M13.9621 26.85C13.2499 27.5704 12.3423 28.0602 11.3547 28.2576C10.367 28.455 9.34371 28.3508 8.41458 27.9584C7.48546 27.566 6.69237 26.903 6.13592 26.0536C5.57947 25.2042 5.28475 24.2066 5.28911 23.1874C5.29347 22.1682 5.59674 21.1732 6.16045 20.3286C6.72416 19.4841 7.52289 18.8282 8.45535 18.444C9.3878 18.0598 10.4119 17.9646 11.3979 18.1706C12.3838 18.3766 13.2871 18.8745 13.9932 19.601C14.9338 20.569 15.4584 21.874 15.4526 23.232C15.4468 24.59 14.911 25.8904 13.9621 26.85Z" fill="#CCDEFF"/>
<path d="M62.0209 41.1162C63.4862 39.9958 63.681 40.6218 64.9174 41.8738C65.5359 42.4998 67.2269 43.5888 66.1201 44.5092C63.8109 46.4188 61.7272 47.2762 58.7798 47.2762C52.1085 47.2448 47.3911 42.2024 47.7693 35.5136C47.9301 32.518 49.1019 29.6824 51.4141 27.7386C53.5287 25.9264 56.1627 25.1374 58.9294 25.2032C60.2855 25.1992 61.6289 25.4672 62.8819 25.9922C63.7307 26.3024 64.5305 26.7356 65.2564 27.2784C66.7216 28.4218 66.0384 29.0908 64.8977 30.2426C64.6379 30.5056 64.3784 30.7714 64.1496 31.0344C63.5651 31.6262 63.1727 32.055 62.3936 31.4946C60.8972 30.4398 59.0058 29.8796 57.2186 30.3512C51.4593 31.832 51.7191 42.211 58.7827 42.2454C59.9536 42.2298 61.0886 41.834 62.0209 41.1162ZM222.117 47.4048C221.886 47.406 221.657 47.3608 221.444 47.2718C221.23 47.183 221.035 47.0522 220.871 46.8868C220.709 46.7216 220.579 46.5252 220.49 46.3088C220.403 46.0926 220.358 45.8608 220.358 45.627L220.457 22.6306C220.457 22.3966 220.5 22.1648 220.589 21.9484C220.676 21.732 220.806 21.5354 220.97 21.3698C221.132 21.2042 221.327 21.073 221.54 20.9838C221.754 20.8946 221.982 20.849 222.213 20.8498H224.102C224.333 20.849 224.562 20.8946 224.776 20.9842C224.991 21.0736 225.184 21.205 225.348 21.3708C225.51 21.5368 225.64 21.7336 225.727 21.9504C225.816 22.1672 225.859 22.3992 225.857 22.6334L225.759 45.6298C225.761 45.8636 225.715 46.0952 225.628 46.3116C225.539 46.5278 225.411 46.7242 225.247 46.8896C225.083 47.0548 224.89 47.1858 224.677 47.2748C224.464 47.3636 224.235 47.4088 224.004 47.4078L222.117 47.4048ZM212.235 44.738C210.186 46.6816 208.232 47.7022 205.336 47.7022C199.48 47.6678 196.68 42.7598 196.68 37.2574L196.714 27.9016C196.713 27.6678 196.758 27.4362 196.846 27.22C196.935 27.004 197.064 26.8078 197.228 26.6426C197.391 26.4776 197.585 26.347 197.8 26.2584C198.013 26.1698 198.242 26.125 198.473 26.1264H200.362C200.593 26.1254 200.822 26.1706 201.035 26.2596C201.249 26.3484 201.442 26.4794 201.606 26.6448C201.77 26.81 201.898 27.0064 201.987 27.2228C202.074 27.439 202.119 27.6706 202.117 27.9044L202.087 37.2602C202.087 40.3244 203.712 42.7284 206.904 42.7284C210.094 42.7284 212.044 40.0272 212.075 37.0116V33.67C212.05 33.5402 212.04 33.4078 212.044 33.2754L212.075 27.9702C212.073 27.7364 212.119 27.5046 212.206 27.2884C212.295 27.0722 212.423 26.8758 212.587 26.7104C212.75 26.5452 212.944 26.4142 213.157 26.3252C213.372 26.2364 213.599 26.191 213.83 26.1922H215.694C215.925 26.191 216.154 26.2364 216.369 26.3252C216.582 26.4142 216.775 26.5452 216.939 26.7104C217.101 26.8758 217.231 27.0722 217.32 27.2884C217.407 27.5046 217.452 27.7364 217.45 27.9702L217.389 45.6298C217.383 46.097 217.196 46.5434 216.868 46.8708C216.538 47.1984 216.094 47.38 215.632 47.3762H214.037C213.583 47.362 213.153 47.1734 212.833 46.8488C212.514 46.5244 212.326 46.0884 212.312 45.6298L212.235 44.738ZM189.772 26.1922H193.416C193.648 26.1956 193.876 26.2452 194.088 26.3382C194.3 26.4314 194.491 26.566 194.652 26.7344C194.812 26.903 194.938 27.102 195.022 27.32C195.106 27.5378 195.147 27.7706 195.141 28.0044V29.2222C195.138 29.6916 194.952 30.1408 194.625 30.4732C194.298 30.8058 193.855 30.995 193.391 31.0002H189.738L189.673 45.5298C189.674 45.7636 189.629 45.9956 189.541 46.2118C189.454 46.4282 189.324 46.625 189.161 46.7904C188.998 46.956 188.804 47.0872 188.59 47.1764C188.377 47.2658 188.148 47.3112 187.917 47.3106H186.031C185.8 47.3112 185.571 47.2658 185.357 47.1766C185.143 47.0872 184.949 46.9562 184.785 46.7906C184.622 46.6252 184.493 46.4286 184.404 46.2122C184.316 45.9958 184.271 45.7638 184.272 45.5298L184.337 25.4348C184.337 21.0528 186.81 17.5911 191.237 17.1966C191.367 17.1966 191.463 17.1652 191.593 17.1652C191.853 17.1481 192.114 17.1481 192.375 17.1652H194.069C194.299 17.1685 194.527 17.2181 194.739 17.311C194.951 17.4039 195.143 17.5383 195.303 17.7065C195.463 17.8746 195.589 18.0733 195.673 18.2909C195.758 18.5086 195.799 18.7409 195.794 18.9746V20.0952C195.791 20.566 195.605 21.0168 195.276 21.35C194.948 21.6832 194.503 21.8722 194.038 21.876H192.671C190.588 21.876 189.71 23.4882 189.676 25.4662L189.772 26.1922ZM176.692 26.1264H180.686C181.148 26.131 181.589 26.3208 181.912 26.6542C182.236 26.9874 182.415 27.4372 182.411 27.9044V29.1222C182.407 29.5894 182.22 30.0358 181.89 30.3632C181.561 30.6906 181.117 30.8724 180.655 30.8686H176.658L176.627 39.7584C176.627 41.4736 177.44 42.4598 179.131 42.4598H179.944C180.406 42.465 180.847 42.6554 181.17 42.9892C181.493 43.323 181.673 43.773 181.669 44.2406V45.4754C181.664 45.9424 181.476 46.3884 181.147 46.7156C180.818 47.043 180.374 47.225 179.913 47.222H178.383C178.1 47.2276 177.817 47.2162 177.536 47.1876C173.208 46.9018 171.288 44.0604 171.288 39.7756C171.322 34.0102 171.322 28.279 171.353 22.5134C171.355 22.2818 171.402 22.0528 171.492 21.8398C171.582 21.6266 171.712 21.4334 171.875 21.2712C172.038 21.1092 172.232 20.981 172.444 20.8946C172.656 20.808 172.883 20.7646 173.112 20.7668H174.967C175.428 20.7714 175.869 20.9612 176.192 21.2946C176.516 21.6278 176.695 22.0776 176.692 22.5448V26.1264ZM118.816 25.895H122.811C123.272 25.8994 123.713 26.0892 124.036 26.4226C124.36 26.756 124.539 27.2056 124.536 27.673V28.8964C124.53 29.3634 124.343 29.8092 124.013 30.1366C123.684 30.4638 123.241 30.646 122.78 30.6428H118.771V39.5356C118.771 41.2506 119.584 42.2368 121.275 42.2368H122.091C122.319 42.239 122.545 42.2868 122.755 42.3774C122.965 42.468 123.155 42.5996 123.315 42.7646C123.475 42.9298 123.601 43.125 123.687 43.3396C123.772 43.554 123.815 43.7834 123.813 44.0148V45.2324C123.808 45.6998 123.621 46.146 123.292 46.4736C122.962 46.801 122.518 46.9828 122.057 46.979H120.854C116.134 46.9476 113.401 44.9038 113.401 39.547C113.435 33.7814 113.435 28.0474 113.466 22.2818C113.471 21.8144 113.659 21.368 113.989 21.0406C114.318 20.7132 114.763 20.5316 115.225 20.5354H117.079C117.541 20.5406 117.981 20.7312 118.304 21.065C118.627 21.3988 118.806 21.8488 118.802 22.3162L118.816 25.895ZM95.3236 28.399C97.2434 26.5866 99.3269 25.4348 102.026 25.4348C107.884 25.4662 110.911 30.2942 110.877 35.8766L110.846 45.2324C110.846 45.4666 110.801 45.6984 110.713 45.9148C110.625 46.1312 110.496 46.3278 110.332 46.4934C110.169 46.6588 109.975 46.79 109.761 46.8792C109.547 46.9684 109.318 47.014 109.087 47.0132H107.201C106.97 47.014 106.741 46.9684 106.527 46.8792C106.313 46.79 106.119 46.6588 105.955 46.4934C105.792 46.3278 105.663 46.1312 105.574 45.9148C105.486 45.6984 105.441 45.4666 105.442 45.2324L105.476 35.9424C105.476 32.8782 103.85 30.4742 100.659 30.4742C97.4692 30.4742 95.5184 33.144 95.4874 36.174L95.4535 45.2324C95.4489 45.6998 95.2616 46.146 94.9324 46.4736C94.6031 46.801 94.159 46.9828 93.6975 46.979H91.8426C91.3811 46.9744 90.9401 46.7846 90.6168 46.4514C90.2935 46.118 90.1138 45.6682 90.1176 45.201C90.1486 39.567 90.1486 33.9014 90.1825 28.2674V27.51C90.1841 27.0432 90.3683 26.596 90.6948 26.2666C91.0213 25.937 91.4634 25.752 91.9245 25.752H93.5196C93.9728 25.7656 94.4037 25.954 94.7243 26.2786C95.0451 26.6034 95.231 27.0396 95.2446 27.4986L95.3236 28.399ZM153.31 28.6276C155.229 26.8182 157.31 25.6634 160.012 25.6634C165.87 25.6978 168.894 30.54 168.863 36.1082L168.829 45.4754C168.83 45.7094 168.786 45.9412 168.698 46.1576C168.61 46.374 168.481 46.5706 168.317 46.7362C168.154 46.9018 167.96 47.0328 167.746 47.1222C167.533 47.2114 167.304 47.257 167.073 47.2562H165.187C164.956 47.257 164.727 47.2114 164.513 47.1222C164.299 47.033 164.105 46.9018 163.942 46.7364C163.778 46.5708 163.649 46.3742 163.561 46.1578C163.472 45.9414 163.427 45.7094 163.428 45.4754L163.462 36.1854C163.462 33.1212 161.833 30.7172 158.646 30.7172C155.458 30.7172 153.504 33.3842 153.471 36.417L153.426 45.4754C153.42 45.943 153.232 46.3892 152.902 46.7166C152.573 47.044 152.128 47.2258 151.667 47.222H149.812C149.351 47.2166 148.911 47.0266 148.588 46.6932C148.265 46.36 148.086 45.9108 148.09 45.444L148.155 27.75C148.155 27.5176 148.201 27.2874 148.29 27.073C148.379 26.8584 148.509 26.664 148.673 26.5006C148.836 26.3372 149.03 26.2082 149.243 26.1208C149.456 26.0336 149.684 25.9898 149.913 25.9922H151.508C151.963 26.0074 152.395 26.1982 152.716 26.5256C153.036 26.8532 153.22 27.2922 153.231 27.753L153.31 28.6276ZM77.6079 25.269C71.2614 25.2346 66.7723 29.8796 66.7386 36.2712C66.7074 42.7284 71.1315 47.3106 77.543 47.342C83.9544 47.3734 88.4435 42.8284 88.4745 36.3284C88.5085 29.9796 83.9207 25.3004 77.6079 25.269ZM130.289 38.4808C130.744 41.445 133.544 42.6626 136.277 42.697C137.647 42.6848 139 42.382 140.247 41.808C140.447 41.7252 140.642 41.6298 140.831 41.5222C141.483 41.1592 142.068 40.9304 142.655 41.5222C142.98 41.8508 143.273 42.1824 143.598 42.4768C143.905 42.7732 144.188 43.0934 144.445 43.4344C145.323 44.5522 144.705 44.818 143.697 45.5098C141.548 46.959 138.75 47.6822 136.178 47.6822C129.281 47.6506 124.725 43.3944 124.725 36.3512C124.759 29.6938 129.312 25.2804 135.885 25.3118C142.59 25.3462 146.396 29.3336 146.495 36.1196C146.526 37.9634 146.59 38.558 144.705 38.558L130.289 38.4808ZM77.6079 30.2426C80.8941 30.2426 83.0737 33.144 83.0737 36.3398C83.0737 39.667 81.024 42.3426 77.574 42.3426C74.124 42.3426 72.1082 39.6412 72.1082 36.314C72.1082 32.9868 74.1919 30.2426 77.6079 30.2426ZM130.433 33.9014L141.238 33.933C140.845 31.1974 138.601 30.1112 136.032 30.1112C133.463 30.1112 131.232 31.3318 130.433 33.9014Z" fill="#CCDEFF"/>
</svg>
