<svg width="220" height="57" viewBox="0 0 220 57" fill="none" xmlns="http://www.w3.org/2000/svg">
<mask id="mask0_1_20009" style="mask-type:luminance" maskUnits="userSpaceOnUse" x="0" y="0" width="220" height="56">
<path d="M220 0.785645H0V55.7856H220V0.785645Z" fill="white"/>
</mask>
<g mask="url(#mask0_1_20009)">
<path d="M99.6216 41.9812C97.7013 41.9812 95.9146 41.6529 94.2616 40.9964C92.6585 40.3326 91.1977 39.3671 89.9587 38.1524C88.7456 36.9402 87.7798 35.5035 87.1149 33.9226C86.434 32.294 86.0937 30.5437 86.0937 28.6714C86.0937 26.7995 86.434 25.0615 87.1149 23.4572C87.7952 21.828 88.7436 20.4189 89.9587 19.2272C91.1746 18.0358 92.5965 17.1124 94.2252 16.4563C95.8782 15.7754 97.6647 15.4351 99.5852 15.4351C101.627 15.4351 103.439 15.7633 105.019 16.4199C106.375 16.9743 107.583 17.7026 108.644 18.6048C108.965 18.8778 108.97 19.3629 108.674 19.6619L105.934 22.4268C105.633 22.7307 105.143 22.7197 104.818 22.4419C104.243 21.9556 103.598 21.56 102.904 21.2693C101.956 20.8559 100.85 20.6492 99.5852 20.6492C98.4672 20.6492 97.4343 20.8438 96.486 21.2329C95.562 21.5976 94.7601 22.1325 94.0792 22.8378C93.4233 23.5424 92.9005 24.3935 92.5114 25.3898C92.1466 26.3868 91.9644 27.4804 91.9644 28.6714C91.9644 29.8872 92.1466 30.993 92.5114 31.9901C92.9005 32.9864 93.4233 33.8374 94.0792 34.5421C94.7609 35.248 95.5801 35.8066 96.486 36.1834C97.4343 36.5719 98.4672 36.7664 99.5852 36.7664C100.898 36.7664 102.041 36.5598 103.013 36.147C103.721 35.8493 104.38 35.4478 104.97 34.9554C105.292 34.6843 105.773 34.6771 106.07 34.9748L108.84 37.7434C109.142 38.046 109.133 38.5415 108.803 38.8134C107.695 39.722 106.456 40.458 105.128 40.9964C103.548 41.6529 101.712 41.9812 99.6216 41.9812ZM79.3001 41.58C79.1003 41.5797 78.9089 41.5004 78.7677 41.3591C78.6264 41.218 78.547 41.0264 78.5469 40.8267V16.589C78.5472 16.3892 78.6267 16.198 78.7678 16.0569C78.9091 15.9158 79.1005 15.8364 79.3001 15.8363H83.5184C83.7181 15.8364 83.9097 15.9158 84.0508 16.057C84.1921 16.1983 84.2714 16.3897 84.2717 16.5896V40.8267C84.2714 41.0264 84.1921 41.218 84.0508 41.3591C83.9097 41.5004 83.7181 41.5797 83.5184 41.58H79.3001ZM110.724 40.8267C110.724 41.0264 110.803 41.218 110.944 41.3591C111.086 41.5004 111.277 41.5797 111.477 41.58H115.695C115.722 41.58 115.748 41.5788 115.774 41.5756C115.8 41.5788 115.826 41.58 115.853 41.58H128.458C128.658 41.5797 128.849 41.5004 128.99 41.3591C129.131 41.218 129.211 41.0264 129.211 40.8267V37.3738C129.211 37.1741 129.131 36.9825 128.99 36.8414C128.849 36.7001 128.658 36.6208 128.458 36.6206H116.448V30.8228H127.182C127.598 30.8228 127.934 30.4861 127.934 30.0696V26.799C127.934 26.3832 127.598 26.0463 127.182 26.0463H116.448V20.7586H128.275C128.475 20.7584 128.667 20.6791 128.808 20.5378C128.949 20.3967 129.029 20.2051 129.029 20.0054V16.5896C129.028 16.3899 128.949 16.1985 128.808 16.0575C128.666 15.9164 128.475 15.837 128.275 15.8369H115.853C115.826 15.8369 115.8 15.8381 115.774 15.8411C115.748 15.8383 115.722 15.8369 115.695 15.8369H111.477C111.277 15.837 111.086 15.9164 110.944 16.0577C110.803 16.1989 110.724 16.3903 110.724 16.5901V40.8267Z" fill="#CCDEFF"/>
<path d="M99.6216 41.9812C97.7013 41.9812 95.9146 41.6529 94.2616 40.9964C92.6585 40.3326 91.1977 39.3671 89.9587 38.1524C88.7456 36.9402 87.7798 35.5035 87.1149 33.9226C86.434 32.294 86.0937 30.5437 86.0937 28.6714C86.0937 26.7995 86.434 25.0615 87.1149 23.4572C87.7952 21.828 88.7436 20.4189 89.9587 19.2272C91.1746 18.0358 92.5965 17.1124 94.2252 16.4563C95.8782 15.7754 97.6647 15.4351 99.5852 15.4351C101.627 15.4351 103.439 15.7633 105.019 16.4199C106.375 16.9743 107.583 17.7026 108.644 18.6048C108.965 18.8778 108.97 19.3629 108.674 19.6619L105.934 22.4268C105.633 22.7307 105.143 22.7197 104.818 22.4419C104.243 21.9556 103.598 21.56 102.904 21.2693C101.956 20.8559 100.85 20.6492 99.5852 20.6492C98.4672 20.6492 97.4343 20.8438 96.486 21.2329C95.562 21.5976 94.7601 22.1325 94.0792 22.8378C93.4233 23.5424 92.9005 24.3935 92.5114 25.3898C92.1466 26.3868 91.9644 27.4804 91.9644 28.6714C91.9644 29.8872 92.1466 30.993 92.5114 31.9901C92.9005 32.9864 93.4233 33.8374 94.0792 34.5421C94.7609 35.248 95.5801 35.8066 96.486 36.1834C97.4343 36.5719 98.4672 36.7664 99.5852 36.7664C100.898 36.7664 102.041 36.5598 103.013 36.147C103.721 35.8493 104.38 35.4478 104.97 34.9554C105.292 34.6843 105.773 34.6771 106.07 34.9748L108.84 37.7434C109.142 38.046 109.133 38.5415 108.803 38.8134C107.695 39.722 106.456 40.458 105.128 40.9964C103.548 41.6529 101.712 41.9812 99.6216 41.9812ZM79.3001 41.58C79.1003 41.5797 78.9089 41.5004 78.7677 41.3591C78.6264 41.218 78.547 41.0264 78.5469 40.8267V16.589C78.5472 16.3892 78.6267 16.198 78.7678 16.0569C78.9091 15.9158 79.1005 15.8364 79.3001 15.8363H83.5184C83.7181 15.8364 83.9097 15.9158 84.0508 16.057C84.1921 16.1983 84.2714 16.3897 84.2717 16.5896V40.8267C84.2714 41.0264 84.1921 41.218 84.0508 41.3591C83.9097 41.5004 83.7181 41.5797 83.5184 41.58H79.3001ZM110.724 40.8267C110.724 41.0264 110.803 41.218 110.944 41.3591C111.086 41.5004 111.277 41.5797 111.477 41.58H115.695C115.722 41.58 115.748 41.5788 115.774 41.5756C115.8 41.5788 115.826 41.58 115.853 41.58H128.458C128.658 41.5797 128.849 41.5004 128.99 41.3591C129.131 41.218 129.211 41.0264 129.211 40.8267V37.3738C129.211 37.1741 129.131 36.9825 128.99 36.8414C128.849 36.7001 128.658 36.6208 128.458 36.6206H116.448V30.8228H127.182C127.598 30.8228 127.934 30.4861 127.934 30.0696V26.799C127.934 26.3832 127.598 26.0463 127.182 26.0463H116.448V20.7586H128.275C128.475 20.7584 128.667 20.6791 128.808 20.5378C128.949 20.3967 129.029 20.2051 129.029 20.0054V16.5896C129.028 16.3899 128.949 16.1985 128.808 16.0575C128.666 15.9164 128.475 15.837 128.275 15.8369H115.853C115.826 15.8369 115.8 15.8381 115.774 15.8411C115.748 15.8383 115.722 15.8369 115.695 15.8369H111.477C111.277 15.837 111.086 15.9164 110.944 16.0577C110.803 16.1989 110.724 16.3903 110.724 16.5901V40.8267Z" fill="#CCDEFF" fill-opacity="0.6"/>
<path d="M99.6216 41.9812C97.7013 41.9812 95.9146 41.6529 94.2616 40.9964C92.6585 40.3326 91.1977 39.3671 89.9587 38.1524C88.7456 36.9402 87.7798 35.5035 87.1149 33.9226C86.434 32.294 86.0937 30.5437 86.0937 28.6714C86.0937 26.7995 86.434 25.0615 87.1149 23.4572C87.7952 21.828 88.7436 20.4189 89.9587 19.2272C91.1746 18.0358 92.5965 17.1124 94.2252 16.4563C95.8782 15.7754 97.6647 15.4351 99.5852 15.4351C101.627 15.4351 103.439 15.7633 105.019 16.4199C106.375 16.9743 107.583 17.7026 108.644 18.6048C108.965 18.8778 108.97 19.3629 108.674 19.6619L105.934 22.4268C105.633 22.7307 105.143 22.7197 104.818 22.4419C104.243 21.9556 103.598 21.56 102.904 21.2693C101.956 20.8559 100.85 20.6492 99.5852 20.6492C98.4672 20.6492 97.4343 20.8438 96.486 21.2329C95.562 21.5976 94.7601 22.1325 94.0792 22.8378C93.4233 23.5424 92.9005 24.3935 92.5114 25.3898C92.1466 26.3868 91.9644 27.4804 91.9644 28.6714C91.9644 29.8872 92.1466 30.993 92.5114 31.9901C92.9005 32.9864 93.4233 33.8374 94.0792 34.5421C94.7609 35.248 95.5801 35.8066 96.486 36.1834C97.4343 36.5719 98.4672 36.7664 99.5852 36.7664C100.898 36.7664 102.041 36.5598 103.013 36.147C103.721 35.8493 104.38 35.4478 104.97 34.9554C105.292 34.6843 105.773 34.6771 106.07 34.9748L108.84 37.7434C109.142 38.046 109.133 38.5415 108.803 38.8134C107.695 39.722 106.456 40.458 105.128 40.9964C103.548 41.6529 101.712 41.9812 99.6216 41.9812ZM79.3001 41.58C79.1003 41.5797 78.9089 41.5004 78.7677 41.3591C78.6264 41.218 78.547 41.0264 78.5469 40.8267V16.589C78.5472 16.3892 78.6267 16.198 78.7678 16.0569C78.9091 15.9158 79.1005 15.8364 79.3001 15.8363H83.5184C83.7181 15.8364 83.9097 15.9158 84.0508 16.057C84.1921 16.1983 84.2714 16.3897 84.2717 16.5896V40.8267C84.2714 41.0264 84.1921 41.218 84.0508 41.3591C83.9097 41.5004 83.7181 41.5797 83.5184 41.58H79.3001ZM110.724 40.8267C110.724 41.0264 110.803 41.218 110.944 41.3591C111.086 41.5004 111.277 41.5797 111.477 41.58H115.695C115.722 41.58 115.748 41.5788 115.774 41.5756C115.8 41.5788 115.826 41.58 115.853 41.58H128.458C128.658 41.5797 128.849 41.5004 128.99 41.3591C129.131 41.218 129.211 41.0264 129.211 40.8267V37.3738C129.211 37.1741 129.131 36.9825 128.99 36.8414C128.849 36.7001 128.658 36.6208 128.458 36.6206H116.448V30.8228H127.182C127.598 30.8228 127.934 30.4861 127.934 30.0696V26.799C127.934 26.3832 127.598 26.0463 127.182 26.0463H116.448V20.7586H128.275C128.475 20.7584 128.667 20.6791 128.808 20.5378C128.949 20.3967 129.029 20.2051 129.029 20.0054V16.5896C129.028 16.3899 128.949 16.1985 128.808 16.0575C128.666 15.9164 128.475 15.837 128.275 15.8369H115.853C115.826 15.8369 115.8 15.8381 115.774 15.8411C115.748 15.8383 115.722 15.8369 115.695 15.8369H111.477C111.277 15.837 111.086 15.9164 110.944 16.0577C110.803 16.1989 110.724 16.3903 110.724 16.5901V40.8267Z" fill="#CCDEFF"/>
<path d="M99.6216 41.9812C97.7013 41.9812 95.9146 41.6529 94.2616 40.9964C92.6585 40.3326 91.1977 39.3671 89.9587 38.1524C88.7456 36.9402 87.7798 35.5035 87.1149 33.9226C86.434 32.294 86.0937 30.5437 86.0937 28.6714C86.0937 26.7995 86.434 25.0615 87.1149 23.4572C87.7952 21.828 88.7436 20.4189 89.9587 19.2272C91.1746 18.0358 92.5965 17.1124 94.2252 16.4563C95.8782 15.7754 97.6647 15.4351 99.5852 15.4351C101.627 15.4351 103.439 15.7633 105.019 16.4199C106.375 16.9743 107.583 17.7026 108.644 18.6048C108.965 18.8778 108.97 19.3629 108.674 19.6619L105.934 22.4268C105.633 22.7307 105.143 22.7197 104.818 22.4419C104.243 21.9556 103.598 21.56 102.904 21.2693C101.956 20.8559 100.85 20.6492 99.5852 20.6492C98.4672 20.6492 97.4343 20.8438 96.486 21.2329C95.562 21.5976 94.7601 22.1325 94.0792 22.8378C93.4233 23.5424 92.9005 24.3935 92.5114 25.3898C92.1466 26.3868 91.9644 27.4804 91.9644 28.6714C91.9644 29.8872 92.1466 30.993 92.5114 31.9901C92.9005 32.9864 93.4233 33.8374 94.0792 34.5421C94.7609 35.248 95.5801 35.8066 96.486 36.1834C97.4343 36.5719 98.4672 36.7664 99.5852 36.7664C100.898 36.7664 102.041 36.5598 103.013 36.147C103.721 35.8493 104.38 35.4478 104.97 34.9554C105.292 34.6843 105.773 34.6771 106.07 34.9748L108.84 37.7434C109.142 38.046 109.133 38.5415 108.803 38.8134C107.695 39.722 106.456 40.458 105.128 40.9964C103.548 41.6529 101.712 41.9812 99.6216 41.9812ZM79.3001 41.58C79.1003 41.5797 78.9089 41.5004 78.7677 41.3591C78.6264 41.218 78.547 41.0264 78.5469 40.8267V16.589C78.5472 16.3892 78.6267 16.198 78.7678 16.0569C78.9091 15.9158 79.1005 15.8364 79.3001 15.8363H83.5184C83.7181 15.8364 83.9097 15.9158 84.0508 16.057C84.1921 16.1983 84.2714 16.3897 84.2717 16.5896V40.8267C84.2714 41.0264 84.1921 41.218 84.0508 41.3591C83.9097 41.5004 83.7181 41.5797 83.5184 41.58H79.3001ZM110.724 40.8267C110.724 41.0264 110.803 41.218 110.944 41.3591C111.086 41.5004 111.277 41.5797 111.477 41.58H115.695C115.722 41.58 115.748 41.5788 115.774 41.5756C115.8 41.5788 115.826 41.58 115.853 41.58H128.458C128.658 41.5797 128.849 41.5004 128.99 41.3591C129.131 41.218 129.211 41.0264 129.211 40.8267V37.3738C129.211 37.1741 129.131 36.9825 128.99 36.8414C128.849 36.7001 128.658 36.6208 128.458 36.6206H116.448V30.8228H127.182C127.598 30.8228 127.934 30.4861 127.934 30.0696V26.799C127.934 26.3832 127.598 26.0463 127.182 26.0463H116.448V20.7586H128.275C128.475 20.7584 128.667 20.6791 128.808 20.5378C128.949 20.3967 129.029 20.2051 129.029 20.0054V16.5896C129.028 16.3899 128.949 16.1985 128.808 16.0575C128.666 15.9164 128.475 15.837 128.275 15.8369H115.853C115.826 15.8369 115.8 15.8381 115.774 15.8411C115.748 15.8383 115.722 15.8369 115.695 15.8369H111.477C111.277 15.837 111.086 15.9164 110.944 16.0577C110.803 16.1989 110.724 16.3903 110.724 16.5901V40.8267Z" fill="#CCDEFF" fill-opacity="0.6"/>
<path fill-rule="evenodd" clip-rule="evenodd" d="M136.462 41.58C136.424 41.58 136.385 41.5769 136.347 41.5716C136.309 41.5771 136.271 41.5799 136.233 41.58H132.087C131.887 41.58 131.696 41.5007 131.555 41.3594C131.413 41.2181 131.334 41.0266 131.334 40.8269V16.589C131.334 16.1738 131.671 15.8364 132.087 15.8364H136.233C136.271 15.8364 136.31 15.8394 136.347 15.8449C136.385 15.8391 136.424 15.8363 136.462 15.8364H142.382C144.035 15.8364 145.433 16.1403 146.576 16.7482C147.743 17.3562 148.63 18.1702 149.238 19.1908C149.845 20.2122 150.149 21.3429 150.149 22.5824C150.149 24.1625 149.639 25.4993 148.618 26.5929C148.178 27.0646 147.648 27.4725 147.027 27.8173C147.897 28.2441 148.634 28.7839 149.238 29.4375C150.429 30.7018 151.024 32.2575 151.024 34.1051C151.024 35.5148 150.672 36.7908 149.967 37.9337C149.286 39.0516 148.289 39.9392 146.977 40.5952C145.689 41.2518 144.132 41.58 142.309 41.58H136.462ZM136.986 37.1312H141.763C142.881 37.1312 143.756 36.8029 144.388 36.147C145.02 35.4904 145.336 34.6881 145.336 33.7402C145.336 33.0836 145.19 32.5006 144.899 31.9901C144.607 31.4794 144.193 31.0782 143.659 30.7864C143.148 30.4946 142.516 30.3487 141.763 30.3487H136.986V37.1312ZM141.289 26.0099H136.986V20.2851H141.289C142.236 20.2851 143.002 20.5282 143.586 21.0146C144.169 21.476 144.461 22.1812 144.461 23.129C144.461 24.1017 144.169 24.8311 143.586 25.3175C143.002 25.7789 142.236 26.0099 141.289 26.0099Z" fill="#CCDEFF"/>
<path fill-rule="evenodd" clip-rule="evenodd" d="M136.462 41.58C136.424 41.58 136.385 41.5769 136.347 41.5716C136.309 41.5771 136.271 41.5799 136.233 41.58H132.087C131.887 41.58 131.696 41.5007 131.555 41.3594C131.413 41.2181 131.334 41.0266 131.334 40.8269V16.589C131.334 16.1738 131.671 15.8364 132.087 15.8364H136.233C136.271 15.8364 136.31 15.8394 136.347 15.8449C136.385 15.8391 136.424 15.8363 136.462 15.8364H142.382C144.035 15.8364 145.433 16.1403 146.576 16.7482C147.743 17.3562 148.63 18.1702 149.238 19.1908C149.845 20.2122 150.149 21.3429 150.149 22.5824C150.149 24.1625 149.639 25.4993 148.618 26.5929C148.178 27.0646 147.648 27.4725 147.027 27.8173C147.897 28.2441 148.634 28.7839 149.238 29.4375C150.429 30.7018 151.024 32.2575 151.024 34.1051C151.024 35.5148 150.672 36.7908 149.967 37.9337C149.286 39.0516 148.289 39.9392 146.977 40.5952C145.689 41.2518 144.132 41.58 142.309 41.58H136.462ZM136.986 37.1312H141.763C142.881 37.1312 143.756 36.8029 144.388 36.147C145.02 35.4904 145.336 34.6881 145.336 33.7402C145.336 33.0836 145.19 32.5006 144.899 31.9901C144.607 31.4794 144.193 31.0782 143.659 30.7864C143.148 30.4946 142.516 30.3487 141.763 30.3487H136.986V37.1312ZM141.289 26.0099H136.986V20.2851H141.289C142.236 20.2851 143.002 20.5282 143.586 21.0146C144.169 21.476 144.461 22.1812 144.461 23.129C144.461 24.1017 144.169 24.8311 143.586 25.3175C143.002 25.7789 142.236 26.0099 141.289 26.0099Z" fill="#CCDEFF" fill-opacity="0.6"/>
<path fill-rule="evenodd" clip-rule="evenodd" d="M136.462 41.58C136.424 41.58 136.385 41.5769 136.347 41.5716C136.309 41.5771 136.271 41.5799 136.233 41.58H132.087C131.887 41.58 131.696 41.5007 131.555 41.3594C131.413 41.2181 131.334 41.0266 131.334 40.8269V16.589C131.334 16.1738 131.671 15.8364 132.087 15.8364H136.233C136.271 15.8364 136.31 15.8394 136.347 15.8449C136.385 15.8391 136.424 15.8363 136.462 15.8364H142.382C144.035 15.8364 145.433 16.1403 146.576 16.7482C147.743 17.3562 148.63 18.1702 149.238 19.1908C149.845 20.2122 150.149 21.3429 150.149 22.5824C150.149 24.1625 149.639 25.4993 148.618 26.5929C148.178 27.0646 147.648 27.4725 147.027 27.8173C147.897 28.2441 148.634 28.7839 149.238 29.4375C150.429 30.7018 151.024 32.2575 151.024 34.1051C151.024 35.5148 150.672 36.7908 149.967 37.9337C149.286 39.0516 148.289 39.9392 146.977 40.5952C145.689 41.2518 144.132 41.58 142.309 41.58H136.462ZM136.986 37.1312H141.763C142.881 37.1312 143.756 36.8029 144.388 36.147C145.02 35.4904 145.336 34.6881 145.336 33.7402C145.336 33.0836 145.19 32.5006 144.899 31.9901C144.607 31.4794 144.193 31.0782 143.659 30.7864C143.148 30.4946 142.516 30.3487 141.763 30.3487H136.986V37.1312ZM141.289 26.0099H136.986V20.2851H141.289C142.236 20.2851 143.002 20.5282 143.586 21.0146C144.169 21.476 144.461 22.1812 144.461 23.129C144.461 24.1017 144.169 24.8311 143.586 25.3175C143.002 25.7789 142.236 26.0099 141.289 26.0099Z" fill="#CCDEFF"/>
<path fill-rule="evenodd" clip-rule="evenodd" d="M136.462 41.58C136.424 41.58 136.385 41.5769 136.347 41.5716C136.309 41.5771 136.271 41.5799 136.233 41.58H132.087C131.887 41.58 131.696 41.5007 131.555 41.3594C131.413 41.2181 131.334 41.0266 131.334 40.8269V16.589C131.334 16.1738 131.671 15.8364 132.087 15.8364H136.233C136.271 15.8364 136.31 15.8394 136.347 15.8449C136.385 15.8391 136.424 15.8363 136.462 15.8364H142.382C144.035 15.8364 145.433 16.1403 146.576 16.7482C147.743 17.3562 148.63 18.1702 149.238 19.1908C149.845 20.2122 150.149 21.3429 150.149 22.5824C150.149 24.1625 149.639 25.4993 148.618 26.5929C148.178 27.0646 147.648 27.4725 147.027 27.8173C147.897 28.2441 148.634 28.7839 149.238 29.4375C150.429 30.7018 151.024 32.2575 151.024 34.1051C151.024 35.5148 150.672 36.7908 149.967 37.9337C149.286 39.0516 148.289 39.9392 146.977 40.5952C145.689 41.2518 144.132 41.58 142.309 41.58H136.462ZM136.986 37.1312H141.763C142.881 37.1312 143.756 36.8029 144.388 36.147C145.02 35.4904 145.336 34.6881 145.336 33.7402C145.336 33.0836 145.19 32.5006 144.899 31.9901C144.607 31.4794 144.193 31.0782 143.659 30.7864C143.148 30.4946 142.516 30.3487 141.763 30.3487H136.986V37.1312ZM141.289 26.0099H136.986V20.2851H141.289C142.236 20.2851 143.002 20.5282 143.586 21.0146C144.169 21.476 144.461 22.1812 144.461 23.129C144.461 24.1017 144.169 24.8311 143.586 25.3175C143.002 25.7789 142.236 26.0099 141.289 26.0099Z" fill="#CCDEFF" fill-opacity="0.6"/>
<path d="M152.87 40.8267C152.87 41.0264 152.95 41.2178 153.091 41.3591C153.232 41.5004 153.424 41.5797 153.624 41.5799H157.842C157.869 41.5799 157.895 41.5786 157.92 41.5757C157.946 41.5786 157.972 41.5799 157.999 41.5799H170.605C171.021 41.5799 171.358 41.2425 171.358 40.8267V37.3737C171.358 36.9579 171.021 36.6205 170.605 36.6205H158.596V30.8227H169.329C169.529 30.8225 169.72 30.7432 169.86 30.6019C170.002 30.4608 170.082 30.2692 170.082 30.0695V26.7989C170.082 26.5993 170.002 26.4079 169.86 26.267C169.719 26.1258 169.529 26.0465 169.329 26.0463H158.596V20.7586H170.423C170.839 20.7586 171.175 20.4219 171.175 20.0054V16.5895C171.175 16.1743 170.839 15.8369 170.423 15.8369H157.999C157.972 15.8369 157.946 15.8382 157.92 15.8412C157.895 15.8383 157.869 15.8369 157.842 15.8369H153.624C153.424 15.8371 153.232 15.9164 153.091 16.0577C152.95 16.199 152.87 16.3904 152.87 16.5901V40.8267Z" fill="#CCDEFF"/>
<path d="M152.87 40.8267C152.87 41.0264 152.95 41.2178 153.091 41.3591C153.232 41.5004 153.424 41.5797 153.624 41.5799H157.842C157.869 41.5799 157.895 41.5786 157.92 41.5757C157.946 41.5786 157.972 41.5799 157.999 41.5799H170.605C171.021 41.5799 171.358 41.2425 171.358 40.8267V37.3737C171.358 36.9579 171.021 36.6205 170.605 36.6205H158.596V30.8227H169.329C169.529 30.8225 169.72 30.7432 169.86 30.6019C170.002 30.4608 170.082 30.2692 170.082 30.0695V26.7989C170.082 26.5993 170.002 26.4079 169.86 26.267C169.719 26.1258 169.529 26.0465 169.329 26.0463H158.596V20.7586H170.423C170.839 20.7586 171.175 20.4219 171.175 20.0054V16.5895C171.175 16.1743 170.839 15.8369 170.423 15.8369H157.999C157.972 15.8369 157.946 15.8382 157.92 15.8412C157.895 15.8383 157.869 15.8369 157.842 15.8369H153.624C153.424 15.8371 153.232 15.9164 153.091 16.0577C152.95 16.199 152.87 16.3904 152.87 16.5901V40.8267Z" fill="#CCDEFF" fill-opacity="0.6"/>
<path d="M152.87 40.8267C152.87 41.0264 152.95 41.2178 153.091 41.3591C153.232 41.5004 153.424 41.5797 153.624 41.5799H157.842C157.869 41.5799 157.895 41.5786 157.92 41.5757C157.946 41.5786 157.972 41.5799 157.999 41.5799H170.605C171.021 41.5799 171.358 41.2425 171.358 40.8267V37.3737C171.358 36.9579 171.021 36.6205 170.605 36.6205H158.596V30.8227H169.329C169.529 30.8225 169.72 30.7432 169.86 30.6019C170.002 30.4608 170.082 30.2692 170.082 30.0695V26.7989C170.082 26.5993 170.002 26.4079 169.86 26.267C169.719 26.1258 169.529 26.0465 169.329 26.0463H158.596V20.7586H170.423C170.839 20.7586 171.175 20.4219 171.175 20.0054V16.5895C171.175 16.1743 170.839 15.8369 170.423 15.8369H157.999C157.972 15.8369 157.946 15.8382 157.92 15.8412C157.895 15.8383 157.869 15.8369 157.842 15.8369H153.624C153.424 15.8371 153.232 15.9164 153.091 16.0577C152.95 16.199 152.87 16.3904 152.87 16.5901V40.8267Z" fill="#CCDEFF"/>
<path d="M152.87 40.8267C152.87 41.0264 152.95 41.2178 153.091 41.3591C153.232 41.5004 153.424 41.5797 153.624 41.5799H157.842C157.869 41.5799 157.895 41.5786 157.92 41.5757C157.946 41.5786 157.972 41.5799 157.999 41.5799H170.605C171.021 41.5799 171.358 41.2425 171.358 40.8267V37.3737C171.358 36.9579 171.021 36.6205 170.605 36.6205H158.596V30.8227H169.329C169.529 30.8225 169.72 30.7432 169.86 30.6019C170.002 30.4608 170.082 30.2692 170.082 30.0695V26.7989C170.082 26.5993 170.002 26.4079 169.86 26.267C169.719 26.1258 169.529 26.0465 169.329 26.0463H158.596V20.7586H170.423C170.839 20.7586 171.175 20.4219 171.175 20.0054V16.5895C171.175 16.1743 170.839 15.8369 170.423 15.8369H157.999C157.972 15.8369 157.946 15.8382 157.92 15.8412C157.895 15.8383 157.869 15.8369 157.842 15.8369H153.624C153.424 15.8371 153.232 15.9164 153.091 16.0577C152.95 16.199 152.87 16.3904 152.87 16.5901V40.8267Z" fill="#CCDEFF" fill-opacity="0.6"/>
<path fill-rule="evenodd" clip-rule="evenodd" d="M179.206 40.8268V30.9687H179.959C179.964 31.1097 180.009 31.252 180.102 31.3784L187.258 41.268C187.4 41.4638 187.627 41.5799 187.869 41.5799H192.744C193.366 41.5799 193.721 40.8651 193.343 40.3696L186.02 30.7833C186.895 30.6277 187.7 30.3735 188.432 30.021C189.746 29.3886 190.766 28.5134 191.495 27.3953C192.225 26.2524 192.59 24.9278 192.59 23.4207C192.59 21.9374 192.225 20.6249 191.495 19.4827C190.766 18.3398 189.757 17.4527 188.47 16.8205C187.18 16.164 185.685 15.8357 183.983 15.8357H178.611C178.584 15.8357 178.559 15.8376 178.532 15.8399C178.507 15.8374 178.48 15.8362 178.453 15.8363H174.236C174.036 15.8365 173.844 15.9158 173.703 16.0571C173.562 16.1984 173.481 16.3898 173.481 16.5895V40.8268C173.481 41.0265 173.562 41.2179 173.703 41.3591C173.844 41.5004 174.036 41.5798 174.236 41.5799H178.453C178.87 41.5799 179.206 41.2426 179.206 40.8268ZM183.29 26.7387H179.206V20.2857H183.326C184.47 20.2857 185.344 20.5896 185.952 21.1976C186.56 21.8049 186.864 22.5708 186.864 23.4944C186.864 24.4913 186.548 25.2816 185.916 25.8646C185.308 26.4482 184.434 26.7387 183.29 26.7387Z" fill="#CCDEFF"/>
<path fill-rule="evenodd" clip-rule="evenodd" d="M179.206 40.8268V30.9687H179.959C179.964 31.1097 180.009 31.252 180.102 31.3784L187.258 41.268C187.4 41.4638 187.627 41.5799 187.869 41.5799H192.744C193.366 41.5799 193.721 40.8651 193.343 40.3696L186.02 30.7833C186.895 30.6277 187.7 30.3735 188.432 30.021C189.746 29.3886 190.766 28.5134 191.495 27.3953C192.225 26.2524 192.59 24.9278 192.59 23.4207C192.59 21.9374 192.225 20.6249 191.495 19.4827C190.766 18.3398 189.757 17.4527 188.47 16.8205C187.18 16.164 185.685 15.8357 183.983 15.8357H178.611C178.584 15.8357 178.559 15.8376 178.532 15.8399C178.507 15.8374 178.48 15.8362 178.453 15.8363H174.236C174.036 15.8365 173.844 15.9158 173.703 16.0571C173.562 16.1984 173.481 16.3898 173.481 16.5895V40.8268C173.481 41.0265 173.562 41.2179 173.703 41.3591C173.844 41.5004 174.036 41.5798 174.236 41.5799H178.453C178.87 41.5799 179.206 41.2426 179.206 40.8268ZM183.29 26.7387H179.206V20.2857H183.326C184.47 20.2857 185.344 20.5896 185.952 21.1976C186.56 21.8049 186.864 22.5708 186.864 23.4944C186.864 24.4913 186.548 25.2816 185.916 25.8646C185.308 26.4482 184.434 26.7387 183.29 26.7387Z" fill="#CCDEFF" fill-opacity="0.6"/>
<path fill-rule="evenodd" clip-rule="evenodd" d="M179.206 40.8268V30.9687H179.959C179.964 31.1097 180.009 31.252 180.102 31.3784L187.258 41.268C187.4 41.4638 187.627 41.5799 187.869 41.5799H192.744C193.366 41.5799 193.721 40.8651 193.343 40.3696L186.02 30.7833C186.895 30.6277 187.7 30.3735 188.432 30.021C189.746 29.3886 190.766 28.5134 191.495 27.3953C192.225 26.2524 192.59 24.9278 192.59 23.4207C192.59 21.9374 192.225 20.6249 191.495 19.4827C190.766 18.3398 189.757 17.4527 188.47 16.8205C187.18 16.164 185.685 15.8357 183.983 15.8357H178.611C178.584 15.8357 178.559 15.8376 178.532 15.8399C178.507 15.8374 178.48 15.8362 178.453 15.8363H174.236C174.036 15.8365 173.844 15.9158 173.703 16.0571C173.562 16.1984 173.481 16.3898 173.481 16.5895V40.8268C173.481 41.0265 173.562 41.2179 173.703 41.3591C173.844 41.5004 174.036 41.5798 174.236 41.5799H178.453C178.87 41.5799 179.206 41.2426 179.206 40.8268ZM183.29 26.7387H179.206V20.2857H183.326C184.47 20.2857 185.344 20.5896 185.952 21.1976C186.56 21.8049 186.864 22.5708 186.864 23.4944C186.864 24.4913 186.548 25.2816 185.916 25.8646C185.308 26.4482 184.434 26.7387 183.29 26.7387Z" fill="#CCDEFF"/>
<path fill-rule="evenodd" clip-rule="evenodd" d="M179.206 40.8268V30.9687H179.959C179.964 31.1097 180.009 31.252 180.102 31.3784L187.258 41.268C187.4 41.4638 187.627 41.5799 187.869 41.5799H192.744C193.366 41.5799 193.721 40.8651 193.343 40.3696L186.02 30.7833C186.895 30.6277 187.7 30.3735 188.432 30.021C189.746 29.3886 190.766 28.5134 191.495 27.3953C192.225 26.2524 192.59 24.9278 192.59 23.4207C192.59 21.9374 192.225 20.6249 191.495 19.4827C190.766 18.3398 189.757 17.4527 188.47 16.8205C187.18 16.164 185.685 15.8357 183.983 15.8357H178.611C178.584 15.8357 178.559 15.8376 178.532 15.8399C178.507 15.8374 178.48 15.8362 178.453 15.8363H174.236C174.036 15.8365 173.844 15.9158 173.703 16.0571C173.562 16.1984 173.481 16.3898 173.481 16.5895V40.8268C173.481 41.0265 173.562 41.2179 173.703 41.3591C173.844 41.5004 174.036 41.5798 174.236 41.5799H178.453C178.87 41.5799 179.206 41.2426 179.206 40.8268ZM183.29 26.7387H179.206V20.2857H183.326C184.47 20.2857 185.344 20.5896 185.952 21.1976C186.56 21.8049 186.864 22.5708 186.864 23.4944C186.864 24.4913 186.548 25.2816 185.916 25.8646C185.308 26.4482 184.434 26.7387 183.29 26.7387Z" fill="#CCDEFF" fill-opacity="0.6"/>
<path d="M201.696 41.0035C203.349 41.6844 205.111 42.0247 206.982 42.0247C209.536 42.0247 211.785 41.4898 213.728 40.4205C215.697 39.3505 217.23 37.7706 218.323 35.6799C219.441 33.5649 220 30.9636 220 27.8767V27.7915C220 27.3751 219.664 27.0377 219.247 27.0377H207.226C207.025 27.0379 206.833 27.1174 206.693 27.2586C206.552 27.4001 206.472 27.5916 206.472 27.7915V31.146C206.472 31.3436 206.55 31.5332 206.688 31.6742C206.827 31.815 207.015 31.8959 207.213 31.8992L213.868 32.005C213.727 32.5405 213.534 33.0366 213.292 33.492C212.732 34.5619 211.917 35.3881 210.848 35.9717C209.801 36.531 208.525 36.8099 207.018 36.8099C205.537 36.8099 204.223 36.4702 203.08 35.7893C201.938 35.1084 201.039 34.1607 200.382 32.9449C199.727 31.7297 199.399 30.3198 199.399 28.7149C199.399 27.1106 199.727 25.713 200.382 24.5222C201.063 23.3062 201.999 22.3701 203.19 21.7135C204.382 21.0333 205.731 20.6934 207.238 20.6934C208.648 20.6934 209.911 20.9608 211.03 21.4959C211.909 21.9153 212.696 22.4996 213.394 23.2491C213.703 23.5817 214.231 23.6175 214.552 23.2966L217.358 20.4897C217.635 20.2131 217.657 19.7681 217.387 19.4849C216.276 18.3177 214.923 17.3839 213.328 16.6823C211.528 15.8799 209.523 15.4787 207.311 15.4787C205.39 15.4787 203.591 15.8191 201.914 16.5C200.236 17.1566 198.765 18.0922 197.502 19.3074C196.262 20.4987 195.27 21.924 194.585 23.5007C193.88 25.1058 193.528 26.8432 193.528 28.7149C193.528 30.5874 193.867 32.3375 194.548 33.9661C195.236 35.544 196.212 36.9789 197.43 38.1961C198.644 39.3869 200.066 40.3232 201.696 41.0035ZM3.22503 6.71002C3.74658e-07 10.8111 0 16.8137 0 28.8202C0 40.8259 3.74658e-07 46.8286 3.22503 50.9302C3.96525 51.8715 4.81505 52.721 5.75641 53.461C6.11545 53.7435 6.49189 54.0031 6.88349 54.2385L22.7599 19.187C23.0928 18.4527 23.6907 17.8711 24.434 17.5588C25.1774 17.2466 26.0112 17.2266 26.7687 17.5031L36.8577 21.1859C37.3277 21.3573 37.7509 21.6369 38.0932 22.0017C38.4356 22.3666 38.6873 22.8068 38.8286 23.2869L48.0683 54.6659C48.7435 54.3304 49.3825 53.9267 49.9754 53.461C50.9168 52.721 51.7666 51.8715 52.5068 50.9302C55.7318 46.8286 55.7318 40.8259 55.7318 28.8202C55.7318 16.8137 55.7318 10.8111 52.5068 6.71002C51.7665 5.76886 50.9168 4.91928 49.9754 4.17925C45.8744 0.953612 39.8711 0.953613 27.8654 0.953613C15.8601 0.953613 9.85683 0.953612 5.75518 4.17925C4.81409 4.91934 3.96512 5.76892 3.22503 6.71002Z" fill="#CCDEFF"/>
<path d="M201.696 41.0035C203.349 41.6844 205.111 42.0247 206.982 42.0247C209.536 42.0247 211.785 41.4898 213.728 40.4205C215.697 39.3505 217.23 37.7706 218.323 35.6799C219.441 33.5649 220 30.9636 220 27.8767V27.7915C220 27.3751 219.664 27.0377 219.247 27.0377H207.226C207.025 27.0379 206.833 27.1174 206.693 27.2586C206.552 27.4001 206.472 27.5916 206.472 27.7915V31.146C206.472 31.3436 206.55 31.5332 206.688 31.6742C206.827 31.815 207.015 31.8959 207.213 31.8992L213.868 32.005C213.727 32.5405 213.534 33.0366 213.292 33.492C212.732 34.5619 211.917 35.3881 210.848 35.9717C209.801 36.531 208.525 36.8099 207.018 36.8099C205.537 36.8099 204.223 36.4702 203.08 35.7893C201.938 35.1084 201.039 34.1607 200.382 32.9449C199.727 31.7297 199.399 30.3198 199.399 28.7149C199.399 27.1106 199.727 25.713 200.382 24.5222C201.063 23.3062 201.999 22.3701 203.19 21.7135C204.382 21.0333 205.731 20.6934 207.238 20.6934C208.648 20.6934 209.911 20.9608 211.03 21.4959C211.909 21.9153 212.696 22.4996 213.394 23.2491C213.703 23.5817 214.231 23.6175 214.552 23.2966L217.358 20.4897C217.635 20.2131 217.657 19.7681 217.387 19.4849C216.276 18.3177 214.923 17.3839 213.328 16.6823C211.528 15.8799 209.523 15.4787 207.311 15.4787C205.39 15.4787 203.591 15.8191 201.914 16.5C200.236 17.1566 198.765 18.0922 197.502 19.3074C196.262 20.4987 195.27 21.924 194.585 23.5007C193.88 25.1058 193.528 26.8432 193.528 28.7149C193.528 30.5874 193.867 32.3375 194.548 33.9661C195.236 35.544 196.212 36.9789 197.43 38.1961C198.644 39.3869 200.066 40.3232 201.696 41.0035ZM3.22503 6.71002C3.74658e-07 10.8111 0 16.8137 0 28.8202C0 40.8259 3.74658e-07 46.8286 3.22503 50.9302C3.96525 51.8715 4.81505 52.721 5.75641 53.461C6.11545 53.7435 6.49189 54.0031 6.88349 54.2385L22.7599 19.187C23.0928 18.4527 23.6907 17.8711 24.434 17.5588C25.1774 17.2466 26.0112 17.2266 26.7687 17.5031L36.8577 21.1859C37.3277 21.3573 37.7509 21.6369 38.0932 22.0017C38.4356 22.3666 38.6873 22.8068 38.8286 23.2869L48.0683 54.6659C48.7435 54.3304 49.3825 53.9267 49.9754 53.461C50.9168 52.721 51.7666 51.8715 52.5068 50.9302C55.7318 46.8286 55.7318 40.8259 55.7318 28.8202C55.7318 16.8137 55.7318 10.8111 52.5068 6.71002C51.7665 5.76886 50.9168 4.91928 49.9754 4.17925C45.8744 0.953612 39.8711 0.953613 27.8654 0.953613C15.8601 0.953613 9.85683 0.953612 5.75518 4.17925C4.81409 4.91934 3.96512 5.76892 3.22503 6.71002Z" fill="#CCDEFF" fill-opacity="0.6"/>
<path d="M201.696 41.0035C203.349 41.6844 205.111 42.0247 206.982 42.0247C209.536 42.0247 211.785 41.4898 213.728 40.4205C215.697 39.3505 217.23 37.7706 218.323 35.6799C219.441 33.5649 220 30.9636 220 27.8767V27.7915C220 27.3751 219.664 27.0377 219.247 27.0377H207.226C207.025 27.0379 206.833 27.1174 206.693 27.2586C206.552 27.4001 206.472 27.5916 206.472 27.7915V31.146C206.472 31.3436 206.55 31.5332 206.688 31.6742C206.827 31.815 207.015 31.8959 207.213 31.8992L213.868 32.005C213.727 32.5405 213.534 33.0366 213.292 33.492C212.732 34.5619 211.917 35.3881 210.848 35.9717C209.801 36.531 208.525 36.8099 207.018 36.8099C205.537 36.8099 204.223 36.4702 203.08 35.7893C201.938 35.1084 201.039 34.1607 200.382 32.9449C199.727 31.7297 199.399 30.3198 199.399 28.7149C199.399 27.1106 199.727 25.713 200.382 24.5222C201.063 23.3062 201.999 22.3701 203.19 21.7135C204.382 21.0333 205.731 20.6934 207.238 20.6934C208.648 20.6934 209.911 20.9608 211.03 21.4959C211.909 21.9153 212.696 22.4996 213.394 23.2491C213.703 23.5817 214.231 23.6175 214.552 23.2966L217.358 20.4897C217.635 20.2131 217.657 19.7681 217.387 19.4849C216.276 18.3177 214.923 17.3839 213.328 16.6823C211.528 15.8799 209.523 15.4787 207.311 15.4787C205.39 15.4787 203.591 15.8191 201.914 16.5C200.236 17.1566 198.765 18.0922 197.502 19.3074C196.262 20.4987 195.27 21.924 194.585 23.5007C193.88 25.1058 193.528 26.8432 193.528 28.7149C193.528 30.5874 193.867 32.3375 194.548 33.9661C195.236 35.544 196.212 36.9789 197.43 38.1961C198.644 39.3869 200.066 40.3232 201.696 41.0035ZM3.22503 6.71002C3.74658e-07 10.8111 0 16.8137 0 28.8202C0 40.8259 3.74658e-07 46.8286 3.22503 50.9302C3.96525 51.8715 4.81505 52.721 5.75641 53.461C6.11545 53.7435 6.49189 54.0031 6.88349 54.2385L22.7599 19.187C23.0928 18.4527 23.6907 17.8711 24.434 17.5588C25.1774 17.2466 26.0112 17.2266 26.7687 17.5031L36.8577 21.1859C37.3277 21.3573 37.7509 21.6369 38.0932 22.0017C38.4356 22.3666 38.6873 22.8068 38.8286 23.2869L48.0683 54.6659C48.7435 54.3304 49.3825 53.9267 49.9754 53.461C50.9168 52.721 51.7666 51.8715 52.5068 50.9302C55.7318 46.8286 55.7318 40.8259 55.7318 28.8202C55.7318 16.8137 55.7318 10.8111 52.5068 6.71002C51.7665 5.76886 50.9168 4.91928 49.9754 4.17925C45.8744 0.953612 39.8711 0.953613 27.8654 0.953613C15.8601 0.953613 9.85683 0.953612 5.75518 4.17925C4.81409 4.91934 3.96512 5.76892 3.22503 6.71002Z" fill="#CCDEFF"/>
<path d="M201.696 41.0035C203.349 41.6844 205.111 42.0247 206.982 42.0247C209.536 42.0247 211.785 41.4898 213.728 40.4205C215.697 39.3505 217.23 37.7706 218.323 35.6799C219.441 33.5649 220 30.9636 220 27.8767V27.7915C220 27.3751 219.664 27.0377 219.247 27.0377H207.226C207.025 27.0379 206.833 27.1174 206.693 27.2586C206.552 27.4001 206.472 27.5916 206.472 27.7915V31.146C206.472 31.3436 206.55 31.5332 206.688 31.6742C206.827 31.815 207.015 31.8959 207.213 31.8992L213.868 32.005C213.727 32.5405 213.534 33.0366 213.292 33.492C212.732 34.5619 211.917 35.3881 210.848 35.9717C209.801 36.531 208.525 36.8099 207.018 36.8099C205.537 36.8099 204.223 36.4702 203.08 35.7893C201.938 35.1084 201.039 34.1607 200.382 32.9449C199.727 31.7297 199.399 30.3198 199.399 28.7149C199.399 27.1106 199.727 25.713 200.382 24.5222C201.063 23.3062 201.999 22.3701 203.19 21.7135C204.382 21.0333 205.731 20.6934 207.238 20.6934C208.648 20.6934 209.911 20.9608 211.03 21.4959C211.909 21.9153 212.696 22.4996 213.394 23.2491C213.703 23.5817 214.231 23.6175 214.552 23.2966L217.358 20.4897C217.635 20.2131 217.657 19.7681 217.387 19.4849C216.276 18.3177 214.923 17.3839 213.328 16.6823C211.528 15.8799 209.523 15.4787 207.311 15.4787C205.39 15.4787 203.591 15.8191 201.914 16.5C200.236 17.1566 198.765 18.0922 197.502 19.3074C196.262 20.4987 195.27 21.924 194.585 23.5007C193.88 25.1058 193.528 26.8432 193.528 28.7149C193.528 30.5874 193.867 32.3375 194.548 33.9661C195.236 35.544 196.212 36.9789 197.43 38.1961C198.644 39.3869 200.066 40.3232 201.696 41.0035ZM3.22503 6.71002C3.74658e-07 10.8111 0 16.8137 0 28.8202C0 40.8259 3.74658e-07 46.8286 3.22503 50.9302C3.96525 51.8715 4.81505 52.721 5.75641 53.461C6.11545 53.7435 6.49189 54.0031 6.88349 54.2385L22.7599 19.187C23.0928 18.4527 23.6907 17.8711 24.434 17.5588C25.1774 17.2466 26.0112 17.2266 26.7687 17.5031L36.8577 21.1859C37.3277 21.3573 37.7509 21.6369 38.0932 22.0017C38.4356 22.3666 38.6873 22.8068 38.8286 23.2869L48.0683 54.6659C48.7435 54.3304 49.3825 53.9267 49.9754 53.461C50.9168 52.721 51.7666 51.8715 52.5068 50.9302C55.7318 46.8286 55.7318 40.8259 55.7318 28.8202C55.7318 16.8137 55.7318 10.8111 52.5068 6.71002C51.7665 5.76886 50.9168 4.91928 49.9754 4.17925C45.8744 0.953612 39.8711 0.953613 27.8654 0.953613C15.8601 0.953613 9.85683 0.953612 5.75518 4.17925C4.81409 4.91934 3.96512 5.76892 3.22503 6.71002Z" fill="#CCDEFF" fill-opacity="0.6"/>
<path d="M3.22503 6.71002C3.74658e-07 10.8111 0 16.8137 0 28.8202C0 40.8259 3.74658e-07 46.8286 3.22503 50.9302C3.96525 51.8715 4.81505 52.721 5.75641 53.461C6.11545 53.7435 6.49189 54.0031 6.88349 54.2385L22.7599 19.187C23.0928 18.4527 23.6907 17.8711 24.434 17.5588C25.1774 17.2466 26.0112 17.2266 26.7687 17.5031L36.8577 21.1859C37.3277 21.3573 37.7509 21.6369 38.0932 22.0017C38.4356 22.3666 38.6873 22.8068 38.8286 23.2869L48.0683 54.6659C48.7435 54.3304 49.3825 53.9267 49.9754 53.461C50.9168 52.721 51.7666 51.8715 52.5068 50.9302C55.7318 46.8286 55.7318 40.8259 55.7318 28.8202C55.7318 16.8137 55.7318 10.8111 52.5068 6.71002C51.7665 5.76886 50.9168 4.91928 49.9754 4.17925C45.8744 0.953612 39.8711 0.953613 27.8654 0.953613C15.8601 0.953613 9.85683 0.953612 5.75518 4.17925C4.81409 4.91934 3.96512 5.76892 3.22503 6.71002Z" fill="#CCDEFF"/>
<path d="M3.22503 6.71002C3.74658e-07 10.8111 0 16.8137 0 28.8202C0 40.8259 3.74658e-07 46.8286 3.22503 50.9302C3.96525 51.8715 4.81505 52.721 5.75641 53.461C6.11545 53.7435 6.49189 54.0031 6.88349 54.2385L22.7599 19.187C23.0928 18.4527 23.6907 17.8711 24.434 17.5588C25.1774 17.2466 26.0112 17.2266 26.7687 17.5031L36.8577 21.1859C37.3277 21.3573 37.7509 21.6369 38.0932 22.0017C38.4356 22.3666 38.6873 22.8068 38.8286 23.2869L48.0683 54.6659C48.7435 54.3304 49.3825 53.9267 49.9754 53.461C50.9168 52.721 51.7666 51.8715 52.5068 50.9302C55.7318 46.8286 55.7318 40.8259 55.7318 28.8202C55.7318 16.8137 55.7318 10.8111 52.5068 6.71002C51.7665 5.76886 50.9168 4.91928 49.9754 4.17925C45.8744 0.953612 39.8711 0.953613 27.8654 0.953613C15.8601 0.953613 9.85683 0.953612 5.75518 4.17925C4.81409 4.91934 3.96512 5.76892 3.22503 6.71002Z" fill="#CCDEFF" fill-opacity="0.6"/>
</g>
</svg>
