<?xml version="1.0" encoding="UTF-8"?> <svg xmlns="http://www.w3.org/2000/svg" viewBox="0 0 100 100" fill-rule="evenodd"> <g stroke-width="0.5" stroke="white"> <path fill="white" d="M92.345 44.125 50.53 8.39a1.5 1.5 0 0 0-1.959.008L7.646 44.005a1.5 1.5 0 1 0 1.969 2.263l8.818-7.672v47.872a1.5 1.5 0 0 0 1.5 1.5h58.605a1.5 1.5 0 0 0 1.5-1.5V37.554l10.357 8.851a1.498 1.498 0 1 0 1.95-2.28zM77.038 84.969H21.433V35.986L49.564 11.51l27.474 23.48v49.979z"></path> <path fill="white" d="M33.45 41.326v28.78a1.5 1.5 0 0 0 1.5 1.5h28.778a1.5 1.5 0 0 0 1.5-1.5v-28.78a1.5 1.5 0 0 0-1.5-1.5H34.95a1.5 1.5 0 0 0-1.5 1.5zm17.499 27.28V57.217h11.279v11.389H50.949zm11.28-14.389h-11.28V42.826h11.279v11.391zM36.45 42.826h11.499v12.335a1.489 1.489 0 0 0 0 1.112v12.332H36.45V42.826z"></path> </g> </svg> 