<?xml version="1.0" encoding="UTF-8"?> <svg xmlns="http://www.w3.org/2000/svg" viewBox="0 0 100 100" fill-rule="evenodd"> <g stroke-width="0.5" stroke="white"> <path fill="white" d="m94.27 72.82-27.44-54a1.49 1.49 0 0 0-.17-.25v-.06a1.5 1.5 0 0 0-.28-.23h-.07a1.48 1.48 0 0 0-.27-.12h-.09a1.49 1.49 0 0 0-.36-.05H36.12a1.5 1.5 0 0 0-1.34.82l-27.49 54A1.5 1.5 0 0 0 8.63 75h84.31a1.5 1.5 0 0 0 1.34-2.18ZM40.19 72 64 25.7V72ZM67 53l9.39 19H67ZM37 21h26L36.81 72H11.07Zm42.7 51L67 46.24V25.76L90.49 72Z"></path> </g> </svg> 