<?xml version="1.0" encoding="UTF-8"?> <svg xmlns="http://www.w3.org/2000/svg" viewBox="0 0 100 100" fill-rule="evenodd"> <g stroke-width="0.5" stroke="white"> <path fill="white" d="M9.174 27.279H19.1c.726 4.737 4.817 8.379 9.753 8.379s9.026-3.643 9.753-8.379h53.753a1.5 1.5 0 1 0 0-3H38.605c-.726-4.736-4.817-8.379-9.753-8.379s-9.026 3.643-9.753 8.379H9.174a1.5 1.5 0 1 0 0 3zM28.852 18.9a6.887 6.887 0 0 1 6.879 6.872l-.001.006.001.006c-.004 3.79-3.088 6.873-6.879 6.873a6.887 6.887 0 0 1-6.879-6.879c0-3.792 3.086-6.878 6.879-6.878zm27.487 32.607c.726 4.736 4.817 8.379 9.753 8.379s9.026-3.643 9.753-8.379h15.334a1.5 1.5 0 0 0 0-3H75.844c-.726-4.736-4.817-8.379-9.753-8.379s-9.026 3.643-9.753 8.379H7.995a1.5 1.5 0 1 0 0 3h48.344zm9.753-8.379c3.793 0 6.879 3.086 6.879 6.879s-3.086 6.879-6.879 6.879a6.887 6.887 0 0 1-6.879-6.872l.001-.006-.001-.008a6.887 6.887 0 0 1 6.879-6.872zm26.265 29.946H38.605c-.726-4.736-4.817-8.379-9.753-8.379s-9.026 3.643-9.753 8.379H9.174a1.5 1.5 0 1 0 0 3H19.1c.726 4.736 4.817 8.379 9.753 8.379s9.026-3.643 9.753-8.379h53.753a1.5 1.5 0 1 0-.002-3zm-63.505 8.379c-3.793 0-6.879-3.086-6.879-6.879s3.086-6.879 6.879-6.879 6.879 3.086 6.879 6.879-3.086 6.879-6.879 6.879z"></path> </g> </svg> 