<?xml version="1.0" encoding="UTF-8"?> <svg xmlns="http://www.w3.org/2000/svg" viewBox="0 0 100 100" fill-rule="evenodd"> <g stroke-width="0.5" stroke="white"> <path fill="white" d="M84.71 25.24c-.08-.14-8.55-13.48-26-7.2-1.33-5.36-6-13-17-13h-.41a1.5 1.5 0 0 0-1.3.85c0 .09-3.21 7.35 2.33 13.35a16.65 16.65 0 0 0-6.54 1.21c-4.1 1.71-7.19 5.12-9.21 10.16a1.5 1.5 0 0 0 .88 2c.4.15 8.21 2.93 15.82 1.53-5 7.12-7.29 15-7.45 25.37h-.14a51.41 51.41 0 0 0-24.48 6.2 1.5 1.5 0 1 0 1.39 2.59 48.38 48.38 0 0 1 60.66 12.15 1.5 1.5 0 0 0 2.33-1.89A51.18 51.18 0 0 0 49.24 61.3c0-2.86.4-14.21 3.85-23.24 1.71 4.24 5.38 9.3 13.19 12a1.5 1.5 0 0 0 1.8-.69c.07-.12 5.39-10-.92-18.66 5 1 12 1.08 17.26-3.55a1.5 1.5 0 0 0 .29-1.92ZM62.29 26a1.5 1.5 0 0 0-1.74 2.44c9.2 6.38 6.75 15.13 5.46 18.27-7.69-3.12-10.31-8.88-11.14-13.26a1.5 1.5 0 0 0-2.8-.43c-5 9.46-5.72 23.09-5.81 27.53a51.5 51.5 0 0 0-7.46-1c.2-11.55 3.13-19.79 9.79-27.4a1.5 1.5 0 0 0-1.8-2.33c-5.83 2.92-13.55 1.3-16.8.4a13.64 13.64 0 0 1 6.89-7c5.45-2.28 11.31.12 11.36.14a1.5 1.5 0 0 0 1.21-2.74C40.86 16.68 41.71 10.35 42.38 8 54.54 8.42 56 19.77 56.1 20.27a1.5 1.5 0 0 0 2.07 1.21c13.43-5.66 20.83 1.41 23.2 4.26-7.19 5-17.83 1.05-19.08.26Zm19.35 57.61-2.51 2.61a6.47 6.47 0 0 1-9.41 0 10 10 0 0 0-7.23-3.11 10 10 0 0 0-7.23 3.11 6.47 6.47 0 0 1-9.41 0 9.47 9.47 0 0 0-13.74 0 6.47 6.47 0 0 1-9.45 0s-1.54-1.5-2.58-2.57a1.5 1.5 0 0 0-2.16 2.08c1.05 1.09 2.61 2.61 2.61 2.61a9.47 9.47 0 0 0 13.74 0 6.47 6.47 0 0 1 9.41 0 9.47 9.47 0 0 0 13.74 0 7 7 0 0 1 10.14 0 9.47 9.47 0 0 0 13.74 0l2.51-2.61a1.5 1.5 0 0 0-2.16-2.08Z"></path> </g> </svg> 