<?xml version="1.0" encoding="UTF-8" standalone="yes"?>
<!-- Created with sK1/UniConvertor (http://sk1project.org/) -->
<svg xmlns="http://www.w3.org/2000/svg" xmlns:xlink="http://www.w3.org/1999/xlink"
  width="595.276pt" height="841.89pt" viewBox="0 0 595.276 841.89"
  fill-rule="evenodd">
<g>
<path style="stroke:#000000; stroke-width:0.850394; stroke-linejoin:round; stroke-linecap:round; fill:none" d="M 266.338 836.946C 266.338 836.946 266.369 825.794 266.385 820.217C 266.4 814.641 266.4 814.641 266.402 813.986C 266.404 813.332 266.408 812.022 266.341 810.81C 266.275 809.598 266.138 808.484 267.084 806.91C 268.03 805.337 270.059 803.305 271.073 802.289C 272.087 801.273 272.087 801.273 274.672 798.683C 277.257 796.094 282.427 790.915 285.012 788.326C 287.597 785.736 287.597 785.736 287.914 785.419C 288.232 785.101 288.866 784.466 289.83 783.749C 290.794 783.032 292.087 782.234 293.321 781.835C 294.554 781.437 295.727 781.438 296.313 781.438C 296.899 781.439 296.899 781.439 304.704 781.446C 312.509 781.453 328.119 781.467 335.924 781.474C 343.729 781.481 343.729 781.481 343.731 781.481C 343.733 781.481 343.737 781.481 343.597 781.828C 343.457 782.175 343.174 782.869 342.01 783.542C 340.846 784.214 338.801 784.866 337.779 785.191C 336.756 785.517 336.756 785.517 329.233 787.912C 321.711 790.308 306.665 795.1 299.142 797.495C 291.619 799.891 291.619 799.891 290.619 800.209C 289.619 800.528 287.618 801.165 286.027 802.134C 284.436 803.103 283.255 804.404 282.274 806.039C 281.294 807.673 280.514 809.641 280.125 810.625C 279.735 811.609 279.735 811.609 278.757 814.077C 277.78 816.545 275.825 821.482 274.847 823.95C 273.869 826.419 273.869 826.419 273.577 827.157C 273.284 827.896 272.699 829.374 271.786 831.325C 270.874 833.275 269.634 835.699 266.338 836.946"/>
<path style="stroke:#000000; stroke-width:0.850394; stroke-linejoin:round; stroke-linecap:round; fill:none" d="M 262.876 836.935C 262.876 836.935 262.844 825.782 262.829 820.206C 262.813 814.63 262.813 814.63 262.811 813.975C 262.81 813.32 262.806 812.011 262.872 810.799C 262.939 809.587 263.075 808.472 262.129 806.899C 261.183 805.326 259.155 803.294 258.141 802.278C 257.126 801.262 257.126 801.262 254.541 798.672C 251.956 796.083 246.786 790.904 244.201 788.315C 241.616 785.725 241.616 785.725 241.299 785.407C 240.982 785.09 240.348 784.455 239.384 783.738C 238.42 783.021 237.126 782.223 235.893 781.824C 234.659 781.426 233.487 781.427 232.9 781.427C 232.314 781.428 232.314 781.428 224.509 781.435C 216.704 781.442 201.094 781.456 193.289 781.463C 185.484 781.47 185.484 781.47 185.482 781.47C 185.48 781.47 185.476 781.47 185.616 781.817C 185.756 782.164 186.04 782.858 187.204 783.531C 188.368 784.203 190.412 784.854 191.435 785.18C 192.457 785.506 192.457 785.506 199.98 787.901C 207.503 790.297 222.549 795.088 230.071 797.484C 237.594 799.88 237.594 799.88 238.595 800.198C 239.595 800.517 241.595 801.154 243.186 802.123C 244.777 803.092 245.959 804.393 246.939 806.028C 247.92 807.662 248.699 809.63 249.089 810.614C 249.478 811.598 249.478 811.598 250.456 814.066C 251.434 816.534 253.389 821.471 254.366 823.939C 255.344 826.408 255.344 826.408 255.637 827.146C 255.929 827.885 256.514 829.363 257.427 831.313C 258.34 833.264 259.58 835.688 262.876 836.935"/>
<path style="stroke:#000000; stroke-width:0.850394; stroke-linejoin:round; stroke-linecap:round; fill:none" d="M 246.904 788.77C 246.904 788.77 246.701 788.77 246.6 788.77C 246.498 788.77 246.498 788.77 246.457 788.77C 246.417 788.77 246.335 788.77 246.215 788.691C 246.096 788.612 245.937 788.455 245.775 788.297C 245.613 788.139 245.448 787.98 245.365 787.901C 245.282 787.822 245.282 787.822 244.289 786.874C 243.295 785.926 241.309 784.03 240.316 783.081C 239.323 782.133 239.323 782.133 239.323 782.133C 239.323 782.133 239.323 782.133 239.734 782.133C 240.146 782.133 240.968 782.133 241.38 782.133C 241.791 782.133 241.791 782.133 241.791 782.133C 241.791 782.133 241.791 782.133 242.61 782.923C 243.428 783.713 245.065 785.293 245.883 786.083C 246.702 786.873 246.702 786.873 246.702 786.873C 246.702 786.873 246.702 786.873 247.039 786.083C 247.377 785.293 248.053 783.713 248.391 782.923C 248.729 782.133 248.729 782.133 248.729 782.133C 248.729 782.133 248.729 782.133 249.033 782.133C 249.337 782.133 249.945 782.133 250.249 782.133C 250.553 782.133 250.553 782.133 250.553 782.133C 250.553 782.133 250.553 782.133 250.147 783.081C 249.742 784.03 248.931 785.926 248.525 786.874C 248.12 787.822 248.12 787.822 248.075 787.927C 248.03 788.033 247.94 788.243 247.828 788.401C 247.715 788.559 247.58 788.664 247.422 788.717C 247.264 788.77 247.084 788.77 246.994 788.77C 246.904 788.77 246.904 788.77 246.904 788.77C 246.904 788.77 246.904 788.77 246.904 788.77"/>
<path style="stroke:#000000; stroke-width:0.850394; stroke-linejoin:round; stroke-linecap:round; fill:none" d="M 252.807 782.133C 251.185 782.133 250.78 782.529 250.577 782.99C 250.374 783.451 250.374 783.977 250.374 784.241C 250.374 784.504 250.374 784.504 250.374 784.82C 250.374 785.136 250.374 785.767 250.374 786.083C 250.374 786.399 250.374 786.399 250.374 786.662C 250.374 786.926 250.374 787.452 250.509 787.847C 250.645 788.242 250.915 788.506 251.32 788.638C 251.726 788.77 252.266 788.77 252.537 788.77C 252.807 788.77 252.807 788.77 253.212 788.77C 253.618 788.77 254.429 788.77 254.834 788.77C 255.24 788.77 255.24 788.77 255.51 788.77C 255.78 788.77 256.321 788.77 256.726 788.664C 257.132 788.559 257.402 788.348 257.537 788.032C 257.672 787.716 257.672 787.294 257.672 787.084C 257.672 786.873 257.672 786.873 257.672 786.478C 257.672 786.083 257.672 785.294 257.672 784.899C 257.672 784.504 257.672 784.504 257.672 784.241C 257.672 783.977 257.672 783.451 257.537 783.056C 257.402 782.661 257.132 782.397 256.726 782.265C 256.321 782.133 255.78 782.133 255.51 782.133C 255.24 782.133 255.24 782.133 254.834 782.133C 254.429 782.133 253.618 782.133 253.212 782.133C 252.807 782.133 252.807 782.133 252.807 782.133C 252.807 782.133 252.807 782.133 252.807 782.133C 252.807 782.133 252.807 782.133 252.807 782.133"/>
<path style="stroke:#000000; stroke-width:0.850394; stroke-linejoin:round; stroke-linecap:round; fill:none" d="M 255.241 783.55C 255.782 783.55 255.918 783.708 255.986 783.893C 256.053 784.078 256.053 784.289 256.053 784.395C 256.053 784.501 256.053 784.501 256.053 784.818C 256.053 785.135 256.053 785.768 256.053 786.085C 256.053 786.402 256.053 786.402 256.053 786.508C 256.053 786.614 256.053 786.825 256.008 786.983C 255.963 787.142 255.873 787.247 255.737 787.3C 255.602 787.353 255.421 787.353 255.331 787.353C 255.241 787.353 255.241 787.353 254.835 787.353C 254.429 787.353 253.617 787.353 253.211 787.353C 252.806 787.353 252.806 787.353 252.715 787.353C 252.625 787.353 252.445 787.353 252.309 787.3C 252.174 787.247 252.084 787.142 252.038 786.983C 251.993 786.825 251.993 786.614 251.993 786.508C 251.993 786.402 251.993 786.402 251.993 786.085C 251.993 785.768 251.993 785.135 251.993 784.818C 251.993 784.501 251.993 784.501 251.993 784.395C 251.993 784.289 251.993 784.078 252.038 783.92C 252.084 783.761 252.174 783.656 252.309 783.603C 252.445 783.55 252.625 783.55 252.715 783.55C 252.806 783.55 252.806 783.55 253.211 783.55C 253.617 783.55 254.429 783.55 254.835 783.55C 255.241 783.55 255.241 783.55 255.241 783.55C 255.241 783.55 255.241 783.55 255.241 783.55C 255.241 783.55 255.241 783.55 255.241 783.55"/>
<path style="stroke:#000000; stroke-width:0.72; fill:none" d="M 260.405 785.67L 257.162 782.133L 259.189 782.133L 261.215 784.345L 263.241 782.133L 265.268 782.133L 262.024 785.67L 262.024 788.77L 260.405 788.77L 260.405 785.67L 260.405 785.67"/>
<path style="stroke:#000000; stroke-width:0.850394; stroke-linejoin:round; stroke-linecap:round; fill:none" d="M 268.567 783.796C 268.567 783.637 268.55 783.598 268.531 783.578C 268.511 783.558 268.489 783.558 268.466 783.558C 268.443 783.558 268.421 783.558 268.387 783.584C 268.353 783.611 268.308 783.664 268.252 783.743C 268.195 783.822 268.128 783.927 268.094 783.979C 268.061 784.032 268.061 784.032 267.85 784.348C 267.64 784.663 267.22 785.295 267.01 785.611C 266.8 785.927 266.8 785.927 266.8 785.927C 266.8 785.927 266.8 785.927 267.094 785.927C 267.389 785.927 267.978 785.927 268.273 785.927C 268.567 785.927 268.567 785.927 268.567 785.927C 268.567 785.927 268.567 785.927 268.567 785.572C 268.567 785.216 268.567 784.506 268.567 784.151C 268.567 783.796 268.567 783.796 268.567 783.796C 268.567 783.796 268.567 783.796 268.567 783.796C 268.567 783.796 268.567 783.796 268.567 783.796"/>
<path style="stroke:#000000; stroke-width:0.850394; stroke-linejoin:round; stroke-linecap:round; fill:none" d="M 270.186 784.03C 270.186 782.766 269.916 782.45 269.601 782.291C 269.287 782.133 268.927 782.133 268.634 782.133C 268.342 782.133 268.117 782.133 267.914 782.173C 267.711 782.213 267.531 782.292 267.373 782.41C 267.216 782.529 267.08 782.687 267.013 782.766C 266.945 782.845 266.945 782.845 266.236 783.832C 265.526 784.82 264.108 786.795 263.398 787.782C 262.689 788.77 262.689 788.77 262.689 788.77C 262.689 788.77 262.689 788.77 263.027 788.77C 263.364 788.77 264.04 788.77 264.378 788.77C 264.716 788.77 264.716 788.77 264.716 788.77C 264.716 788.77 264.716 788.77 264.89 788.532C 265.063 788.294 265.411 787.819 265.584 787.581C 265.758 787.343 265.758 787.343 265.758 787.343C 265.758 787.343 265.758 787.343 266.226 787.343C 266.694 787.343 267.631 787.343 268.099 787.343C 268.567 787.343 268.567 787.343 268.567 787.343C 268.567 787.343 268.567 787.343 268.567 787.581C 268.567 787.819 268.567 788.294 268.567 788.532C 268.567 788.77 268.567 788.77 268.567 788.77C 268.567 788.77 268.567 788.77 268.837 788.77C 269.107 788.77 269.646 788.77 269.916 788.77C 270.186 788.77 270.186 788.77 270.186 788.77C 270.186 788.77 270.186 788.77 270.186 787.98C 270.186 787.19 270.186 785.61 270.186 784.82C 270.186 784.03 270.186 784.03 270.186 784.03C 270.186 784.03 270.186 784.03 270.186 784.03C 270.186 784.03 270.186 784.03 270.186 784.03"/>
<path style="stroke:#000000; stroke-width:0.850394; stroke-linejoin:round; stroke-linecap:round; fill:none" d="M 273.274 788.77C 271.652 788.77 271.247 788.374 271.044 787.913C 270.841 787.452 270.841 786.926 270.841 786.662C 270.841 786.399 270.841 786.399 270.841 786.083C 270.841 785.767 270.841 785.136 270.841 784.82C 270.841 784.504 270.841 784.504 270.841 784.241C 270.841 783.977 270.841 783.451 270.976 783.056C 271.111 782.661 271.382 782.397 271.787 782.265C 272.193 782.133 272.733 782.133 273.004 782.133C 273.274 782.133 273.274 782.133 274.017 782.133C 274.76 782.133 276.246 782.133 276.989 782.133C 277.732 782.133 277.732 782.133 277.732 782.133C 277.732 782.133 277.732 782.133 277.733 782.369C 277.734 782.606 277.735 783.078 277.736 783.314C 277.737 783.55 277.737 783.55 277.737 783.55C 277.737 783.55 277.737 783.55 276.992 783.55C 276.248 783.55 274.76 783.55 274.015 783.55C 273.271 783.55 273.271 783.55 273.181 783.55C 273.091 783.55 272.911 783.55 272.775 783.603C 272.64 783.656 272.55 783.761 272.505 783.92C 272.46 784.078 272.46 784.289 272.46 784.395C 272.46 784.501 272.46 784.501 272.46 784.818C 272.46 785.135 272.46 785.768 272.46 786.085C 272.46 786.402 272.46 786.402 272.46 786.508C 272.46 786.613 272.46 786.825 272.505 786.983C 272.551 787.142 272.641 787.247 272.776 787.3C 272.912 787.353 273.092 787.353 273.182 787.353C 273.272 787.353 273.272 787.353 273.746 787.353C 274.219 787.353 275.166 787.353 275.64 787.353C 276.113 787.353 276.113 787.353 276.113 787.353C 276.113 787.353 276.113 787.353 276.113 787.154C 276.113 786.955 276.113 786.557 276.113 786.359C 276.113 786.16 276.113 786.16 276.113 786.16C 276.113 786.16 276.113 786.16 275.809 786.16C 275.505 786.16 274.898 786.16 274.594 786.16C 274.29 786.16 274.29 786.16 274.29 786.16C 274.29 786.16 274.29 786.16 274.29 785.924C 274.29 785.688 274.29 785.215 274.29 784.979C 274.29 784.743 274.29 784.743 274.29 784.743C 274.29 784.743 274.29 784.743 274.863 784.743C 275.437 784.743 276.585 784.743 277.159 784.743C 277.732 784.743 277.732 784.743 277.732 784.743C 277.732 784.743 277.732 784.743 277.732 785.414C 277.732 786.085 277.732 787.427 277.732 788.099C 277.732 788.77 277.732 788.77 277.732 788.77C 277.732 788.77 277.732 788.77 276.989 788.77C 276.246 788.77 274.76 788.77 274.017 788.77C 273.274 788.77 273.274 788.77 273.274 788.77C 273.274 788.77 273.274 788.77 273.274 788.77C 273.274 788.77 273.274 788.77 273.274 788.77"/>
<path style="stroke:#000000; stroke-width:0.850394; stroke-linejoin:round; stroke-linecap:round; fill:none" d="M 280.118 786.16C 280.118 786.16 280.118 786.279 280.118 786.339C 280.118 786.399 280.118 786.399 280.118 786.505C 280.118 786.611 280.118 786.822 280.163 786.981C 280.208 787.14 280.298 787.247 280.433 787.3C 280.568 787.353 280.748 787.353 280.838 787.353C 280.929 787.353 280.929 787.353 281.523 787.353C 282.116 787.353 283.304 787.353 283.898 787.353C 284.492 787.353 284.492 787.353 284.492 787.353C 284.492 787.353 284.492 787.353 284.246 787.589C 283.999 787.825 283.507 788.297 283.261 788.533C 283.014 788.77 283.014 788.77 283.014 788.77C 283.014 788.77 283.014 788.77 282.667 788.77C 282.319 788.77 281.624 788.77 281.276 788.77C 280.929 788.77 280.929 788.77 280.929 788.77C 280.929 788.77 280.929 788.77 280.894 788.77C 280.859 788.77 280.79 788.771 280.755 788.771C 280.72 788.771 280.72 788.771 280.472 788.774C 280.223 788.776 279.726 788.78 279.356 788.637C 278.986 788.494 278.742 788.204 278.62 787.807C 278.499 787.409 278.499 786.904 278.499 786.652C 278.499 786.399 278.499 786.399 278.499 786.083C 278.499 785.767 278.499 785.136 278.499 784.82C 278.499 784.504 278.499 784.504 278.499 784.241C 278.499 783.977 278.499 783.451 278.634 783.055C 278.768 782.659 279.038 782.395 279.443 782.263C 279.848 782.131 280.388 782.132 280.659 782.133C 280.929 782.133 280.929 782.133 282.423 782.136C 283.918 782.139 286.908 782.144 288.402 782.147C 289.897 782.149 289.897 782.149 289.897 782.149C 289.897 782.149 289.897 782.149 289.651 782.378C 289.404 782.607 288.911 783.064 288.665 783.293C 288.418 783.521 288.418 783.521 288.418 783.521C 288.418 783.521 288.418 783.521 287.17 783.526C 285.922 783.531 283.425 783.54 282.177 783.545C 280.929 783.55 280.929 783.55 280.839 783.55C 280.748 783.551 280.568 783.552 280.433 783.605C 280.298 783.658 280.208 783.764 280.163 783.922C 280.118 784.081 280.118 784.292 280.118 784.398C 280.118 784.504 280.118 784.504 280.118 784.544C 280.118 784.584 280.118 784.663 280.118 784.703C 280.118 784.743 280.118 784.743 280.118 784.743C 280.118 784.743 280.118 784.743 281.3 784.741C 282.482 784.738 284.846 784.733 286.028 784.731C 287.21 784.728 287.21 784.728 287.21 784.728C 287.21 784.728 287.21 784.728 286.96 784.96C 286.711 785.191 286.212 785.655 285.962 785.886C 285.712 786.118 285.712 786.118 285.712 786.118C 285.712 786.118 285.712 786.118 284.314 786.128C 282.915 786.139 280.118 786.16 280.118 786.16"/>
<path style="stroke:#000000; stroke-width:0.850394; stroke-linejoin:round; stroke-linecap:round; fill:none" d="M 530.147 841.21C 530.147 841.21 446.609 841.21 404.84 841.21C 363.071 841.21 363.071 841.21 362.54 841.21C 362.009 841.21 360.947 841.21 359.986 840.779C 359.024 840.349 358.163 839.488 357.733 838.527C 357.303 837.565 357.303 836.503 357.303 835.972C 357.303 835.441 357.303 835.441 357.303 833.331C 357.303 831.221 357.303 827.001 357.303 824.891C 357.303 822.78 357.303 822.78 357.303 822.25C 357.303 821.719 357.303 820.657 357.733 819.695C 358.163 818.734 359.024 817.873 359.986 817.443C 360.947 817.012 362.009 817.012 362.54 817.012C 363.071 817.012 363.071 817.012 390.917 817.012C 418.763 817.012 474.455 817.012 502.301 817.012C 530.147 817.012 530.147 817.012 530.677 817.012C 531.208 817.012 532.27 817.012 533.232 817.443C 534.193 817.873 535.054 818.734 535.484 819.695C 535.915 820.657 535.915 821.719 535.915 822.25C 535.915 822.78 535.915 822.78 535.915 824.891C 535.915 827.001 535.915 831.221 535.915 833.331C 535.915 835.441 535.915 835.441 535.915 835.972C 535.915 836.503 535.915 837.565 535.269 838.742C 534.624 839.918 533.332 841.21 530.147 841.21"/>
<path style="stroke:#000000; stroke-width:0.850394; stroke-linejoin:round; stroke-linecap:round; fill:none" d="M 266.338 836.946C 266.338 836.946 266.369 825.794 266.385 820.217C 266.4 814.641 266.4 814.641 266.402 813.986C 266.404 813.332 266.408 812.022 266.341 810.81C 266.275 809.598 266.138 808.484 267.084 806.91C 268.03 805.337 270.059 803.305 271.073 802.289C 272.087 801.273 272.087 801.273 274.672 798.683C 277.257 796.094 282.427 790.915 285.012 788.326C 287.597 785.736 287.597 785.736 287.914 785.419C 288.232 785.101 288.866 784.466 289.83 783.749C 290.794 783.032 292.087 782.234 293.321 781.835C 294.554 781.437 295.727 781.438 296.313 781.438C 296.899 781.439 296.899 781.439 304.704 781.446C 312.509 781.453 328.119 781.467 335.924 781.474C 343.729 781.481 343.729 781.481 343.731 781.481C 343.733 781.481 343.737 781.481 343.597 781.828C 343.457 782.175 343.174 782.869 342.01 783.542C 340.846 784.214 338.801 784.866 337.779 785.191C 336.756 785.517 336.756 785.517 329.233 787.912C 321.711 790.308 306.665 795.1 299.142 797.495C 291.619 799.891 291.619 799.891 290.619 800.209C 289.619 800.528 287.618 801.165 286.027 802.134C 284.436 803.103 283.255 804.404 282.274 806.039C 281.294 807.673 280.514 809.641 280.125 810.625C 279.735 811.609 279.735 811.609 278.757 814.077C 277.78 816.545 275.825 821.482 274.847 823.95C 273.869 826.419 273.869 826.419 273.577 827.157C 273.284 827.896 272.699 829.374 271.786 831.325C 270.874 833.275 269.634 835.699 266.338 836.946"/>
</g>
</svg>