<svg width="220" height="57" viewBox="0 0 220 57" fill="none" xmlns="http://www.w3.org/2000/svg">
<g clip-path="url(#clip0_1_19982)">
<mask id="mask0_1_19982" style="mask-type:luminance" maskUnits="userSpaceOnUse" x="0" y="0" width="220" height="57">
<path d="M220 0H0V56.5714H220V0Z" fill="white"/>
</mask>
<g mask="url(#mask0_1_19982)">
<path fill-rule="evenodd" clip-rule="evenodd" d="M54.9733 26.475C56.0507 31.6135 55.5519 36.3929 53.8111 40.3783L53.9033 40.3766C52.4114 44.4612 47.4471 53.0067 35.7601 55.457C35.3196 55.5495 34.8753 55.6239 34.4287 55.6797C33.3137 55.8437 32.1566 55.9286 30.9631 55.9286C17.1218 55.9286 3.51346 44.5352 0.566629 30.4804C-0.83646 23.7861 0.432243 17.6954 3.64158 13.1519C5.13293 10.282 12.9541 3.32234 19.2663 1.96994C19.4372 1.93349 19.6012 1.90445 19.7595 1.88338C21.4278 1.47737 23.2069 1.2627 25.0803 1.2627C38.6703 1.2627 52.0544 12.5506 54.9733 26.475ZM50.2156 25.2962C52.5071 36.2284 45.7121 45.0893 35.038 45.0893C24.3645 45.0893 13.8538 36.2284 11.5619 25.2969C9.27045 14.3654 16.0661 5.50386 26.7396 5.50386C37.413 5.50386 47.9237 14.3648 50.2156 25.2962ZM34.3871 38.9633C42.2875 38.9633 47.3498 32.5606 45.6938 24.662C44.0385 16.7639 36.2914 10.3611 28.391 10.3611C20.4906 10.3611 15.4283 16.7639 17.0836 24.662C18.7396 32.5606 26.4867 38.9633 34.3871 38.9633ZM41.4247 24.0691C42.4635 29.0245 39.2016 33.0406 34.1388 33.0406C29.0766 33.0406 24.1304 29.0245 23.0918 24.0691C22.0531 19.115 25.3149 15.0977 30.3778 15.0977C35.44 15.0977 40.3862 19.1146 41.4247 24.0691ZM36.7827 24.0691C37.2952 26.5149 35.6854 28.4971 33.1867 28.4971C30.6881 28.4971 28.2475 26.5149 27.7345 24.0697C27.2219 21.624 28.8316 19.6418 31.3304 19.6418C33.8291 19.6418 36.2703 21.6235 36.7827 24.0691Z" fill="#CCDEFF"/>
<path fill-rule="evenodd" clip-rule="evenodd" d="M54.9733 26.475C56.0507 31.6135 55.5519 36.3929 53.8111 40.3783L53.9033 40.3766C52.4114 44.4612 47.4471 53.0067 35.7601 55.457C35.3196 55.5495 34.8753 55.6239 34.4287 55.6797C33.3137 55.8437 32.1566 55.9286 30.9631 55.9286C17.1218 55.9286 3.51346 44.5352 0.566629 30.4804C-0.83646 23.7861 0.432243 17.6954 3.64158 13.1519C5.13293 10.282 12.9541 3.32234 19.2663 1.96994C19.4372 1.93349 19.6012 1.90445 19.7595 1.88338C21.4278 1.47737 23.2069 1.2627 25.0803 1.2627C38.6703 1.2627 52.0544 12.5506 54.9733 26.475ZM50.2156 25.2962C52.5071 36.2284 45.7121 45.0893 35.038 45.0893C24.3645 45.0893 13.8538 36.2284 11.5619 25.2969C9.27045 14.3654 16.0661 5.50386 26.7396 5.50386C37.413 5.50386 47.9237 14.3648 50.2156 25.2962ZM34.3871 38.9633C42.2875 38.9633 47.3498 32.5606 45.6938 24.662C44.0385 16.7639 36.2914 10.3611 28.391 10.3611C20.4906 10.3611 15.4283 16.7639 17.0836 24.662C18.7396 32.5606 26.4867 38.9633 34.3871 38.9633ZM41.4247 24.0691C42.4635 29.0245 39.2016 33.0406 34.1388 33.0406C29.0766 33.0406 24.1304 29.0245 23.0918 24.0691C22.0531 19.115 25.3149 15.0977 30.3778 15.0977C35.44 15.0977 40.3862 19.1146 41.4247 24.0691ZM36.7827 24.0691C37.2952 26.5149 35.6854 28.4971 33.1867 28.4971C30.6881 28.4971 28.2475 26.5149 27.7345 24.0697C27.2219 21.624 28.8316 19.6418 31.3304 19.6418C33.8291 19.6418 36.2703 21.6235 36.7827 24.0691Z" fill="#CCDEFF" fill-opacity="0.6"/>
<path d="M91.5946 41.1229C91.5946 41.2739 91.6545 41.4188 91.7614 41.5257C91.8682 41.6324 92.013 41.6924 92.164 41.6924H96.4929C96.644 41.6924 96.7887 41.6324 96.8955 41.5257C97.0024 41.4188 97.0623 41.2739 97.0623 41.1229V20.3329H92.164C92.013 20.3329 91.8682 20.3929 91.7614 20.4996C91.6545 20.6065 91.5946 20.7512 91.5946 20.9024V41.1229ZM91.7711 16.9504C92.2955 17.5011 93.095 17.7762 94.1702 17.7762C95.2452 17.7762 96.0322 17.5011 96.5305 16.9504C97.0286 16.3736 97.2776 15.6652 97.2776 14.8265C97.2776 13.9347 97.0286 13.2138 96.5305 12.6626C96.0322 12.112 95.2452 11.8369 94.1702 11.8369C93.095 11.8369 92.2955 12.112 91.7711 12.6626C91.2728 13.2138 91.0234 13.9347 91.0234 14.8265C91.0234 15.6652 91.2728 16.3736 91.7711 16.9504Z" fill="#CCDEFF"/>
<path d="M91.5946 41.1229C91.5946 41.2739 91.6545 41.4188 91.7614 41.5257C91.8682 41.6324 92.013 41.6924 92.164 41.6924H96.4929C96.644 41.6924 96.7887 41.6324 96.8955 41.5257C97.0024 41.4188 97.0623 41.2739 97.0623 41.1229V20.3329H92.164C92.013 20.3329 91.8682 20.3929 91.7614 20.4996C91.6545 20.6065 91.5946 20.7512 91.5946 20.9024V41.1229ZM91.7711 16.9504C92.2955 17.5011 93.095 17.7762 94.1702 17.7762C95.2452 17.7762 96.0322 17.5011 96.5305 16.9504C97.0286 16.3736 97.2776 15.6652 97.2776 14.8265C97.2776 13.9347 97.0286 13.2138 96.5305 12.6626C96.0322 12.112 95.2452 11.8369 94.1702 11.8369C93.095 11.8369 92.2955 12.112 91.7711 12.6626C91.2728 13.2138 91.0234 13.9347 91.0234 14.8265C91.0234 15.6652 91.2728 16.3736 91.7711 16.9504Z" fill="#CCDEFF" fill-opacity="0.6"/>
<path d="M91.5946 41.1229C91.5946 41.2739 91.6545 41.4188 91.7614 41.5257C91.8682 41.6324 92.013 41.6924 92.164 41.6924H96.4929C96.644 41.6924 96.7887 41.6324 96.8955 41.5257C97.0024 41.4188 97.0623 41.2739 97.0623 41.1229V20.3329H92.164C92.013 20.3329 91.8682 20.3929 91.7614 20.4996C91.6545 20.6065 91.5946 20.7512 91.5946 20.9024V41.1229ZM91.7711 16.9504C92.2955 17.5011 93.095 17.7762 94.1702 17.7762C95.2452 17.7762 96.0322 17.5011 96.5305 16.9504C97.0286 16.3736 97.2776 15.6652 97.2776 14.8265C97.2776 13.9347 97.0286 13.2138 96.5305 12.6626C96.0322 12.112 95.2452 11.8369 94.1702 11.8369C93.095 11.8369 92.2955 12.112 91.7711 12.6626C91.2728 13.2138 91.0234 13.9347 91.0234 14.8265C91.0234 15.6652 91.2728 16.3736 91.7711 16.9504Z" fill="#CCDEFF"/>
<path d="M91.5946 41.1229C91.5946 41.2739 91.6545 41.4188 91.7614 41.5257C91.8682 41.6324 92.013 41.6924 92.164 41.6924H96.4929C96.644 41.6924 96.7887 41.6324 96.8955 41.5257C97.0024 41.4188 97.0623 41.2739 97.0623 41.1229V20.3329H92.164C92.013 20.3329 91.8682 20.3929 91.7614 20.4996C91.6545 20.6065 91.5946 20.7512 91.5946 20.9024V41.1229ZM91.7711 16.9504C92.2955 17.5011 93.095 17.7762 94.1702 17.7762C95.2452 17.7762 96.0322 17.5011 96.5305 16.9504C97.0286 16.3736 97.2776 15.6652 97.2776 14.8265C97.2776 13.9347 97.0286 13.2138 96.5305 12.6626C96.0322 12.112 95.2452 11.8369 94.1702 11.8369C93.095 11.8369 92.2955 12.112 91.7711 12.6626C91.2728 13.2138 91.0234 13.9347 91.0234 14.8265C91.0234 15.6652 91.2728 16.3736 91.7711 16.9504Z" fill="#CCDEFF" fill-opacity="0.6"/>
<path fill-rule="evenodd" clip-rule="evenodd" d="M82.9767 31.7013C81.298 32.4883 79.2526 32.8813 76.8405 32.8813H72.5134V41.1233C72.5134 41.2743 72.4533 41.4192 72.3466 41.5259C72.2398 41.6327 72.0949 41.6927 71.9439 41.6927H67.4972C67.3462 41.6927 67.2013 41.6327 67.0946 41.5259C66.9878 41.4192 66.9277 41.2743 66.9277 41.1233V13.3507C66.9277 13.1997 66.9878 13.0548 67.0946 12.948C67.2013 12.8412 67.3462 12.7812 67.4972 12.7812H71.9439C72.0055 12.7812 72.0646 12.7909 72.1199 12.8086C72.1757 12.7909 72.2349 12.7812 72.2964 12.7812H76.8405C79.2526 12.7812 81.298 13.1742 82.9767 13.9611C84.6811 14.7481 85.9794 15.8756 86.8706 17.3436C87.7622 18.7865 88.2082 20.5039 88.2082 22.497V23.1262C88.2082 25.1192 87.7622 26.8503 86.8706 28.3183C85.9794 29.7607 84.6811 30.8882 82.9767 31.7013ZM80.1444 18.2884C79.3841 17.8424 78.44 17.6192 77.3125 17.6192H72.5134V28.0433H77.3125C78.44 28.0433 79.3841 27.82 80.1444 27.3742C80.9314 26.9289 81.5213 26.3122 81.9148 25.5259C82.3345 24.7389 82.544 23.8346 82.544 22.8114C82.544 21.7886 82.3345 20.8844 81.9148 20.0974C81.5213 19.311 80.9314 18.7079 80.1444 18.2884Z" fill="#CCDEFF"/>
<path fill-rule="evenodd" clip-rule="evenodd" d="M82.9767 31.7013C81.298 32.4883 79.2526 32.8813 76.8405 32.8813H72.5134V41.1233C72.5134 41.2743 72.4533 41.4192 72.3466 41.5259C72.2398 41.6327 72.0949 41.6927 71.9439 41.6927H67.4972C67.3462 41.6927 67.2013 41.6327 67.0946 41.5259C66.9878 41.4192 66.9277 41.2743 66.9277 41.1233V13.3507C66.9277 13.1997 66.9878 13.0548 67.0946 12.948C67.2013 12.8412 67.3462 12.7812 67.4972 12.7812H71.9439C72.0055 12.7812 72.0646 12.7909 72.1199 12.8086C72.1757 12.7909 72.2349 12.7812 72.2964 12.7812H76.8405C79.2526 12.7812 81.298 13.1742 82.9767 13.9611C84.6811 14.7481 85.9794 15.8756 86.8706 17.3436C87.7622 18.7865 88.2082 20.5039 88.2082 22.497V23.1262C88.2082 25.1192 87.7622 26.8503 86.8706 28.3183C85.9794 29.7607 84.6811 30.8882 82.9767 31.7013ZM80.1444 18.2884C79.3841 17.8424 78.44 17.6192 77.3125 17.6192H72.5134V28.0433H77.3125C78.44 28.0433 79.3841 27.82 80.1444 27.3742C80.9314 26.9289 81.5213 26.3122 81.9148 25.5259C82.3345 24.7389 82.544 23.8346 82.544 22.8114C82.544 21.7886 82.3345 20.8844 81.9148 20.0974C81.5213 19.311 80.9314 18.7079 80.1444 18.2884Z" fill="#CCDEFF" fill-opacity="0.6"/>
<path fill-rule="evenodd" clip-rule="evenodd" d="M82.9767 31.7013C81.298 32.4883 79.2526 32.8813 76.8405 32.8813H72.5134V41.1233C72.5134 41.2743 72.4533 41.4192 72.3466 41.5259C72.2398 41.6327 72.0949 41.6927 71.9439 41.6927H67.4972C67.3462 41.6927 67.2013 41.6327 67.0946 41.5259C66.9878 41.4192 66.9277 41.2743 66.9277 41.1233V13.3507C66.9277 13.1997 66.9878 13.0548 67.0946 12.948C67.2013 12.8412 67.3462 12.7812 67.4972 12.7812H71.9439C72.0055 12.7812 72.0646 12.7909 72.1199 12.8086C72.1757 12.7909 72.2349 12.7812 72.2964 12.7812H76.8405C79.2526 12.7812 81.298 13.1742 82.9767 13.9611C84.6811 14.7481 85.9794 15.8756 86.8706 17.3436C87.7622 18.7865 88.2082 20.5039 88.2082 22.497V23.1262C88.2082 25.1192 87.7622 26.8503 86.8706 28.3183C85.9794 29.7607 84.6811 30.8882 82.9767 31.7013ZM80.1444 18.2884C79.3841 17.8424 78.44 17.6192 77.3125 17.6192H72.5134V28.0433H77.3125C78.44 28.0433 79.3841 27.82 80.1444 27.3742C80.9314 26.9289 81.5213 26.3122 81.9148 25.5259C82.3345 24.7389 82.544 23.8346 82.544 22.8114C82.544 21.7886 82.3345 20.8844 81.9148 20.0974C81.5213 19.311 80.9314 18.7079 80.1444 18.2884Z" fill="#CCDEFF"/>
<path fill-rule="evenodd" clip-rule="evenodd" d="M82.9767 31.7013C81.298 32.4883 79.2526 32.8813 76.8405 32.8813H72.5134V41.1233C72.5134 41.2743 72.4533 41.4192 72.3466 41.5259C72.2398 41.6327 72.0949 41.6927 71.9439 41.6927H67.4972C67.3462 41.6927 67.2013 41.6327 67.0946 41.5259C66.9878 41.4192 66.9277 41.2743 66.9277 41.1233V13.3507C66.9277 13.1997 66.9878 13.0548 67.0946 12.948C67.2013 12.8412 67.3462 12.7812 67.4972 12.7812H71.9439C72.0055 12.7812 72.0646 12.7909 72.1199 12.8086C72.1757 12.7909 72.2349 12.7812 72.2964 12.7812H76.8405C79.2526 12.7812 81.298 13.1742 82.9767 13.9611C84.6811 14.7481 85.9794 15.8756 86.8706 17.3436C87.7622 18.7865 88.2082 20.5039 88.2082 22.497V23.1262C88.2082 25.1192 87.7622 26.8503 86.8706 28.3183C85.9794 29.7607 84.6811 30.8882 82.9767 31.7013ZM80.1444 18.2884C79.3841 17.8424 78.44 17.6192 77.3125 17.6192H72.5134V28.0433H77.3125C78.44 28.0433 79.3841 27.82 80.1444 27.3742C80.9314 26.9289 81.5213 26.3122 81.9148 25.5259C82.3345 24.7389 82.544 23.8346 82.544 22.8114C82.544 21.7886 82.3345 20.8844 81.9148 20.0974C81.5213 19.311 80.9314 18.7079 80.1444 18.2884Z" fill="#CCDEFF" fill-opacity="0.6"/>
<path d="M101.967 41.6925C101.816 41.6925 101.671 41.6325 101.564 41.5258C101.457 41.4189 101.397 41.2742 101.397 41.1232V20.9025C101.397 20.7515 101.457 20.6066 101.564 20.4998C101.671 20.3931 101.816 20.333 101.967 20.333H105.155C105.306 20.333 105.451 20.3931 105.558 20.4998C105.665 20.6066 105.725 20.7515 105.725 20.9025V25.5969C105.851 25.0491 106.008 24.5401 106.197 24.0702C106.774 22.6017 107.626 21.5003 108.753 20.7658C109.907 20.0318 111.336 19.6646 113.041 19.6646H113.277C115.821 19.6646 117.748 20.4902 119.059 22.1427C120.37 23.7685 121.026 26.2074 121.026 29.4588V41.1232C121.026 41.2742 120.966 41.4189 120.859 41.5258C120.752 41.6325 120.608 41.6925 120.457 41.6925H116.128C115.977 41.6925 115.832 41.6325 115.725 41.5258C115.618 41.4189 115.558 41.2742 115.558 41.1232V28.9874C115.558 27.6759 115.178 26.6139 114.418 25.8008C113.683 24.9882 112.66 24.5816 111.349 24.5816C110.012 24.5816 108.924 25.0013 108.084 25.8401C107.272 26.6532 106.865 27.7544 106.865 29.1445V41.1232C106.865 41.2742 106.805 41.4189 106.699 41.5258C106.592 41.6325 106.447 41.6925 106.296 41.6925H101.967Z" fill="#CCDEFF"/>
<path d="M101.967 41.6925C101.816 41.6925 101.671 41.6325 101.564 41.5258C101.457 41.4189 101.397 41.2742 101.397 41.1232V20.9025C101.397 20.7515 101.457 20.6066 101.564 20.4998C101.671 20.3931 101.816 20.333 101.967 20.333H105.155C105.306 20.333 105.451 20.3931 105.558 20.4998C105.665 20.6066 105.725 20.7515 105.725 20.9025V25.5969C105.851 25.0491 106.008 24.5401 106.197 24.0702C106.774 22.6017 107.626 21.5003 108.753 20.7658C109.907 20.0318 111.336 19.6646 113.041 19.6646H113.277C115.821 19.6646 117.748 20.4902 119.059 22.1427C120.37 23.7685 121.026 26.2074 121.026 29.4588V41.1232C121.026 41.2742 120.966 41.4189 120.859 41.5258C120.752 41.6325 120.608 41.6925 120.457 41.6925H116.128C115.977 41.6925 115.832 41.6325 115.725 41.5258C115.618 41.4189 115.558 41.2742 115.558 41.1232V28.9874C115.558 27.6759 115.178 26.6139 114.418 25.8008C113.683 24.9882 112.66 24.5816 111.349 24.5816C110.012 24.5816 108.924 25.0013 108.084 25.8401C107.272 26.6532 106.865 27.7544 106.865 29.1445V41.1232C106.865 41.2742 106.805 41.4189 106.699 41.5258C106.592 41.6325 106.447 41.6925 106.296 41.6925H101.967Z" fill="#CCDEFF" fill-opacity="0.6"/>
<path d="M101.967 41.6925C101.816 41.6925 101.671 41.6325 101.564 41.5258C101.457 41.4189 101.397 41.2742 101.397 41.1232V20.9025C101.397 20.7515 101.457 20.6066 101.564 20.4998C101.671 20.3931 101.816 20.333 101.967 20.333H105.155C105.306 20.333 105.451 20.3931 105.558 20.4998C105.665 20.6066 105.725 20.7515 105.725 20.9025V25.5969C105.851 25.0491 106.008 24.5401 106.197 24.0702C106.774 22.6017 107.626 21.5003 108.753 20.7658C109.907 20.0318 111.336 19.6646 113.041 19.6646H113.277C115.821 19.6646 117.748 20.4902 119.059 22.1427C120.37 23.7685 121.026 26.2074 121.026 29.4588V41.1232C121.026 41.2742 120.966 41.4189 120.859 41.5258C120.752 41.6325 120.608 41.6925 120.457 41.6925H116.128C115.977 41.6925 115.832 41.6325 115.725 41.5258C115.618 41.4189 115.558 41.2742 115.558 41.1232V28.9874C115.558 27.6759 115.178 26.6139 114.418 25.8008C113.683 24.9882 112.66 24.5816 111.349 24.5816C110.012 24.5816 108.924 25.0013 108.084 25.8401C107.272 26.6532 106.865 27.7544 106.865 29.1445V41.1232C106.865 41.2742 106.805 41.4189 106.699 41.5258C106.592 41.6325 106.447 41.6925 106.296 41.6925H101.967Z" fill="#CCDEFF"/>
<path d="M101.967 41.6925C101.816 41.6925 101.671 41.6325 101.564 41.5258C101.457 41.4189 101.397 41.2742 101.397 41.1232V20.9025C101.397 20.7515 101.457 20.6066 101.564 20.4998C101.671 20.3931 101.816 20.333 101.967 20.333H105.155C105.306 20.333 105.451 20.3931 105.558 20.4998C105.665 20.6066 105.725 20.7515 105.725 20.9025V25.5969C105.851 25.0491 106.008 24.5401 106.197 24.0702C106.774 22.6017 107.626 21.5003 108.753 20.7658C109.907 20.0318 111.336 19.6646 113.041 19.6646H113.277C115.821 19.6646 117.748 20.4902 119.059 22.1427C120.37 23.7685 121.026 26.2074 121.026 29.4588V41.1232C121.026 41.2742 120.966 41.4189 120.859 41.5258C120.752 41.6325 120.608 41.6925 120.457 41.6925H116.128C115.977 41.6925 115.832 41.6325 115.725 41.5258C115.618 41.4189 115.558 41.2742 115.558 41.1232V28.9874C115.558 27.6759 115.178 26.6139 114.418 25.8008C113.683 24.9882 112.66 24.5816 111.349 24.5816C110.012 24.5816 108.924 25.0013 108.084 25.8401C107.272 26.6532 106.865 27.7544 106.865 29.1445V41.1232C106.865 41.2742 106.805 41.4189 106.699 41.5258C106.592 41.6325 106.447 41.6925 106.296 41.6925H101.967Z" fill="#CCDEFF" fill-opacity="0.6"/>
<path fill-rule="evenodd" clip-rule="evenodd" d="M141.419 31.7013C139.741 32.4882 137.696 32.8813 135.283 32.8813H130.956V41.1232C130.956 41.2743 130.896 41.4191 130.79 41.5258C130.683 41.6327 130.538 41.6927 130.387 41.6927H125.94C125.789 41.6927 125.644 41.6327 125.537 41.5258C125.43 41.4191 125.37 41.2743 125.37 41.1232V13.3507C125.37 13.1997 125.43 13.0548 125.537 12.948C125.644 12.8413 125.789 12.7813 125.94 12.7813H130.387C130.448 12.7813 130.507 12.7909 130.563 12.8086C130.62 12.7903 130.679 12.781 130.739 12.7813H135.283C137.696 12.7813 139.741 13.1742 141.419 13.9611C143.123 14.7481 144.422 15.8756 145.313 17.3436C146.205 18.7865 146.651 20.5039 146.651 22.4969V23.1261C146.651 25.1192 146.205 26.8503 145.313 28.3183C144.422 29.7607 143.123 30.8882 141.419 31.7013ZM138.587 18.2883C137.827 17.8424 136.882 17.6192 135.755 17.6192H130.956V28.0433H135.755C136.882 28.0433 137.827 27.82 138.587 27.3742C139.374 26.9288 139.964 26.3122 140.357 25.5259C140.777 24.7389 140.986 23.8345 140.986 22.8114C140.986 21.7885 140.777 20.8843 140.357 20.0974C139.964 19.311 139.374 18.7079 138.587 18.2883ZM158.82 42.4398C156.933 42.4398 155.267 42.1385 153.825 41.535C152.383 40.9318 151.163 40.1193 150.167 39.0966C149.187 38.0733 148.413 36.8714 147.886 35.5565C147.388 34.2498 147.135 32.863 147.138 31.4651V30.6393C147.138 29.1708 147.4 27.7807 147.925 26.47C148.463 25.1514 149.251 23.9493 150.245 22.9297C151.268 21.8808 152.501 21.0677 153.943 20.4909C155.386 19.8873 157.011 19.586 158.82 19.586C160.63 19.586 162.257 19.8879 163.698 20.4909C165.14 21.0677 166.36 21.8803 167.356 22.9297C168.368 23.9354 169.158 25.1412 169.677 26.47C170.202 27.7807 170.464 29.1708 170.464 30.6393V31.4651C170.464 32.8813 170.202 34.2449 169.677 35.5565C169.179 36.8672 168.431 38.0472 167.434 39.0966C166.438 40.1193 165.219 40.9318 163.776 41.535C162.335 42.1385 160.682 42.4398 158.82 42.4398ZM158.82 37.759C160.159 37.759 161.285 37.4703 162.203 36.8934C163.11 36.3043 163.831 35.473 164.288 34.4939C164.76 33.4712 164.996 32.3174 164.996 31.0328C164.996 29.7214 164.747 28.5672 164.249 27.5706C163.776 26.5486 163.069 25.7485 162.125 25.1717C161.207 24.5681 160.105 24.2668 158.82 24.2668C157.536 24.2668 156.421 24.5686 155.477 25.1721C154.559 25.7485 153.852 26.5486 153.353 27.5712C152.855 28.5677 152.606 29.7214 152.606 31.0328C152.606 32.3174 152.842 33.4712 153.313 34.4939C153.793 35.4699 154.527 36.2986 155.438 36.8934C156.355 37.4703 157.484 37.759 158.82 37.759Z" fill="#CCDEFF"/>
<path fill-rule="evenodd" clip-rule="evenodd" d="M141.419 31.7013C139.741 32.4882 137.696 32.8813 135.283 32.8813H130.956V41.1232C130.956 41.2743 130.896 41.4191 130.79 41.5258C130.683 41.6327 130.538 41.6927 130.387 41.6927H125.94C125.789 41.6927 125.644 41.6327 125.537 41.5258C125.43 41.4191 125.37 41.2743 125.37 41.1232V13.3507C125.37 13.1997 125.43 13.0548 125.537 12.948C125.644 12.8413 125.789 12.7813 125.94 12.7813H130.387C130.448 12.7813 130.507 12.7909 130.563 12.8086C130.62 12.7903 130.679 12.781 130.739 12.7813H135.283C137.696 12.7813 139.741 13.1742 141.419 13.9611C143.123 14.7481 144.422 15.8756 145.313 17.3436C146.205 18.7865 146.651 20.5039 146.651 22.4969V23.1261C146.651 25.1192 146.205 26.8503 145.313 28.3183C144.422 29.7607 143.123 30.8882 141.419 31.7013ZM138.587 18.2883C137.827 17.8424 136.882 17.6192 135.755 17.6192H130.956V28.0433H135.755C136.882 28.0433 137.827 27.82 138.587 27.3742C139.374 26.9288 139.964 26.3122 140.357 25.5259C140.777 24.7389 140.986 23.8345 140.986 22.8114C140.986 21.7885 140.777 20.8843 140.357 20.0974C139.964 19.311 139.374 18.7079 138.587 18.2883ZM158.82 42.4398C156.933 42.4398 155.267 42.1385 153.825 41.535C152.383 40.9318 151.163 40.1193 150.167 39.0966C149.187 38.0733 148.413 36.8714 147.886 35.5565C147.388 34.2498 147.135 32.863 147.138 31.4651V30.6393C147.138 29.1708 147.4 27.7807 147.925 26.47C148.463 25.1514 149.251 23.9493 150.245 22.9297C151.268 21.8808 152.501 21.0677 153.943 20.4909C155.386 19.8873 157.011 19.586 158.82 19.586C160.63 19.586 162.257 19.8879 163.698 20.4909C165.14 21.0677 166.36 21.8803 167.356 22.9297C168.368 23.9354 169.158 25.1412 169.677 26.47C170.202 27.7807 170.464 29.1708 170.464 30.6393V31.4651C170.464 32.8813 170.202 34.2449 169.677 35.5565C169.179 36.8672 168.431 38.0472 167.434 39.0966C166.438 40.1193 165.219 40.9318 163.776 41.535C162.335 42.1385 160.682 42.4398 158.82 42.4398ZM158.82 37.759C160.159 37.759 161.285 37.4703 162.203 36.8934C163.11 36.3043 163.831 35.473 164.288 34.4939C164.76 33.4712 164.996 32.3174 164.996 31.0328C164.996 29.7214 164.747 28.5672 164.249 27.5706C163.776 26.5486 163.069 25.7485 162.125 25.1717C161.207 24.5681 160.105 24.2668 158.82 24.2668C157.536 24.2668 156.421 24.5686 155.477 25.1721C154.559 25.7485 153.852 26.5486 153.353 27.5712C152.855 28.5677 152.606 29.7214 152.606 31.0328C152.606 32.3174 152.842 33.4712 153.313 34.4939C153.793 35.4699 154.527 36.2986 155.438 36.8934C156.355 37.4703 157.484 37.759 158.82 37.759Z" fill="#CCDEFF" fill-opacity="0.6"/>
<path fill-rule="evenodd" clip-rule="evenodd" d="M141.419 31.7013C139.741 32.4882 137.696 32.8813 135.283 32.8813H130.956V41.1232C130.956 41.2743 130.896 41.4191 130.79 41.5258C130.683 41.6327 130.538 41.6927 130.387 41.6927H125.94C125.789 41.6927 125.644 41.6327 125.537 41.5258C125.43 41.4191 125.37 41.2743 125.37 41.1232V13.3507C125.37 13.1997 125.43 13.0548 125.537 12.948C125.644 12.8413 125.789 12.7813 125.94 12.7813H130.387C130.448 12.7813 130.507 12.7909 130.563 12.8086C130.62 12.7903 130.679 12.781 130.739 12.7813H135.283C137.696 12.7813 139.741 13.1742 141.419 13.9611C143.123 14.7481 144.422 15.8756 145.313 17.3436C146.205 18.7865 146.651 20.5039 146.651 22.4969V23.1261C146.651 25.1192 146.205 26.8503 145.313 28.3183C144.422 29.7607 143.123 30.8882 141.419 31.7013ZM138.587 18.2883C137.827 17.8424 136.882 17.6192 135.755 17.6192H130.956V28.0433H135.755C136.882 28.0433 137.827 27.82 138.587 27.3742C139.374 26.9288 139.964 26.3122 140.357 25.5259C140.777 24.7389 140.986 23.8345 140.986 22.8114C140.986 21.7885 140.777 20.8843 140.357 20.0974C139.964 19.311 139.374 18.7079 138.587 18.2883ZM158.82 42.4398C156.933 42.4398 155.267 42.1385 153.825 41.535C152.383 40.9318 151.163 40.1193 150.167 39.0966C149.187 38.0733 148.413 36.8714 147.886 35.5565C147.388 34.2498 147.135 32.863 147.138 31.4651V30.6393C147.138 29.1708 147.4 27.7807 147.925 26.47C148.463 25.1514 149.251 23.9493 150.245 22.9297C151.268 21.8808 152.501 21.0677 153.943 20.4909C155.386 19.8873 157.011 19.586 158.82 19.586C160.63 19.586 162.257 19.8879 163.698 20.4909C165.14 21.0677 166.36 21.8803 167.356 22.9297C168.368 23.9354 169.158 25.1412 169.677 26.47C170.202 27.7807 170.464 29.1708 170.464 30.6393V31.4651C170.464 32.8813 170.202 34.2449 169.677 35.5565C169.179 36.8672 168.431 38.0472 167.434 39.0966C166.438 40.1193 165.219 40.9318 163.776 41.535C162.335 42.1385 160.682 42.4398 158.82 42.4398ZM158.82 37.759C160.159 37.759 161.285 37.4703 162.203 36.8934C163.11 36.3043 163.831 35.473 164.288 34.4939C164.76 33.4712 164.996 32.3174 164.996 31.0328C164.996 29.7214 164.747 28.5672 164.249 27.5706C163.776 26.5486 163.069 25.7485 162.125 25.1717C161.207 24.5681 160.105 24.2668 158.82 24.2668C157.536 24.2668 156.421 24.5686 155.477 25.1721C154.559 25.7485 153.852 26.5486 153.353 27.5712C152.855 28.5677 152.606 29.7214 152.606 31.0328C152.606 32.3174 152.842 33.4712 153.313 34.4939C153.793 35.4699 154.527 36.2986 155.438 36.8934C156.355 37.4703 157.484 37.759 158.82 37.759Z" fill="#CCDEFF"/>
<path fill-rule="evenodd" clip-rule="evenodd" d="M141.419 31.7013C139.741 32.4882 137.696 32.8813 135.283 32.8813H130.956V41.1232C130.956 41.2743 130.896 41.4191 130.79 41.5258C130.683 41.6327 130.538 41.6927 130.387 41.6927H125.94C125.789 41.6927 125.644 41.6327 125.537 41.5258C125.43 41.4191 125.37 41.2743 125.37 41.1232V13.3507C125.37 13.1997 125.43 13.0548 125.537 12.948C125.644 12.8413 125.789 12.7813 125.94 12.7813H130.387C130.448 12.7813 130.507 12.7909 130.563 12.8086C130.62 12.7903 130.679 12.781 130.739 12.7813H135.283C137.696 12.7813 139.741 13.1742 141.419 13.9611C143.123 14.7481 144.422 15.8756 145.313 17.3436C146.205 18.7865 146.651 20.5039 146.651 22.4969V23.1261C146.651 25.1192 146.205 26.8503 145.313 28.3183C144.422 29.7607 143.123 30.8882 141.419 31.7013ZM138.587 18.2883C137.827 17.8424 136.882 17.6192 135.755 17.6192H130.956V28.0433H135.755C136.882 28.0433 137.827 27.82 138.587 27.3742C139.374 26.9288 139.964 26.3122 140.357 25.5259C140.777 24.7389 140.986 23.8345 140.986 22.8114C140.986 21.7885 140.777 20.8843 140.357 20.0974C139.964 19.311 139.374 18.7079 138.587 18.2883ZM158.82 42.4398C156.933 42.4398 155.267 42.1385 153.825 41.535C152.383 40.9318 151.163 40.1193 150.167 39.0966C149.187 38.0733 148.413 36.8714 147.886 35.5565C147.388 34.2498 147.135 32.863 147.138 31.4651V30.6393C147.138 29.1708 147.4 27.7807 147.925 26.47C148.463 25.1514 149.251 23.9493 150.245 22.9297C151.268 21.8808 152.501 21.0677 153.943 20.4909C155.386 19.8873 157.011 19.586 158.82 19.586C160.63 19.586 162.257 19.8879 163.698 20.4909C165.14 21.0677 166.36 21.8803 167.356 22.9297C168.368 23.9354 169.158 25.1412 169.677 26.47C170.202 27.7807 170.464 29.1708 170.464 30.6393V31.4651C170.464 32.8813 170.202 34.2449 169.677 35.5565C169.179 36.8672 168.431 38.0472 167.434 39.0966C166.438 40.1193 165.219 40.9318 163.776 41.535C162.335 42.1385 160.682 42.4398 158.82 42.4398ZM158.82 37.759C160.159 37.759 161.285 37.4703 162.203 36.8934C163.11 36.3043 163.831 35.473 164.288 34.4939C164.76 33.4712 164.996 32.3174 164.996 31.0328C164.996 29.7214 164.747 28.5672 164.249 27.5706C163.776 26.5486 163.069 25.7485 162.125 25.1717C161.207 24.5681 160.105 24.2668 158.82 24.2668C157.536 24.2668 156.421 24.5686 155.477 25.1721C154.559 25.7485 153.852 26.5486 153.353 27.5712C152.855 28.5677 152.606 29.7214 152.606 31.0328C152.606 32.3174 152.842 33.4712 153.313 34.4939C153.793 35.4699 154.527 36.2986 155.438 36.8934C156.355 37.4703 157.484 37.759 158.82 37.759Z" fill="#CCDEFF" fill-opacity="0.6"/>
<path d="M174.307 41.1229C174.307 41.2739 174.367 41.4188 174.474 41.5257C174.581 41.6324 174.725 41.6924 174.876 41.6924H179.205C179.356 41.6924 179.501 41.6324 179.608 41.5257C179.715 41.4188 179.774 41.2739 179.774 41.1229V20.3329H174.876C174.725 20.3329 174.581 20.3929 174.474 20.4996C174.367 20.6065 174.307 20.7512 174.307 20.9024V41.1229ZM174.482 16.9504C175.007 17.501 175.806 17.7762 176.881 17.7762C177.958 17.7762 178.744 17.501 179.242 16.9504C179.74 16.3735 179.99 15.6652 179.99 14.8265C179.99 13.9347 179.74 13.2138 179.242 12.6626C178.744 12.112 177.958 11.8369 176.881 11.8369C175.806 11.8369 175.007 12.112 174.482 12.6626C173.984 13.2138 173.735 13.9347 173.735 14.8265C173.735 15.6652 173.984 16.3735 174.482 16.9504ZM184.679 41.6924C184.528 41.6924 184.382 41.6324 184.275 41.5257C184.168 41.4188 184.108 41.2739 184.108 41.1229V20.9024C184.108 20.7512 184.168 20.6065 184.275 20.4996C184.382 20.3929 184.528 20.3329 184.679 20.3329H187.866C188.017 20.3329 188.161 20.3929 188.268 20.4996C188.375 20.6065 188.436 20.7512 188.436 20.9024V25.5967C188.554 25.0766 188.711 24.5662 188.907 24.0701C189.484 22.6016 190.338 21.5002 191.464 20.7657C192.618 20.0317 194.048 19.6644 195.753 19.6644H195.988C198.531 19.6644 200.459 20.4901 201.77 22.1426C203.082 23.7684 203.737 26.2072 203.737 29.4587V41.1229C203.737 41.2739 203.677 41.4188 203.57 41.5257C203.464 41.6324 203.319 41.6924 203.167 41.6924H198.839C198.688 41.6924 198.543 41.6324 198.437 41.5257C198.33 41.4188 198.27 41.2739 198.27 41.1229V28.9873C198.27 27.6757 197.89 26.6138 197.128 25.8005C196.394 24.988 195.372 24.5814 194.06 24.5814C192.723 24.5814 191.634 25.0012 190.796 25.8398C189.982 26.653 189.575 27.7543 189.575 29.1444V41.1229C189.575 41.2739 189.516 41.4188 189.409 41.5257C189.302 41.6324 189.157 41.6924 189.006 41.6924H184.679ZM212.055 41.2203C213.338 41.7186 214.965 41.9674 216.932 41.9674H219.431C219.582 41.9674 219.726 41.9075 219.833 41.8007C219.94 41.6938 220 41.5491 220 41.3981V37.8561C220 37.7051 219.94 37.5603 219.833 37.4535C219.726 37.3466 219.582 37.2868 219.431 37.2868H216.656C215.608 37.2868 214.794 37.0111 214.217 36.4605C213.667 35.8836 213.392 35.071 213.392 34.0221L213.411 24.3457H219.431C219.582 24.3457 219.726 24.2857 219.833 24.179C219.94 24.0721 220 23.9272 220 23.7762V20.9024C220 20.7512 219.94 20.6065 219.833 20.4996C219.726 20.3929 219.582 20.3329 219.431 20.3329H213.419L213.43 14.8851C213.43 14.8102 213.416 14.7361 213.387 14.6669C213.357 14.5976 213.316 14.5347 213.263 14.4817C213.21 14.4287 213.147 14.3867 213.078 14.358C213.008 14.3293 212.935 14.3145 212.861 14.3145H208.885C208.734 14.3145 208.59 14.3744 208.483 14.4809C208.376 14.5875 208.316 14.732 208.316 14.8828L208.305 20.3323H205.464C205.313 20.3323 205.169 20.3923 205.062 20.4992C204.955 20.6059 204.895 20.7508 204.895 20.9018V23.7758C204.895 23.9268 204.955 24.0715 205.062 24.1784C205.169 24.2852 205.313 24.3451 205.464 24.3451H208.297L208.277 33.6674C208.277 35.7389 208.593 37.3909 209.221 38.6237C209.852 39.8298 210.794 40.696 212.055 41.2203Z" fill="#CCDEFF"/>
<path d="M174.307 41.1229C174.307 41.2739 174.367 41.4188 174.474 41.5257C174.581 41.6324 174.725 41.6924 174.876 41.6924H179.205C179.356 41.6924 179.501 41.6324 179.608 41.5257C179.715 41.4188 179.774 41.2739 179.774 41.1229V20.3329H174.876C174.725 20.3329 174.581 20.3929 174.474 20.4996C174.367 20.6065 174.307 20.7512 174.307 20.9024V41.1229ZM174.482 16.9504C175.007 17.501 175.806 17.7762 176.881 17.7762C177.958 17.7762 178.744 17.501 179.242 16.9504C179.74 16.3735 179.99 15.6652 179.99 14.8265C179.99 13.9347 179.74 13.2138 179.242 12.6626C178.744 12.112 177.958 11.8369 176.881 11.8369C175.806 11.8369 175.007 12.112 174.482 12.6626C173.984 13.2138 173.735 13.9347 173.735 14.8265C173.735 15.6652 173.984 16.3735 174.482 16.9504ZM184.679 41.6924C184.528 41.6924 184.382 41.6324 184.275 41.5257C184.168 41.4188 184.108 41.2739 184.108 41.1229V20.9024C184.108 20.7512 184.168 20.6065 184.275 20.4996C184.382 20.3929 184.528 20.3329 184.679 20.3329H187.866C188.017 20.3329 188.161 20.3929 188.268 20.4996C188.375 20.6065 188.436 20.7512 188.436 20.9024V25.5967C188.554 25.0766 188.711 24.5662 188.907 24.0701C189.484 22.6016 190.338 21.5002 191.464 20.7657C192.618 20.0317 194.048 19.6644 195.753 19.6644H195.988C198.531 19.6644 200.459 20.4901 201.77 22.1426C203.082 23.7684 203.737 26.2072 203.737 29.4587V41.1229C203.737 41.2739 203.677 41.4188 203.57 41.5257C203.464 41.6324 203.319 41.6924 203.167 41.6924H198.839C198.688 41.6924 198.543 41.6324 198.437 41.5257C198.33 41.4188 198.27 41.2739 198.27 41.1229V28.9873C198.27 27.6757 197.89 26.6138 197.128 25.8005C196.394 24.988 195.372 24.5814 194.06 24.5814C192.723 24.5814 191.634 25.0012 190.796 25.8398C189.982 26.653 189.575 27.7543 189.575 29.1444V41.1229C189.575 41.2739 189.516 41.4188 189.409 41.5257C189.302 41.6324 189.157 41.6924 189.006 41.6924H184.679ZM212.055 41.2203C213.338 41.7186 214.965 41.9674 216.932 41.9674H219.431C219.582 41.9674 219.726 41.9075 219.833 41.8007C219.94 41.6938 220 41.5491 220 41.3981V37.8561C220 37.7051 219.94 37.5603 219.833 37.4535C219.726 37.3466 219.582 37.2868 219.431 37.2868H216.656C215.608 37.2868 214.794 37.0111 214.217 36.4605C213.667 35.8836 213.392 35.071 213.392 34.0221L213.411 24.3457H219.431C219.582 24.3457 219.726 24.2857 219.833 24.179C219.94 24.0721 220 23.9272 220 23.7762V20.9024C220 20.7512 219.94 20.6065 219.833 20.4996C219.726 20.3929 219.582 20.3329 219.431 20.3329H213.419L213.43 14.8851C213.43 14.8102 213.416 14.7361 213.387 14.6669C213.357 14.5976 213.316 14.5347 213.263 14.4817C213.21 14.4287 213.147 14.3867 213.078 14.358C213.008 14.3293 212.935 14.3145 212.861 14.3145H208.885C208.734 14.3145 208.59 14.3744 208.483 14.4809C208.376 14.5875 208.316 14.732 208.316 14.8828L208.305 20.3323H205.464C205.313 20.3323 205.169 20.3923 205.062 20.4992C204.955 20.6059 204.895 20.7508 204.895 20.9018V23.7758C204.895 23.9268 204.955 24.0715 205.062 24.1784C205.169 24.2852 205.313 24.3451 205.464 24.3451H208.297L208.277 33.6674C208.277 35.7389 208.593 37.3909 209.221 38.6237C209.852 39.8298 210.794 40.696 212.055 41.2203Z" fill="#CCDEFF" fill-opacity="0.6"/>
<path d="M174.307 41.1229C174.307 41.2739 174.367 41.4188 174.474 41.5257C174.581 41.6324 174.725 41.6924 174.876 41.6924H179.205C179.356 41.6924 179.501 41.6324 179.608 41.5257C179.715 41.4188 179.774 41.2739 179.774 41.1229V20.3329H174.876C174.725 20.3329 174.581 20.3929 174.474 20.4996C174.367 20.6065 174.307 20.7512 174.307 20.9024V41.1229ZM174.482 16.9504C175.007 17.501 175.806 17.7762 176.881 17.7762C177.958 17.7762 178.744 17.501 179.242 16.9504C179.74 16.3735 179.99 15.6652 179.99 14.8265C179.99 13.9347 179.74 13.2138 179.242 12.6626C178.744 12.112 177.958 11.8369 176.881 11.8369C175.806 11.8369 175.007 12.112 174.482 12.6626C173.984 13.2138 173.735 13.9347 173.735 14.8265C173.735 15.6652 173.984 16.3735 174.482 16.9504ZM184.679 41.6924C184.528 41.6924 184.382 41.6324 184.275 41.5257C184.168 41.4188 184.108 41.2739 184.108 41.1229V20.9024C184.108 20.7512 184.168 20.6065 184.275 20.4996C184.382 20.3929 184.528 20.3329 184.679 20.3329H187.866C188.017 20.3329 188.161 20.3929 188.268 20.4996C188.375 20.6065 188.436 20.7512 188.436 20.9024V25.5967C188.554 25.0766 188.711 24.5662 188.907 24.0701C189.484 22.6016 190.338 21.5002 191.464 20.7657C192.618 20.0317 194.048 19.6644 195.753 19.6644H195.988C198.531 19.6644 200.459 20.4901 201.77 22.1426C203.082 23.7684 203.737 26.2072 203.737 29.4587V41.1229C203.737 41.2739 203.677 41.4188 203.57 41.5257C203.464 41.6324 203.319 41.6924 203.167 41.6924H198.839C198.688 41.6924 198.543 41.6324 198.437 41.5257C198.33 41.4188 198.27 41.2739 198.27 41.1229V28.9873C198.27 27.6757 197.89 26.6138 197.128 25.8005C196.394 24.988 195.372 24.5814 194.06 24.5814C192.723 24.5814 191.634 25.0012 190.796 25.8398C189.982 26.653 189.575 27.7543 189.575 29.1444V41.1229C189.575 41.2739 189.516 41.4188 189.409 41.5257C189.302 41.6324 189.157 41.6924 189.006 41.6924H184.679ZM212.055 41.2203C213.338 41.7186 214.965 41.9674 216.932 41.9674H219.431C219.582 41.9674 219.726 41.9075 219.833 41.8007C219.94 41.6938 220 41.5491 220 41.3981V37.8561C220 37.7051 219.94 37.5603 219.833 37.4535C219.726 37.3466 219.582 37.2868 219.431 37.2868H216.656C215.608 37.2868 214.794 37.0111 214.217 36.4605C213.667 35.8836 213.392 35.071 213.392 34.0221L213.411 24.3457H219.431C219.582 24.3457 219.726 24.2857 219.833 24.179C219.94 24.0721 220 23.9272 220 23.7762V20.9024C220 20.7512 219.94 20.6065 219.833 20.4996C219.726 20.3929 219.582 20.3329 219.431 20.3329H213.419L213.43 14.8851C213.43 14.8102 213.416 14.7361 213.387 14.6669C213.357 14.5976 213.316 14.5347 213.263 14.4817C213.21 14.4287 213.147 14.3867 213.078 14.358C213.008 14.3293 212.935 14.3145 212.861 14.3145H208.885C208.734 14.3145 208.59 14.3744 208.483 14.4809C208.376 14.5875 208.316 14.732 208.316 14.8828L208.305 20.3323H205.464C205.313 20.3323 205.169 20.3923 205.062 20.4992C204.955 20.6059 204.895 20.7508 204.895 20.9018V23.7758C204.895 23.9268 204.955 24.0715 205.062 24.1784C205.169 24.2852 205.313 24.3451 205.464 24.3451H208.297L208.277 33.6674C208.277 35.7389 208.593 37.3909 209.221 38.6237C209.852 39.8298 210.794 40.696 212.055 41.2203Z" fill="#CCDEFF"/>
<path d="M174.307 41.1229C174.307 41.2739 174.367 41.4188 174.474 41.5257C174.581 41.6324 174.725 41.6924 174.876 41.6924H179.205C179.356 41.6924 179.501 41.6324 179.608 41.5257C179.715 41.4188 179.774 41.2739 179.774 41.1229V20.3329H174.876C174.725 20.3329 174.581 20.3929 174.474 20.4996C174.367 20.6065 174.307 20.7512 174.307 20.9024V41.1229ZM174.482 16.9504C175.007 17.501 175.806 17.7762 176.881 17.7762C177.958 17.7762 178.744 17.501 179.242 16.9504C179.74 16.3735 179.99 15.6652 179.99 14.8265C179.99 13.9347 179.74 13.2138 179.242 12.6626C178.744 12.112 177.958 11.8369 176.881 11.8369C175.806 11.8369 175.007 12.112 174.482 12.6626C173.984 13.2138 173.735 13.9347 173.735 14.8265C173.735 15.6652 173.984 16.3735 174.482 16.9504ZM184.679 41.6924C184.528 41.6924 184.382 41.6324 184.275 41.5257C184.168 41.4188 184.108 41.2739 184.108 41.1229V20.9024C184.108 20.7512 184.168 20.6065 184.275 20.4996C184.382 20.3929 184.528 20.3329 184.679 20.3329H187.866C188.017 20.3329 188.161 20.3929 188.268 20.4996C188.375 20.6065 188.436 20.7512 188.436 20.9024V25.5967C188.554 25.0766 188.711 24.5662 188.907 24.0701C189.484 22.6016 190.338 21.5002 191.464 20.7657C192.618 20.0317 194.048 19.6644 195.753 19.6644H195.988C198.531 19.6644 200.459 20.4901 201.77 22.1426C203.082 23.7684 203.737 26.2072 203.737 29.4587V41.1229C203.737 41.2739 203.677 41.4188 203.57 41.5257C203.464 41.6324 203.319 41.6924 203.167 41.6924H198.839C198.688 41.6924 198.543 41.6324 198.437 41.5257C198.33 41.4188 198.27 41.2739 198.27 41.1229V28.9873C198.27 27.6757 197.89 26.6138 197.128 25.8005C196.394 24.988 195.372 24.5814 194.06 24.5814C192.723 24.5814 191.634 25.0012 190.796 25.8398C189.982 26.653 189.575 27.7543 189.575 29.1444V41.1229C189.575 41.2739 189.516 41.4188 189.409 41.5257C189.302 41.6324 189.157 41.6924 189.006 41.6924H184.679ZM212.055 41.2203C213.338 41.7186 214.965 41.9674 216.932 41.9674H219.431C219.582 41.9674 219.726 41.9075 219.833 41.8007C219.94 41.6938 220 41.5491 220 41.3981V37.8561C220 37.7051 219.94 37.5603 219.833 37.4535C219.726 37.3466 219.582 37.2868 219.431 37.2868H216.656C215.608 37.2868 214.794 37.0111 214.217 36.4605C213.667 35.8836 213.392 35.071 213.392 34.0221L213.411 24.3457H219.431C219.582 24.3457 219.726 24.2857 219.833 24.179C219.94 24.0721 220 23.9272 220 23.7762V20.9024C220 20.7512 219.94 20.6065 219.833 20.4996C219.726 20.3929 219.582 20.3329 219.431 20.3329H213.419L213.43 14.8851C213.43 14.8102 213.416 14.7361 213.387 14.6669C213.357 14.5976 213.316 14.5347 213.263 14.4817C213.21 14.4287 213.147 14.3867 213.078 14.358C213.008 14.3293 212.935 14.3145 212.861 14.3145H208.885C208.734 14.3145 208.59 14.3744 208.483 14.4809C208.376 14.5875 208.316 14.732 208.316 14.8828L208.305 20.3323H205.464C205.313 20.3323 205.169 20.3923 205.062 20.4992C204.955 20.6059 204.895 20.7508 204.895 20.9018V23.7758C204.895 23.9268 204.955 24.0715 205.062 24.1784C205.169 24.2852 205.313 24.3451 205.464 24.3451H208.297L208.277 33.6674C208.277 35.7389 208.593 37.3909 209.221 38.6237C209.852 39.8298 210.794 40.696 212.055 41.2203Z" fill="#CCDEFF" fill-opacity="0.6"/>
</g>
</g>
<defs>
<clipPath id="clip0_1_19982">
<rect width="220" height="56.5714" fill="white"/>
</clipPath>
</defs>
</svg>
