<svg width="238" height="87" viewBox="0 0 238 87" fill="none" xmlns="http://www.w3.org/2000/svg">
<path d="M49.953 12.6868H10.3818C4.89611 12.6868 0.450195 17.156 0.450195 22.6705V62.4495C0.450195 67.964 4.89611 72.4332 10.3818 72.4332H49.953C55.4385 72.4332 59.8845 67.964 59.8845 62.4495V22.6705C59.8845 17.156 55.4385 12.6868 49.953 12.6868ZM49.0803 58.4185C49.0803 60.1606 47.6761 61.5723 45.943 61.5723H14.3915C12.6585 61.5723 11.2543 60.1606 11.2543 58.4185V26.7012C11.2543 24.9592 12.6585 23.5476 14.3915 23.5476H45.943C47.6761 23.5476 49.0803 24.9592 49.0803 26.7012V58.4185ZM23.863 50.6694C22.865 50.6694 22.0643 49.8585 22.0643 48.8555V36.1924C22.0643 35.1893 22.865 34.3723 23.863 34.3723H36.4776C37.4697 34.3723 38.2764 35.1832 38.2764 36.1924V48.8493C38.2764 49.8526 37.4697 50.6635 36.4776 50.6635H23.863V50.6694ZM75.6424 49.8045H82.1321C82.4545 53.499 84.9466 56.3822 89.972 56.3822C94.4597 56.3822 97.2205 54.1538 97.2205 50.7838C97.2205 47.63 95.0573 46.2183 91.1613 45.2933L86.1297 44.2058C80.668 43.0106 76.5568 39.4784 76.5568 33.7116C76.5568 27.3501 82.1797 23.0009 89.4822 23.0009C97.2146 23.0009 102.192 27.0796 102.623 33.1108H96.3481C95.6011 30.2876 93.2708 28.6054 89.4881 28.6054C85.4843 28.6054 82.7297 30.7802 82.7297 33.5555C82.7297 36.3305 85.1079 38.0127 89.2191 38.9377L94.1969 40.025C99.6586 41.2204 103.388 44.5364 103.388 50.3511C103.388 57.7458 97.8721 62.1491 89.9782 62.1491C81.1041 62.1432 76.1862 57.3073 75.6424 49.8045ZM126.603 72.4332V61.6145L127.027 56.8689H126.603C125.115 60.2809 121.99 62.1491 117.747 62.1491C110.905 62.1491 105.814 56.5504 105.814 47.9663C105.814 39.3822 110.905 33.7837 117.747 33.7837C121.936 33.7837 124.906 35.754 126.603 38.8476H127.027V34.3121H132.651V72.4332H126.603ZM126.812 47.9604C126.812 42.4699 123.472 39.2681 119.384 39.2681C115.297 39.2681 111.957 42.4699 111.957 47.9604C111.957 53.4508 115.297 56.6527 119.384 56.6527C123.472 56.6527 126.812 53.4567 126.812 47.9604ZM137.138 50.7897V34.3121H143.186V50.2551C143.186 54.5742 145.253 56.6527 148.701 56.6527C152.944 56.6527 155.705 53.6131 155.705 48.8675V34.3121H161.752V61.6084H156.129V55.9557H155.705C154.378 59.5841 151.462 62.1432 146.956 62.1432C140.479 62.1432 137.138 57.9861 137.138 50.7897ZM165.433 53.9854C165.433 48.8675 168.989 45.8818 175.299 45.5095L182.775 45.029V42.8965C182.775 40.3374 180.916 38.7937 177.629 38.7937C174.606 38.7937 172.801 40.3374 172.323 42.5239H166.276C166.915 36.9794 171.474 33.7776 177.624 33.7776C184.573 33.7776 188.816 36.7632 188.816 42.5239V61.6084H183.193V56.5445H182.769C181.496 59.9024 178.843 62.1432 173.751 62.1432C168.881 62.1432 165.433 58.8392 165.433 53.9854ZM182.781 50.6274V49.1858L176.68 49.6124C173.393 49.8224 171.905 51.054 171.905 53.5048C171.905 55.5834 173.602 57.079 175.986 57.079C180.289 57.079 182.781 54.3098 182.781 50.6274ZM193.328 61.6145V34.3121H198.951V39.5385H199.375C200.17 35.9641 202.877 34.3121 206.904 34.3121H209.665V39.8026H206.217C202.291 39.8026 199.375 42.3617 199.375 47.2155V61.6084H193.328V61.6145ZM237.333 49.0837H216.699C217.015 54.0936 220.517 56.9229 224.389 56.9229C227.676 56.9229 229.744 55.5893 230.915 53.3488H236.908C235.265 58.8932 230.437 62.1432 224.336 62.1432C216.328 62.1432 210.705 56.1179 210.705 47.9604C210.705 39.8026 216.484 33.7776 224.389 33.7776C232.343 33.7776 237.542 39.2681 237.542 46.0922C237.548 47.4317 237.44 48.1226 237.333 49.0837ZM231.554 44.8727C231.345 41.0881 228.214 38.5293 224.395 38.5293C220.786 38.5293 217.768 40.8238 217.021 44.8727H231.554Z" fill="#CCDEFF"/>
</svg>
