<svg width="220" height="63" viewBox="0 0 220 63" fill="none" xmlns="http://www.w3.org/2000/svg">
<g clip-path="url(#clip0_1_19969)">
<mask id="mask0_1_19969" style="mask-type:luminance" maskUnits="userSpaceOnUse" x="0" y="0" width="220" height="63">
<path d="M220 0H0V62.8571H220V0Z" fill="white"/>
</mask>
<g mask="url(#mask0_1_19969)">
<path d="M27.3264 61.9242H7.72028L27.3819 32.2094H47.0436L27.3264 61.9242ZM20.1615 1.55054H40.2675L20.1615 32.2094H0L20.1615 1.55054ZM87.0891 27.4329C87.0891 29.2658 86.6447 30.9875 85.7561 32.5427C84.9229 34.1534 83.5344 35.4309 81.7015 36.3751C79.8687 37.3749 77.5914 37.8191 74.7589 37.8191H69.0381V50.927H62.2065V16.88H74.7589C77.3692 16.88 79.6465 17.3244 81.4793 18.2685C83.3122 19.1571 84.7007 20.4347 85.645 22.0454C86.5893 23.6005 87.0891 25.3778 87.0891 27.4329ZM74.4811 32.3205C76.3695 32.3205 77.7581 31.8763 78.7023 31.0431C79.5909 30.1545 80.0908 28.9325 80.0908 27.3773C80.0908 24.0449 78.258 22.3786 74.5367 22.3786H69.0936V32.2651H74.4811V32.3205ZM96.8089 28.0994C97.6975 26.6554 98.8084 25.5445 100.252 24.7114C101.696 23.8782 103.307 23.4894 105.14 23.4894V30.6543H103.307C101.141 30.6543 99.5303 31.1542 98.4196 32.154C97.3642 33.1537 96.8089 34.931 96.8089 37.4303V50.927H89.9773V23.8782H96.8089V28.0994ZM119.748 51.3713C117.137 51.3713 114.804 50.8159 112.694 49.6495C110.639 48.4831 108.972 46.817 107.75 44.7064C106.584 42.5958 105.973 40.1519 105.973 37.3749C105.973 34.5977 106.584 32.154 107.806 30.0434C109.028 27.9328 110.694 26.3221 112.86 25.1558C114.971 23.9893 117.359 23.3783 119.914 23.3783C122.525 23.3783 124.857 23.9893 126.968 25.1558C129.078 26.3221 130.745 27.9328 131.967 30.0434C133.189 32.154 133.8 34.5977 133.8 37.3749C133.8 40.1519 133.189 42.5958 131.911 44.7064C130.689 46.817 128.967 48.4831 126.857 49.6495C124.746 50.8159 122.413 51.3713 119.748 51.3713ZM119.748 45.4283C120.969 45.4283 122.136 45.1506 123.191 44.5396C124.302 43.9287 125.191 42.9846 125.801 41.8181C126.468 40.5963 126.801 39.1522 126.801 37.4303C126.801 34.8755 126.135 32.876 124.746 31.543C123.413 30.1545 121.747 29.4324 119.803 29.4324C117.859 29.4324 116.193 30.1545 114.86 31.543C113.582 32.9315 112.916 34.8755 112.916 37.4303C112.916 39.9853 113.527 41.9848 114.804 43.3733C116.193 44.7064 117.803 45.4283 119.748 45.4283ZM143.741 45.5394H151.073V50.9825H136.91V12.6588H143.741V45.5394ZM156.405 20.6568C155.183 20.6568 154.183 20.268 153.406 19.5459C152.628 18.7684 152.239 17.8243 152.239 16.6578C152.239 15.4915 152.628 14.6028 153.406 13.8252C154.239 13.0476 155.239 12.6588 156.405 12.6588C157.626 12.6588 158.626 13.0476 159.404 13.8252C160.237 14.5472 160.626 15.4915 160.626 16.6578C160.626 17.8243 160.237 18.7684 159.404 19.5459C158.571 20.3236 157.626 20.6568 156.405 20.6568ZM159.793 23.8782V50.927H152.906V23.8782H159.793ZM179.565 23.4894C182.787 23.4894 185.398 24.4892 187.397 26.5443C189.396 28.5438 190.397 31.3764 190.397 35.0421V50.927H183.564V35.9864C183.564 33.8201 183.01 32.2094 181.954 31.0431C180.899 29.8766 179.399 29.2658 177.566 29.2658C175.677 29.2658 174.178 29.8766 173.067 31.0431C172.011 32.2094 171.457 33.8201 171.457 35.9864V50.927H164.569V23.8782H171.402V27.2662C172.289 26.0999 173.455 25.2112 174.845 24.5448C176.289 23.8227 177.844 23.4894 179.565 23.4894ZM220 36.8194C220 37.8191 219.945 38.6523 219.778 39.4298H200.005C200.171 41.3738 200.838 42.9289 202.06 44.0398C203.281 45.1506 204.725 45.7061 206.503 45.7061C209.058 45.7061 210.835 44.5953 211.946 42.4291H219.333C218.555 45.0395 217.056 47.2057 214.834 48.8719C212.612 50.5381 209.891 51.3713 206.669 51.3713C204.059 51.3713 201.727 50.8159 199.617 49.6495C197.561 48.4831 195.95 46.817 194.784 44.7064C193.673 42.5958 193.062 40.1519 193.062 37.3749C193.062 34.5977 193.618 32.0983 194.784 29.9877C195.95 27.8772 197.506 26.2664 199.56 25.1001C201.615 23.9338 203.949 23.3783 206.614 23.3783C209.169 23.3783 211.501 23.9338 213.502 25.0447C215.557 26.1555 217.111 27.7106 218.222 29.7657C219.445 31.8763 220 34.2089 220 36.8194ZM212.945 34.8755C212.89 33.0981 212.279 31.7096 211.058 30.6543C209.836 29.599 208.336 29.0436 206.503 29.0436C204.837 29.0436 203.393 29.5435 202.227 30.5987C201.116 31.5985 200.394 33.0426 200.116 34.8199H212.945V34.8755Z" fill="#CCDEFF"/>
<path d="M27.3264 61.9242H7.72028L27.3819 32.2094H47.0436L27.3264 61.9242ZM20.1615 1.55054H40.2675L20.1615 32.2094H0L20.1615 1.55054ZM87.0891 27.4329C87.0891 29.2658 86.6447 30.9875 85.7561 32.5427C84.9229 34.1534 83.5344 35.4309 81.7015 36.3751C79.8687 37.3749 77.5914 37.8191 74.7589 37.8191H69.0381V50.927H62.2065V16.88H74.7589C77.3692 16.88 79.6465 17.3244 81.4793 18.2685C83.3122 19.1571 84.7007 20.4347 85.645 22.0454C86.5893 23.6005 87.0891 25.3778 87.0891 27.4329ZM74.4811 32.3205C76.3695 32.3205 77.7581 31.8763 78.7023 31.0431C79.5909 30.1545 80.0908 28.9325 80.0908 27.3773C80.0908 24.0449 78.258 22.3786 74.5367 22.3786H69.0936V32.2651H74.4811V32.3205ZM96.8089 28.0994C97.6975 26.6554 98.8084 25.5445 100.252 24.7114C101.696 23.8782 103.307 23.4894 105.14 23.4894V30.6543H103.307C101.141 30.6543 99.5303 31.1542 98.4196 32.154C97.3642 33.1537 96.8089 34.931 96.8089 37.4303V50.927H89.9773V23.8782H96.8089V28.0994ZM119.748 51.3713C117.137 51.3713 114.804 50.8159 112.694 49.6495C110.639 48.4831 108.972 46.817 107.75 44.7064C106.584 42.5958 105.973 40.1519 105.973 37.3749C105.973 34.5977 106.584 32.154 107.806 30.0434C109.028 27.9328 110.694 26.3221 112.86 25.1558C114.971 23.9893 117.359 23.3783 119.914 23.3783C122.525 23.3783 124.857 23.9893 126.968 25.1558C129.078 26.3221 130.745 27.9328 131.967 30.0434C133.189 32.154 133.8 34.5977 133.8 37.3749C133.8 40.1519 133.189 42.5958 131.911 44.7064C130.689 46.817 128.967 48.4831 126.857 49.6495C124.746 50.8159 122.413 51.3713 119.748 51.3713ZM119.748 45.4283C120.969 45.4283 122.136 45.1506 123.191 44.5396C124.302 43.9287 125.191 42.9846 125.801 41.8181C126.468 40.5963 126.801 39.1522 126.801 37.4303C126.801 34.8755 126.135 32.876 124.746 31.543C123.413 30.1545 121.747 29.4324 119.803 29.4324C117.859 29.4324 116.193 30.1545 114.86 31.543C113.582 32.9315 112.916 34.8755 112.916 37.4303C112.916 39.9853 113.527 41.9848 114.804 43.3733C116.193 44.7064 117.803 45.4283 119.748 45.4283ZM143.741 45.5394H151.073V50.9825H136.91V12.6588H143.741V45.5394ZM156.405 20.6568C155.183 20.6568 154.183 20.268 153.406 19.5459C152.628 18.7684 152.239 17.8243 152.239 16.6578C152.239 15.4915 152.628 14.6028 153.406 13.8252C154.239 13.0476 155.239 12.6588 156.405 12.6588C157.626 12.6588 158.626 13.0476 159.404 13.8252C160.237 14.5472 160.626 15.4915 160.626 16.6578C160.626 17.8243 160.237 18.7684 159.404 19.5459C158.571 20.3236 157.626 20.6568 156.405 20.6568ZM159.793 23.8782V50.927H152.906V23.8782H159.793ZM179.565 23.4894C182.787 23.4894 185.398 24.4892 187.397 26.5443C189.396 28.5438 190.397 31.3764 190.397 35.0421V50.927H183.564V35.9864C183.564 33.8201 183.01 32.2094 181.954 31.0431C180.899 29.8766 179.399 29.2658 177.566 29.2658C175.677 29.2658 174.178 29.8766 173.067 31.0431C172.011 32.2094 171.457 33.8201 171.457 35.9864V50.927H164.569V23.8782H171.402V27.2662C172.289 26.0999 173.455 25.2112 174.845 24.5448C176.289 23.8227 177.844 23.4894 179.565 23.4894ZM220 36.8194C220 37.8191 219.945 38.6523 219.778 39.4298H200.005C200.171 41.3738 200.838 42.9289 202.06 44.0398C203.281 45.1506 204.725 45.7061 206.503 45.7061C209.058 45.7061 210.835 44.5953 211.946 42.4291H219.333C218.555 45.0395 217.056 47.2057 214.834 48.8719C212.612 50.5381 209.891 51.3713 206.669 51.3713C204.059 51.3713 201.727 50.8159 199.617 49.6495C197.561 48.4831 195.95 46.817 194.784 44.7064C193.673 42.5958 193.062 40.1519 193.062 37.3749C193.062 34.5977 193.618 32.0983 194.784 29.9877C195.95 27.8772 197.506 26.2664 199.56 25.1001C201.615 23.9338 203.949 23.3783 206.614 23.3783C209.169 23.3783 211.501 23.9338 213.502 25.0447C215.557 26.1555 217.111 27.7106 218.222 29.7657C219.445 31.8763 220 34.2089 220 36.8194ZM212.945 34.8755C212.89 33.0981 212.279 31.7096 211.058 30.6543C209.836 29.599 208.336 29.0436 206.503 29.0436C204.837 29.0436 203.393 29.5435 202.227 30.5987C201.116 31.5985 200.394 33.0426 200.116 34.8199H212.945V34.8755Z" fill="#CCDEFF" fill-opacity="0.6"/>
<path d="M27.3264 61.9242H7.72028L27.3819 32.2094H47.0436L27.3264 61.9242ZM20.1615 1.55054H40.2675L20.1615 32.2094H0L20.1615 1.55054ZM87.0891 27.4329C87.0891 29.2658 86.6447 30.9875 85.7561 32.5427C84.9229 34.1534 83.5344 35.4309 81.7015 36.3751C79.8687 37.3749 77.5914 37.8191 74.7589 37.8191H69.0381V50.927H62.2065V16.88H74.7589C77.3692 16.88 79.6465 17.3244 81.4793 18.2685C83.3122 19.1571 84.7007 20.4347 85.645 22.0454C86.5893 23.6005 87.0891 25.3778 87.0891 27.4329ZM74.4811 32.3205C76.3695 32.3205 77.7581 31.8763 78.7023 31.0431C79.5909 30.1545 80.0908 28.9325 80.0908 27.3773C80.0908 24.0449 78.258 22.3786 74.5367 22.3786H69.0936V32.2651H74.4811V32.3205ZM96.8089 28.0994C97.6975 26.6554 98.8084 25.5445 100.252 24.7114C101.696 23.8782 103.307 23.4894 105.14 23.4894V30.6543H103.307C101.141 30.6543 99.5303 31.1542 98.4196 32.154C97.3642 33.1537 96.8089 34.931 96.8089 37.4303V50.927H89.9773V23.8782H96.8089V28.0994ZM119.748 51.3713C117.137 51.3713 114.804 50.8159 112.694 49.6495C110.639 48.4831 108.972 46.817 107.75 44.7064C106.584 42.5958 105.973 40.1519 105.973 37.3749C105.973 34.5977 106.584 32.154 107.806 30.0434C109.028 27.9328 110.694 26.3221 112.86 25.1558C114.971 23.9893 117.359 23.3783 119.914 23.3783C122.525 23.3783 124.857 23.9893 126.968 25.1558C129.078 26.3221 130.745 27.9328 131.967 30.0434C133.189 32.154 133.8 34.5977 133.8 37.3749C133.8 40.1519 133.189 42.5958 131.911 44.7064C130.689 46.817 128.967 48.4831 126.857 49.6495C124.746 50.8159 122.413 51.3713 119.748 51.3713ZM119.748 45.4283C120.969 45.4283 122.136 45.1506 123.191 44.5396C124.302 43.9287 125.191 42.9846 125.801 41.8181C126.468 40.5963 126.801 39.1522 126.801 37.4303C126.801 34.8755 126.135 32.876 124.746 31.543C123.413 30.1545 121.747 29.4324 119.803 29.4324C117.859 29.4324 116.193 30.1545 114.86 31.543C113.582 32.9315 112.916 34.8755 112.916 37.4303C112.916 39.9853 113.527 41.9848 114.804 43.3733C116.193 44.7064 117.803 45.4283 119.748 45.4283ZM143.741 45.5394H151.073V50.9825H136.91V12.6588H143.741V45.5394ZM156.405 20.6568C155.183 20.6568 154.183 20.268 153.406 19.5459C152.628 18.7684 152.239 17.8243 152.239 16.6578C152.239 15.4915 152.628 14.6028 153.406 13.8252C154.239 13.0476 155.239 12.6588 156.405 12.6588C157.626 12.6588 158.626 13.0476 159.404 13.8252C160.237 14.5472 160.626 15.4915 160.626 16.6578C160.626 17.8243 160.237 18.7684 159.404 19.5459C158.571 20.3236 157.626 20.6568 156.405 20.6568ZM159.793 23.8782V50.927H152.906V23.8782H159.793ZM179.565 23.4894C182.787 23.4894 185.398 24.4892 187.397 26.5443C189.396 28.5438 190.397 31.3764 190.397 35.0421V50.927H183.564V35.9864C183.564 33.8201 183.01 32.2094 181.954 31.0431C180.899 29.8766 179.399 29.2658 177.566 29.2658C175.677 29.2658 174.178 29.8766 173.067 31.0431C172.011 32.2094 171.457 33.8201 171.457 35.9864V50.927H164.569V23.8782H171.402V27.2662C172.289 26.0999 173.455 25.2112 174.845 24.5448C176.289 23.8227 177.844 23.4894 179.565 23.4894ZM220 36.8194C220 37.8191 219.945 38.6523 219.778 39.4298H200.005C200.171 41.3738 200.838 42.9289 202.06 44.0398C203.281 45.1506 204.725 45.7061 206.503 45.7061C209.058 45.7061 210.835 44.5953 211.946 42.4291H219.333C218.555 45.0395 217.056 47.2057 214.834 48.8719C212.612 50.5381 209.891 51.3713 206.669 51.3713C204.059 51.3713 201.727 50.8159 199.617 49.6495C197.561 48.4831 195.95 46.817 194.784 44.7064C193.673 42.5958 193.062 40.1519 193.062 37.3749C193.062 34.5977 193.618 32.0983 194.784 29.9877C195.95 27.8772 197.506 26.2664 199.56 25.1001C201.615 23.9338 203.949 23.3783 206.614 23.3783C209.169 23.3783 211.501 23.9338 213.502 25.0447C215.557 26.1555 217.111 27.7106 218.222 29.7657C219.445 31.8763 220 34.2089 220 36.8194ZM212.945 34.8755C212.89 33.0981 212.279 31.7096 211.058 30.6543C209.836 29.599 208.336 29.0436 206.503 29.0436C204.837 29.0436 203.393 29.5435 202.227 30.5987C201.116 31.5985 200.394 33.0426 200.116 34.8199H212.945V34.8755Z" fill="#CCDEFF"/>
<path d="M27.3264 61.9242H7.72028L27.3819 32.2094H47.0436L27.3264 61.9242ZM20.1615 1.55054H40.2675L20.1615 32.2094H0L20.1615 1.55054ZM87.0891 27.4329C87.0891 29.2658 86.6447 30.9875 85.7561 32.5427C84.9229 34.1534 83.5344 35.4309 81.7015 36.3751C79.8687 37.3749 77.5914 37.8191 74.7589 37.8191H69.0381V50.927H62.2065V16.88H74.7589C77.3692 16.88 79.6465 17.3244 81.4793 18.2685C83.3122 19.1571 84.7007 20.4347 85.645 22.0454C86.5893 23.6005 87.0891 25.3778 87.0891 27.4329ZM74.4811 32.3205C76.3695 32.3205 77.7581 31.8763 78.7023 31.0431C79.5909 30.1545 80.0908 28.9325 80.0908 27.3773C80.0908 24.0449 78.258 22.3786 74.5367 22.3786H69.0936V32.2651H74.4811V32.3205ZM96.8089 28.0994C97.6975 26.6554 98.8084 25.5445 100.252 24.7114C101.696 23.8782 103.307 23.4894 105.14 23.4894V30.6543H103.307C101.141 30.6543 99.5303 31.1542 98.4196 32.154C97.3642 33.1537 96.8089 34.931 96.8089 37.4303V50.927H89.9773V23.8782H96.8089V28.0994ZM119.748 51.3713C117.137 51.3713 114.804 50.8159 112.694 49.6495C110.639 48.4831 108.972 46.817 107.75 44.7064C106.584 42.5958 105.973 40.1519 105.973 37.3749C105.973 34.5977 106.584 32.154 107.806 30.0434C109.028 27.9328 110.694 26.3221 112.86 25.1558C114.971 23.9893 117.359 23.3783 119.914 23.3783C122.525 23.3783 124.857 23.9893 126.968 25.1558C129.078 26.3221 130.745 27.9328 131.967 30.0434C133.189 32.154 133.8 34.5977 133.8 37.3749C133.8 40.1519 133.189 42.5958 131.911 44.7064C130.689 46.817 128.967 48.4831 126.857 49.6495C124.746 50.8159 122.413 51.3713 119.748 51.3713ZM119.748 45.4283C120.969 45.4283 122.136 45.1506 123.191 44.5396C124.302 43.9287 125.191 42.9846 125.801 41.8181C126.468 40.5963 126.801 39.1522 126.801 37.4303C126.801 34.8755 126.135 32.876 124.746 31.543C123.413 30.1545 121.747 29.4324 119.803 29.4324C117.859 29.4324 116.193 30.1545 114.86 31.543C113.582 32.9315 112.916 34.8755 112.916 37.4303C112.916 39.9853 113.527 41.9848 114.804 43.3733C116.193 44.7064 117.803 45.4283 119.748 45.4283ZM143.741 45.5394H151.073V50.9825H136.91V12.6588H143.741V45.5394ZM156.405 20.6568C155.183 20.6568 154.183 20.268 153.406 19.5459C152.628 18.7684 152.239 17.8243 152.239 16.6578C152.239 15.4915 152.628 14.6028 153.406 13.8252C154.239 13.0476 155.239 12.6588 156.405 12.6588C157.626 12.6588 158.626 13.0476 159.404 13.8252C160.237 14.5472 160.626 15.4915 160.626 16.6578C160.626 17.8243 160.237 18.7684 159.404 19.5459C158.571 20.3236 157.626 20.6568 156.405 20.6568ZM159.793 23.8782V50.927H152.906V23.8782H159.793ZM179.565 23.4894C182.787 23.4894 185.398 24.4892 187.397 26.5443C189.396 28.5438 190.397 31.3764 190.397 35.0421V50.927H183.564V35.9864C183.564 33.8201 183.01 32.2094 181.954 31.0431C180.899 29.8766 179.399 29.2658 177.566 29.2658C175.677 29.2658 174.178 29.8766 173.067 31.0431C172.011 32.2094 171.457 33.8201 171.457 35.9864V50.927H164.569V23.8782H171.402V27.2662C172.289 26.0999 173.455 25.2112 174.845 24.5448C176.289 23.8227 177.844 23.4894 179.565 23.4894ZM220 36.8194C220 37.8191 219.945 38.6523 219.778 39.4298H200.005C200.171 41.3738 200.838 42.9289 202.06 44.0398C203.281 45.1506 204.725 45.7061 206.503 45.7061C209.058 45.7061 210.835 44.5953 211.946 42.4291H219.333C218.555 45.0395 217.056 47.2057 214.834 48.8719C212.612 50.5381 209.891 51.3713 206.669 51.3713C204.059 51.3713 201.727 50.8159 199.617 49.6495C197.561 48.4831 195.95 46.817 194.784 44.7064C193.673 42.5958 193.062 40.1519 193.062 37.3749C193.062 34.5977 193.618 32.0983 194.784 29.9877C195.95 27.8772 197.506 26.2664 199.56 25.1001C201.615 23.9338 203.949 23.3783 206.614 23.3783C209.169 23.3783 211.501 23.9338 213.502 25.0447C215.557 26.1555 217.111 27.7106 218.222 29.7657C219.445 31.8763 220 34.2089 220 36.8194ZM212.945 34.8755C212.89 33.0981 212.279 31.7096 211.058 30.6543C209.836 29.599 208.336 29.0436 206.503 29.0436C204.837 29.0436 203.393 29.5435 202.227 30.5987C201.116 31.5985 200.394 33.0426 200.116 34.8199H212.945V34.8755Z" fill="#CCDEFF" fill-opacity="0.6"/>
<path d="M20.1584 1.55054H40.339L20.1584 32.2146H0L20.1584 1.55054Z" fill="#CCDEFF"/>
<path d="M20.1584 1.55054H40.339L20.1584 32.2146H0L20.1584 1.55054Z" fill="#CCDEFF" fill-opacity="0.6"/>
<path d="M27.6545 31.2625H47.835L27.6545 61.9265H7.49609L27.6545 31.2625Z" fill="#CCDEFF"/>
<path d="M27.6545 31.2625H47.835L27.6545 61.9265H7.49609L27.6545 31.2625Z" fill="#CCDEFF" fill-opacity="0.6"/>
</g>
</g>
<defs>
<clipPath id="clip0_1_19969">
<rect width="220" height="62.8571" fill="white"/>
</clipPath>
</defs>
</svg>
