<svg xmlns="http://www.w3.org/2000/svg" viewBox="0 0 100 100" fill-rule="evenodd">
  <g stroke-width="0.5" stroke="white">
    <path fill="white" d="M88.6 23H87v-4.5c0-.8-.7-1.5-1.5-1.5s-1.5.7-1.5 1.5V23H18v-4.5c0-.8-.7-1.5-1.5-1.5s-1.5.7-1.5 1.5V23h-1.6C11 23 9.1 24.8 9 27.2v27.5c0 2.4 2 4.3 4.4 4.2h1.7v1.6C15.1 81.8 31.5 99 51.7 99s36.6-17.2 36.6-38.5v-1.6h.3c2.4 0 4.3-1.9 4.4-4.2V27.2c-.1-2.4-2-4.2-4.4-4.2zm-3.3 37.5C85.3 80.1 70.2 96 51.7 96S18.1 80.1 18.1 60.5v-1.6h28.6c.4 0 .9-.2 1.2-.5l3.7-4.4 3.5 4.4c.3.4.7.6 1.2.6h29.1v1.5zm4.7-5.8c-.1.7-.7 1.3-1.4 1.2H56.9l-4.2-5.3c-.3-.4-.7-.6-1.2-.6-.4 0-.9.2-1.2.5l-4.4 5.3H13.4c-.7 0-1.3-.5-1.4-1.2V27.2c.1-.7.7-1.2 1.4-1.2h75.2c.7 0 1.3.5 1.4 1.2v27.5z"/>
    <path fill="white" d="M36.8 34.4c-.7-.4-1.6-.2-2 .5l-5.4 9.2-4.6-9.1c-.3-.8-1.2-1.1-2-.8-.8.3-1.1 1.2-.8 2 0 0 0 .1.1.1L28 47.9c.2.5.7.8 1.3.8.6 0 1.1-.3 1.3-.8l6.8-11.6c.4-.6.1-1.5-.6-1.9zm39.1 7.4c1.6-.8 2.7-2.5 2.8-4.3 0-1.3-.7-4.5-7.2-4.5h-3c-.8 0-1.5.7-1.5 1.5v13c0 .8.7 1.5 1.5 1.5s1.5-.7 1.5-1.5V43h1.5c.5 0 1-.1 1.4-.2l3.8 5.5c.5.7 1.4.8 2.1.4.7-.5.8-1.4.4-2.1l-3.3-4.8zM70 40v-4h1.5c.7 0 4.2.1 4.2 1.5 0 1.2-1.7 2.5-4.2 2.5H70zM45 65.4c0 .8.7 1.5 1.5 1.5h10c.8 0 1.5-.7 1.5-1.5s-.7-1.5-1.5-1.5h-10c-.8 0-1.5.7-1.5 1.5zm6.3 8.6c-4.6 0-8.3 3.1-8.3 7s3.7 7 8.3 7 8.3-3.1 8.3-7-3.8-7-8.3-7zm0 11c-2.9 0-5.3-1.8-5.3-4s2.4-4 5.3-4 5.3 1.8 5.3 4-2.4 4-5.3 4z"/>
  </g>
</svg>
